<svg width="107" height="107" viewBox="0 0 107 107" fill="none" xmlns="http://www.w3.org/2000/svg">
<circle cx="53.2614" cy="53.2614" r="52.2614" stroke="#696969" stroke-opacity="0.2" stroke-width="2"/>
<path d="M52.0353 78.2981C38.4437 58.4245 35.9209 56.3849 35.9209 49.081C35.9209 39.0763 43.9619 30.9659 53.8811 30.9659C63.8003 30.9659 71.8414 39.0763 71.8414 49.081C71.8414 56.3849 69.3185 58.4245 55.7269 78.2981C54.835 79.5977 52.9272 79.5976 52.0353 78.2981ZM53.8811 56.6289C58.0141 56.6289 61.3646 53.2496 61.3646 49.081C61.3646 44.9124 58.0141 41.5331 53.8811 41.5331C49.7481 41.5331 46.3977 44.9124 46.3977 49.081C46.3977 53.2496 49.7481 56.6289 53.8811 56.6289Z" fill="#0EB062"/>
</svg>
