<svg width="108" height="107" viewBox="0 0 108 107" fill="none" xmlns="http://www.w3.org/2000/svg">
<path d="M75.5593 64.5548L66.0758 60.4904C65.6707 60.3178 65.2204 60.2814 64.7929 60.3868C64.3653 60.4921 63.9835 60.7336 63.705 61.0747L59.5051 66.2059C52.9139 63.0982 47.6095 57.7938 44.5018 51.2026L49.633 47.0027C49.9748 46.7247 50.2167 46.3429 50.3222 45.9151C50.4276 45.4873 50.3908 45.0369 50.2173 44.6319L46.1529 35.1484C45.9625 34.7118 45.6257 34.3554 45.2006 34.1405C44.7755 33.9257 44.2888 33.8658 43.8244 33.9714L35.0183 36.0036C34.5705 36.107 34.171 36.3591 33.885 36.7188C33.5989 37.0785 33.4433 37.5245 33.4434 37.9841C33.4434 59.703 51.0471 77.2728 72.732 77.2728C73.1917 77.2731 73.638 77.1175 73.9978 76.8315C74.3577 76.5454 74.61 76.1458 74.7134 75.6979L76.7456 66.8918C76.8505 66.4251 76.7894 65.9364 76.5729 65.5099C76.3564 65.0833 75.9979 64.7456 75.5593 64.5548Z" fill="#0EB062"/>
<path d="M106.761 53.7387C106.761 82.5909 83.0968 106 53.8807 106C24.6646 106 1 82.5909 1 53.7387C1 24.8864 24.6646 1.47729 53.8807 1.47729C83.0968 1.47729 106.761 24.8864 106.761 53.7387Z" stroke="#696969" stroke-opacity="0.2" stroke-width="2"/>
</svg>
