<svg width="106" height="107" viewBox="0 0 106 107" fill="none" xmlns="http://www.w3.org/2000/svg">
<path d="M104.284 53.7387C104.284 82.6129 81.1522 106 52.642 106C24.1319 106 1 82.6129 1 53.7387C1 24.8644 24.1319 1.47729 52.642 1.47729C81.1522 1.47729 104.284 24.8644 104.284 53.7387Z" stroke="#696969" stroke-opacity="0.2" stroke-width="2"/>
<path d="M45.9072 50.7777H60.616C61.4287 50.7777 62.0869 50.1368 62.0869 49.3456V47.9134C62.0869 47.1221 61.4287 46.4812 60.616 46.4812H45.9072C45.0946 46.4812 44.4363 47.1221 44.4363 47.9134V49.3456C44.4363 50.1368 45.0946 50.7777 45.9072 50.7777ZM44.4363 57.9386C44.4363 58.7298 45.0946 59.3707 45.9072 59.3707H60.616C61.4287 59.3707 62.0869 58.7298 62.0869 57.9386V56.5064C62.0869 55.7151 61.4287 55.0742 60.616 55.0742H45.9072C45.0946 55.0742 44.4363 55.7151 44.4363 56.5064V57.9386ZM53.2616 68.7809C51.7521 68.7809 50.2426 68.328 48.9538 67.4213L29.7275 53.8981V72.9763C29.7275 75.3492 31.7031 77.2728 34.1402 77.2728H72.3831C74.8201 77.2728 76.7957 75.3492 76.7957 72.9763V53.8981L57.5695 67.4213C56.2806 68.3271 54.7711 68.7809 53.2616 68.7809ZM75.1051 46.0292C74.2915 45.408 73.5203 44.8235 72.3831 43.9875V40.0365C72.3831 37.6636 70.4075 35.74 67.9704 35.74H60.8413C60.5618 35.5431 60.3016 35.3587 60.0102 35.1528C58.4649 34.0545 55.3944 31.4122 53.2616 31.4435C51.1289 31.4122 48.0593 34.0545 46.513 35.1528C46.2216 35.3587 45.9615 35.5431 45.682 35.74H38.5528C36.1158 35.74 34.1402 37.6636 34.1402 40.0365V43.9875C33.003 44.8226 32.2317 45.408 31.4181 46.0292C30.8915 46.4311 30.4657 46.9442 30.1728 47.53C29.8799 48.1157 29.7276 48.7586 29.7275 49.41V50.3633L38.5528 56.5708V40.0365H67.9704V56.5708L76.7957 50.3633V49.41C76.7957 48.0906 76.1724 46.8438 75.1051 46.0292Z" fill="#0EB062"/>
</svg>
