<svg width="45" height="40" viewBox="0 0 45 40" fill="none" xmlns="http://www.w3.org/2000/svg">
<path d="M28.125 26.7188C28.125 27.4957 27.4957 28.125 26.7188 28.125H18.2812C17.5043 28.125 16.875 27.4957 16.875 26.7188V22.5H0V35.1562C0 37.4062 1.96875 39.375 4.21875 39.375H40.7812C43.0312 39.375 45 37.4062 45 35.1562V22.5H28.125V26.7188ZM40.7812 8.4375H33.75V4.21875C33.75 1.96875 31.7812 0 29.5312 0H15.4688C13.2188 0 11.25 1.96875 11.25 4.21875V8.4375H4.21875C1.96875 8.4375 0 10.4062 0 12.6562V19.6875H45V12.6562C45 10.4062 43.0312 8.4375 40.7812 8.4375ZM28.125 8.4375H16.875V5.625H28.125V8.4375Z" fill="#7B7B7B"/>
</svg>
