<?xml version="1.0" encoding="utf-8"?>
<!-- Generator: Adobe Illustrator 24.2.3, SVG Export Plug-In . SVG Version: 6.00 Build 0)  -->
<svg version="1.1" id="Layer_1" xmlns="http://www.w3.org/2000/svg" xmlns:xlink="http://www.w3.org/1999/xlink" x="0px" y="0px"
	 viewBox="0 0 48 48" style="enable-background:new 0 0 48 48;" xml:space="preserve">
<style type="text/css">
	.st0{fill:#898989;}
	.st1{fill-rule:evenodd;clip-rule:evenodd;fill:#777677;}
	.st2{clip-path:url(#SVGID_2_);fill:#777677;}
	.st3{clip-path:url(#SVGID_4_);fill:#777677;}
	.st4{clip-path:url(#SVGID_6_);}
	.st5{fill:#777677;}
	.st6{clip-path:url(#SVGID_8_);fill:#777677;}
</style>
<g>
	<defs>
		<path id="SVGID_1_" d="M30.9,42.14H17.1c-6.24,0-11.29-5.06-11.29-11.29V17.04c0-6.24,5.06-11.29,11.29-11.29H30.9
			c6.24,0,11.29,5.06,11.29,11.29v13.81C42.2,37.08,37.14,42.14,30.9,42.14z"/>
	</defs>
	<clipPath id="SVGID_2_">
		<use xlink:href="#SVGID_1_"  style="overflow:visible;"/>
	</clipPath>
	<path class="st2" d="M42.11,10.42c0,9.03,0,18.07,0,27.1c-0.1,0.03-0.07,0.11-0.08,0.17c-0.47,2.52-2.65,4.35-5.21,4.35
		c-2.76,0.01-5.52,0-8.28,0.01c-0.24,0-0.31-0.05-0.31-0.3c0.01-4.07,0.01-8.13,0-12.2c0-0.24,0.05-0.31,0.3-0.31
		c1.56,0.01,3.11-0.01,4.67,0.02c0.33,0,0.43-0.09,0.48-0.4c0.31-1.98,0.65-3.97,0.98-5.98c-0.14,0-0.26,0-0.39,0
		c-1.91,0-3.82,0-5.73,0.01c-0.24,0-0.32-0.05-0.31-0.3c0.01-1.23,0.01-2.45,0-3.68c0-0.27,0.05-0.35,0.34-0.35
		c1.92,0.01,3.84,0,5.76,0.01c0.27,0,0.35-0.05,0.35-0.34c-0.01-1.9-0.01-3.8,0-5.69c0-0.27-0.05-0.35-0.34-0.35
		c-1.9,0.01-3.8,0.01-5.69,0.01c-0.54,0-1.08,0.04-1.62,0.13c-2.6,0.43-4.84,2.82-5.09,5.44c-0.15,1.59-0.04,3.18-0.06,4.77
		c0,0.26-0.05,0.36-0.34,0.35c-1.2-0.02-2.4,0-3.61-0.01c-0.24,0-0.32,0.04-0.31,0.3c0.01,1.92,0.01,3.84,0,5.77
		c0,0.29,0.1,0.31,0.34,0.31c1.19-0.01,2.38,0,3.57-0.01c0.26,0,0.35,0.05,0.35,0.34c-0.01,4.04-0.01,8.09,0,12.13
		c0,0.26-0.05,0.35-0.34,0.35c-3.43-0.01-6.86-0.01-10.29-0.01c-0.29,0-0.58-0.02-0.88-0.06C7.87,41.62,5.9,39.4,5.9,36.86
		c-0.01-8.62-0.02-17.24,0.01-25.85c0.01-2.09,1.08-3.62,2.91-4.62c0.51-0.28,1.07-0.36,1.6-0.56c9.01,0,18.02,0,27.03,0
		c0.02,0.02,0.04,0.06,0.07,0.06c1.92,0.26,3.26,1.31,4.12,3.03C41.87,9.4,41.95,9.92,42.11,10.42z"/>
</g>
</svg>
