<?xml version="1.0" encoding="utf-8"?>
<!-- Generator: Adobe Illustrator 24.2.3, SVG Export Plug-In . SVG Version: 6.00 Build 0)  -->
<svg version="1.1" id="Layer_1" xmlns="http://www.w3.org/2000/svg" xmlns:xlink="http://www.w3.org/1999/xlink" x="0px" y="0px"
	 viewBox="0 0 48 48" style="enable-background:new 0 0 48 48;" xml:space="preserve">
<style type="text/css">
	.st0{fill:#898989;}
	.st1{fill-rule:evenodd;clip-rule:evenodd;fill:#777677;}
	.st2{clip-path:url(#SVGID_2_);fill:#777677;}
	.st3{clip-path:url(#SVGID_4_);fill:#777677;}
	.st4{clip-path:url(#SVGID_6_);}
	.st5{fill:#777677;}
	.st6{clip-path:url(#SVGID_8_);fill:#777677;}
</style>
<path class="st0" d="M24,17.27c-0.88,0-1.76,0.17-2.58,0.51c-0.82,0.34-1.56,0.83-2.18,1.46c-0.63,0.63-1.12,1.37-1.46,2.18
	c-0.34,0.82-0.51,1.69-0.51,2.58s0.17,1.76,0.51,2.58c0.34,0.82,0.83,1.56,1.46,2.18s1.37,1.12,2.18,1.46
	c0.82,0.34,1.69,0.51,2.58,0.51s1.76-0.17,2.58-0.51c0.82-0.34,1.56-0.83,2.18-1.46c0.63-0.63,1.12-1.37,1.46-2.18
	c0.34-0.82,0.51-1.69,0.51-2.58s-0.17-1.76-0.51-2.58c-0.34-0.82-0.83-1.56-1.46-2.18c-0.63-0.63-1.37-1.12-2.18-1.46
	C25.76,17.44,24.88,17.27,24,17.27z M24,14.38c5.3,0,9.62,4.31,9.62,9.62c0,5.3-4.31,9.62-9.62,9.62c-5.3,0-9.62-4.31-9.62-9.62
	C14.38,18.7,18.7,14.38,24,14.38z M33.62,12.46c1.06,0,1.92,0.86,1.92,1.92c0,1.06-0.86,1.92-1.92,1.92c-1.06,0-1.92-0.86-1.92-1.92
	C31.69,13.32,32.55,12.46,33.62,12.46z M16.79,5.73c-6.1,0-11.06,4.96-11.06,11.06v14.43c0,6.1,4.96,11.06,11.06,11.06h14.43
	c6.1,0,11.06-4.96,11.06-11.06V16.79c0-6.1-4.96-11.06-11.06-11.06H16.79z"/>
</svg>
