<svg width="122" height="110" viewBox="0 0 122 110" fill="none" xmlns="http://www.w3.org/2000/svg">
<path d="M51.1932 54.6692C49.4877 56.7236 47.8208 58.7392 46.1541 60.7355C45.5339 61.4913 44.9137 62.2665 44.2548 63.003C42.5687 64.8636 39.9717 65.4063 37.646 64.476C35.2815 63.5263 33.9829 61.4913 34.0798 58.8748C34.0992 58.3516 34.1573 58.0027 33.4402 57.7701C29.5834 56.5297 28.1493 52.1109 30.475 48.758C31.1146 47.8471 31.8317 46.9943 32.6457 45.909C31.2696 45.909 30.068 45.8702 28.8858 45.9284C28.4594 45.9477 28.1687 46.316 27.9555 46.6648C25.4942 50.7542 21.5792 52.7311 17.1798 53.9327C11.7919 55.3863 6.63649 54.7855 1.84941 51.7621C0.802839 51.1031 0.318359 50.2504 0.318359 48.9906C0.33774 42.1297 0.318378 35.2689 0.337759 28.408C0.337759 26.6831 0.861053 26.0628 2.52781 26.0434C8.67155 25.9853 14.0982 23.8727 19.1953 20.5586C22.8583 18.1747 26.7926 16.3917 31.1921 15.8296C32.5875 15.6552 33.983 15.6359 35.3396 16.0041C36.0955 16.1979 36.2118 15.9071 36.3281 15.3451C37.2584 10.9456 38.2274 6.54621 39.177 2.12735C39.4677 0.731915 40.2235 0.208576 41.5608 0.499291C49.3132 2.14668 57.0655 3.79404 64.8179 5.44142C77.8031 8.19352 90.7884 10.9456 103.793 13.6977C107.669 14.5117 111.545 15.3258 115.421 16.1592C116.662 16.4305 117.263 17.322 116.991 18.5624C114.104 32.3229 111.196 46.064 108.309 59.8245C108.018 61.1618 107.223 61.7044 105.731 61.3944C102.049 60.6385 98.3663 59.8438 94.7033 59.0686C84.3927 56.8786 74.1014 54.708 63.7908 52.4985C63.1706 52.3629 63.0349 52.5179 63.0349 53.1187C63.0349 54.301 63.3449 55.4638 63.1124 56.6654C62.5309 59.6307 60.0308 61.685 57.1043 61.4912C53.984 61.278 51.639 59.0105 51.4452 55.9871C51.4452 55.5607 51.4839 55.1343 51.1932 54.6692Z" fill="#4B4B4B"/>
<path d="M37.4714 76.8216C37.9366 76.7828 38.5956 76.9379 39.2352 77.151C46.2704 79.4961 53.3056 81.8219 60.3409 84.167C60.8641 84.3414 61.1742 84.3801 61.5619 83.7987C62.9573 81.7249 65.1473 81.0273 67.473 80.9692C75.9231 80.7172 84.2181 79.3411 92.3387 77.151C97.3002 75.8138 101.777 76.6472 105.886 79.4768C110.363 82.5584 114.976 85.3879 119.937 87.6555C121.1 88.1788 121.371 88.9347 120.964 90.1363C118.968 96.0669 116.991 102.017 114.976 107.947C114.414 109.634 113.348 110.021 111.855 109.11C107.998 106.804 103.715 105.816 99.3352 105.215C93.0945 104.323 86.8152 104.401 80.5358 104.827C78.2101 104.982 75.8844 105.37 73.578 105.68C69.8569 106.164 66.3683 105.699 63.1317 103.412C58.9454 100.466 54.2941 98.2376 49.7784 95.8344C45.0688 93.3342 40.3398 90.9116 35.6302 88.4502C34.448 87.83 33.3046 87.1711 32.413 86.1633C30.3393 83.8763 30.3974 80.9886 32.6068 78.7985C33.8666 77.5194 35.3977 76.8216 37.4714 76.8216Z" fill="#4B4B4B"/>
<path d="M92.1643 46.8974C90.013 46.4517 87.8617 46.0059 85.6911 45.5407C74.7796 43.2538 63.8875 40.9668 52.9761 38.7186C52.0458 38.5248 51.5032 38.2923 51.29 37.1875C50.7279 34.3773 48.9061 32.633 46.0959 31.9741C45.5339 31.8384 45.3206 31.7221 45.4563 31.0438C46.2897 27.342 47.065 23.6403 47.8208 19.9191C47.9565 19.2989 48.2084 19.0275 48.8674 18.9694C51.445 18.7174 53.4025 17.4383 54.7204 15.2288C55.1081 14.5893 55.4762 14.5312 56.0964 14.6668C63.0154 16.1398 69.9344 17.6128 76.8728 19.0664C83.4623 20.4618 90.0517 21.8378 96.6606 23.2138C97.3583 23.3495 97.6878 23.5627 97.8041 24.3961C98.1336 26.8769 99.4709 28.8149 101.603 30.1328C102.107 30.4429 102.242 30.7337 102.107 31.3538C101.351 34.6874 100.672 38.0403 99.9554 41.3932C99.8197 42.0134 99.6454 42.401 98.8314 42.4979C96.2537 42.808 94.2962 44.1647 92.9008 46.3547C92.7264 46.6648 92.6101 47.0137 92.1643 46.8974Z" fill="#FCFCFC"/>
<path d="M47.6075 45.1724C48.8479 44.3778 49.8363 43.5638 50.5341 42.4591C50.8248 41.994 51.2512 42.1683 51.6388 42.2458C59.1973 43.8351 66.7559 45.4244 74.3144 47.0136C80.5551 48.3315 86.7764 49.6301 93.0171 50.9286C94.6063 51.2581 95.304 50.8317 95.7691 49.32C96.4474 47.1299 98.2111 45.967 100.517 46.2383C102.145 46.4128 102.785 45.9671 103.095 44.3972C104.083 39.6295 105.072 34.8424 106.06 30.0746C106.37 28.6017 105.925 27.8652 104.452 27.4195C102.087 26.7217 100.924 24.803 101.389 22.3416C101.603 21.1788 101.099 20.4035 99.8972 20.1322C90.4781 18.1747 81.059 16.2172 71.6399 14.2597C65.9419 13.0774 60.2245 11.8952 54.5265 10.7323C53.2668 10.4804 52.4721 10.9262 52.1039 12.089C51.2899 14.6861 49.5263 15.7908 46.8324 15.3644C45.7664 15.2094 44.9718 15.7326 44.7586 16.7986C43.8089 21.4113 42.8398 26.024 41.9095 30.6367C41.7545 31.4119 41.4445 31.7026 40.6499 31.6445C39.642 31.567 38.6148 31.6057 37.5876 31.6251C37.0062 31.6445 36.7543 31.567 36.9094 30.8305C38.6343 22.9231 40.3397 15.0156 42.0452 7.08881C42.2003 6.39109 42.4329 5.71272 42.4717 4.99563C42.5298 4.29791 42.7817 4.29794 43.3631 4.41422C48.6929 5.5577 54.0226 6.6818 59.3717 7.8059C72.3569 10.558 85.3422 13.31 98.3468 16.0621C102.959 17.0312 107.553 18.0197 112.165 18.95C112.979 19.1244 113.251 19.3376 113.057 20.2485C111.235 28.6986 109.471 37.1487 107.688 45.5988C106.932 49.2037 106.138 52.8085 105.401 56.4328C105.246 57.1886 104.956 57.3437 104.258 57.1886C96.7963 55.5994 89.3346 54.0489 81.8923 52.4597C70.8646 50.1146 59.837 47.7501 48.8092 45.405C48.441 45.3856 48.1114 45.2887 47.6075 45.1724Z" fill="#FCFCFC"/>
<path d="M36.9095 42.2263C34.5644 42.2263 32.2193 42.2652 29.8742 42.2071C27.7229 42.1489 25.9593 43.0017 24.8158 44.7266C22.5483 48.157 19.1566 49.6687 15.3773 50.5409C11.6756 51.3936 8.10941 51.0835 4.73714 49.1842C4.09757 48.8353 3.82631 48.409 3.84569 47.6725C3.88445 41.9939 3.88445 36.3346 3.84569 30.656C3.84569 29.8807 4.0588 29.5706 4.85342 29.5318C10.1444 29.2411 14.9897 27.5744 19.4667 24.7448C22.587 22.7679 25.7654 20.8879 29.3703 19.8801C31.0758 19.3956 32.8007 19.1243 34.5838 19.5119C35.2233 19.6475 35.4365 19.8802 35.3008 20.5391C34.545 23.9696 33.8085 27.4193 33.072 30.8691C32.9363 31.5281 32.6456 31.7025 32.0061 31.4505C31.3859 31.2179 30.8627 30.8885 30.3975 30.4234C29.5254 29.5512 28.4594 29.4931 27.6648 30.1908C26.9089 30.8498 26.9089 31.9545 27.6842 32.9429C28.9827 34.5515 30.8044 35.0167 32.7231 35.2492C35.3783 35.5593 38.0142 35.1911 40.6694 35.2104C41.9873 35.2298 43.3245 35.1911 44.6424 35.3267C46.3867 35.5011 47.6465 36.7416 47.8015 38.2921C47.9953 40.1139 47.1425 41.5093 45.5533 42.0714C45.0881 42.2264 44.623 42.2263 44.1385 42.2263C41.7353 42.2263 39.3127 42.2263 36.9095 42.2263Z" fill="#FCFCFC"/>
<path d="M50.5728 49.7463C48.6541 52.072 46.8324 54.2621 45.0299 56.4522C43.9446 57.7507 42.8787 59.0686 41.774 60.3478C40.8049 61.4719 39.5257 61.6463 38.5373 60.8323C37.5876 60.0571 37.4908 58.6616 38.3823 57.5569C40.6692 54.7273 42.9756 51.9365 45.2819 49.1262C45.4757 48.8937 45.6501 48.6223 46.0184 48.6998C47.4719 49.0486 48.9448 49.3781 50.5728 49.7463Z" fill="#FCFCFC"/>
<path d="M35.1457 54.3978C34.3511 54.3203 33.7115 54.0295 33.3239 53.2931C32.8782 52.4403 32.8201 51.5682 33.3821 50.793C34.3705 49.4557 35.4558 48.1959 36.483 46.9168C36.6962 46.6648 36.9288 46.6647 37.2195 46.7229C38.4793 47.0136 39.7196 47.2849 40.9794 47.5562C41.4639 47.6532 41.619 47.8083 41.2314 48.2735C39.7778 50.0177 38.363 51.7814 36.9289 53.545C36.4637 54.1071 35.8241 54.3397 35.1457 54.3978Z" fill="#FBFBFB"/>
<path d="M54.7011 51.2774C54.5267 50.5991 54.8561 50.4052 55.6314 50.6378C56.3484 50.8316 57.0849 51.0835 57.802 51.0835C58.9842 51.1223 59.3331 51.7425 59.3913 52.7697C59.4494 53.5449 59.5851 54.3202 59.682 55.076C59.8564 56.4521 59.1005 57.4987 57.7826 57.7119C56.5035 57.9057 55.3407 57.0917 55.1662 55.7544C54.9724 54.3396 54.8562 52.886 54.7011 51.2774Z" fill="#FBFBFB"/>
<path d="M71.2328 89.8456C69.6823 89.8068 68.1125 90.0976 66.5621 89.7293C66.1938 89.6324 65.845 89.5355 65.5155 89.3611C64.4883 88.8572 63.8487 87.9269 63.9844 87.0547C64.1394 85.9306 64.9146 85.3299 65.9225 85.0585C67.4342 84.6322 69.0234 84.7678 70.5739 84.6515C78.3069 84.0701 85.9236 82.8297 93.3853 80.7947C96.8157 79.845 99.9553 80.2909 102.766 82.3065C106.991 85.3493 111.371 88.1013 116.138 90.2138C116.584 90.4076 116.642 90.6402 116.507 91.0666C115.034 95.6018 113.58 100.156 112.127 104.692C111.991 105.099 111.836 105.195 111.429 105.002C105.343 102.172 98.8312 101.435 92.2223 101.125C86.6794 100.873 81.1559 101.087 75.6517 101.746C73.8299 101.959 72.0469 102.424 70.2057 102.346C68.442 102.269 66.8528 101.804 65.3605 100.757C61.8913 98.3151 58.0926 96.4158 54.3715 94.4002C48.5185 91.2411 42.6267 88.1982 36.6768 85.2329C36.0953 84.9422 35.5333 84.6321 35.0681 84.1864C34.3898 83.5468 34.0409 82.8104 34.5642 81.9188C35.1844 80.8335 36.4635 80.3102 37.607 80.6784C39.7389 81.3568 41.8515 82.0739 43.964 82.791C49.1968 84.5353 54.4296 86.2795 59.6625 88.0238C60.0501 88.1594 60.4377 88.237 60.5927 88.7022C61.6974 91.8613 64.2363 93.1792 67.2791 93.528C69.8374 93.8381 72.4344 93.7994 74.9927 93.4117C76.2718 93.2179 77.0472 92.4233 76.9115 91.4736C76.7565 90.2914 75.9424 89.6712 74.5858 89.7487C74.0043 89.7681 73.4423 89.8456 72.8608 89.865C72.3182 89.865 71.7755 89.8456 71.2328 89.8456Z" fill="#FCFCFC"/>
<path d="M74.6052 21.7989C79.7993 21.8183 83.8304 25.8496 83.8304 31.0437C83.8304 36.0827 79.7411 40.1721 74.799 40.1334C69.5468 40.0752 65.5349 36.1409 65.5543 31.0631C65.5349 25.8108 69.4887 21.7795 74.6052 21.7989Z" fill="#16B061"/>
<path d="M74.9542 30.4041C74.9542 33.3888 77.9582 30.4041 74.9542 30.4041C71.8338 30.4235 74.9929 33.4469 74.9542 30.4041C74.9154 27.2838 72.9579 28.9505 75.9813 28.9505C75.2836 28.9312 75.2449 29.5707 74.9542 30.4041Z" fill="#FCFCFC"/>
<path d="M75.3417 33.2919C77.1506 33.2919 78.617 31.9644 78.617 30.3267C78.617 28.689 77.1506 27.3613 75.3417 27.3613C73.5327 27.3613 72.0664 28.689 72.0664 30.3267C72.0664 31.9644 73.5327 33.2919 75.3417 33.2919Z" fill="#16B061"/>
</svg>
