<?xml version="1.0" encoding="utf-8"?>
<!-- Generator: Adobe Illustrator 24.2.3, SVG Export Plug-In . SVG Version: 6.00 Build 0)  -->
<svg version="1.1" id="Layer_1" xmlns="http://www.w3.org/2000/svg" xmlns:xlink="http://www.w3.org/1999/xlink" x="0px" y="0px"
	 viewBox="0 0 199 76" style="enable-background:new 0 0 199 76;" xml:space="preserve">
<style type="text/css">
	.st0{fill:none;}
	.st1{fill-rule:evenodd;clip-rule:evenodd;}
	.st2{clip-path:url(#SVGID_2_);}
	.st3{fill:#F1F1F1;}
	.st4{clip-path:url(#SVGID_4_);}
	.st5{clip-path:url(#SVGID_6_);}
	.st6{clip-path:url(#SVGID_8_);}
</style>
<g>
	<g transform="translate(121.513227, 284.77561)">
		<g>
			<path d="M348.2-23.5c-3.2,0-5.7-0.8-7.5-2.3c-1.9-1.5-3.1-3.6-3.7-6.1l6.5-2.4c0.2,0.8,0.5,1.7,0.8,2.5c0.4,0.8,0.9,1.4,1.5,2
				c0.7,0.5,1.4,0.8,2.4,0.8c1.5,0,2.6-0.5,3.4-1.4c0.8-1,1.2-2.6,1.2-5v-18.6h7.1v18.6c0,3.8-1,6.7-3,8.9
				C355-24.6,352.1-23.5,348.2-23.5z"/>
		</g>
	</g>
</g>
<g>
	<g transform="translate(140.439125, 284.77561)">
		<g>
			<path d="M345-24.1v-30.1h23.2v6.3h-16v5.2h9.8v6.3h-9.8v6.1h16v6.3H345z"/>
		</g>
	</g>
</g>
<g>
	<g transform="translate(160.04095, 284.77561)">
		<g>
			<path d="M357.3-24.1L350-54.2h7.1l4.2,20.9l4.4-20.9h7.4l4.5,20.9l4.2-20.9h7.1l-7.3,30.1h-7.6l-4.6-21.2l-4.6,21.2H357.3z"/>
		</g>
	</g>
</g>
<g>
	<g transform="translate(189.88304, 284.77561)">
		<g>
			<path d="M361.5-24.1v-30.1h23.2v6.3h-16v5.2h9.8v6.3h-9.8v6.1h16v6.3H361.5z"/>
		</g>
	</g>
</g>
<g>
	<g transform="translate(209.484865, 284.77561)">
		<g>
			<path d="M368-24.1v-30.1h7.1v23.8h14.4v6.3H368z"/>
		</g>
	</g>
</g>
<g>
	<g transform="translate(227.633453, 284.77561)">
		<g>
			<path d="M389.3-23.5c-3.1,0-5.8-0.6-8.1-1.9c-2.3-1.3-4.2-3.1-5.5-5.4c-1.3-2.3-2-5.1-2-8.2c0-3.1,0.7-5.9,2-8.2
				c1.3-2.3,3.1-4.2,5.5-5.5c2.3-1.3,5.1-1.9,8.1-1.9c3.1,0,5.8,0.6,8.1,1.9c2.3,1.3,4.2,3.1,5.5,5.5c1.3,2.3,2,5.1,2,8.2
				c0,3.1-0.7,5.9-2,8.2c-1.3,2.3-3.2,4.1-5.5,5.4C395.1-24.2,392.4-23.5,389.3-23.5z M389.3-29.4c1.5,0,2.8-0.4,4-1.1
				c1.2-0.7,2.2-1.8,3-3.3c0.7-1.4,1.1-3.2,1.1-5.4c0-2.1-0.4-3.9-1.1-5.4c-0.7-1.4-1.7-2.5-3-3.3c-1.2-0.7-2.6-1.1-4-1.1
				c-1.4,0-2.8,0.4-4,1.1c-1.2,0.7-2.2,1.8-2.9,3.3c-0.7,1.4-1.1,3.2-1.1,5.4c0,2.1,0.4,3.9,1.1,5.4c0.7,1.4,1.7,2.5,2.9,3.3
				C386.5-29.8,387.8-29.4,389.3-29.4z"/>
		</g>
	</g>
</g>
<g>
	<g transform="translate(43.988847, 324.161246)">
		<g>
			<path d="M311.2-10.9l6.9-18.4h2.9l6.9,18.4h-2.8l-1.4-4h-8.4l-1.4,4H311.2z M316.1-17.2h6.8l-3.4-9.5L316.1-17.2z"/>
		</g>
	</g>
</g>
<g>
	<g transform="translate(56.887921, 324.161246)">
		<g>
			<path d="M317.3-10.9v-18.4h5.8c1.5,0,2.8,0.1,4,0.4c1.2,0.3,2.1,0.8,2.7,1.5c0.7,0.8,1,1.9,1,3.3c0,0.8-0.1,1.6-0.4,2.3
				c-0.3,0.7-0.7,1.3-1.5,1.8c-0.7,0.5-1.8,0.8-3.2,1l5.7,7.9h-3.2l-5.6-7.7h-2.8v7.7H317.3z M319.9-20.8h3.4c0.9,0,1.7-0.1,2.4-0.2
				c0.7-0.1,1.3-0.4,1.7-0.9c0.4-0.5,0.6-1.2,0.6-2.1c0-1-0.2-1.7-0.6-2.1c-0.4-0.4-1-0.7-1.7-0.9c-0.7-0.1-1.5-0.2-2.4-0.2h-3.4
				V-20.8z"/>
		</g>
	</g>
</g>
<g>
	<g transform="translate(69.622155, 324.161246)">
		<g>
			<path d="M325.8-10.9v-16.1h-6.1v-2.2h14.8v2.2h-6.1v16.1H325.8z"/>
		</g>
	</g>
</g>
<g>
	<g transform="translate(81.120058, 324.161246)">
		<g>
			<path d="M325.1-10.9v-2h2.6v-14.3h-2.6v-2h7.8v2h-2.6V-13h2.6v2H325.1z"/>
		</g>
	</g>
</g>
<g>
	<g transform="translate(89.650761, 324.161246)">
		<g>
			<path d="M328.2-10.9v-18.4h11.9v2.2h-9.4v5.6h9.4v2.2h-9.4v8.3H328.2z"/>
		</g>
	</g>
</g>
<g>
	<g transform="translate(100.942607, 324.161246)">
		<g>
			<path d="M331.7-10.9v-2h2.6v-14.3h-2.6v-2h7.8v2h-2.6V-13h2.6v2H331.7z"/>
		</g>
	</g>
</g>
<g>
	<g transform="translate(109.47331, 324.161246)">
		<g>
			<path d="M342.4-10.6c-1.8,0-3.3-0.4-4.5-1.2c-1.2-0.8-2.2-1.9-2.9-3.4c-0.7-1.4-1-3.1-1-5c0-1.9,0.4-3.6,1.1-5
				c0.7-1.4,1.7-2.5,3-3.3c1.3-0.8,2.8-1.2,4.5-1.2c1.5,0,2.9,0.4,4.2,1.1c1.2,0.7,2.2,1.7,2.8,3.1l-2.3,0.8c-0.4-0.8-1-1.5-1.8-2
				c-0.8-0.5-1.8-0.8-3-0.8c-1.1,0-2.1,0.3-2.9,0.8c-0.9,0.5-1.6,1.4-2.1,2.5c-0.5,1.1-0.8,2.4-0.8,4c0,1.5,0.2,2.9,0.7,4
				c0.5,1.1,1.2,1.9,2.1,2.5c0.9,0.6,1.9,0.9,3,0.9c1.2,0,2.2-0.3,3-0.8c0.8-0.5,1.4-1.2,1.9-2l2.3,0.8c-0.7,1.3-1.6,2.4-2.9,3.1
				C345.5-11,344.1-10.6,342.4-10.6z"/>
		</g>
	</g>
</g>
<g>
	<g transform="translate(122.990554, 324.161246)">
		<g>
			<path d="M339-10.9v-2h2.6v-14.3H339v-2h7.8v2h-2.6V-13h2.6v2H339z"/>
		</g>
	</g>
</g>
<g>
	<g transform="translate(131.521257, 324.161246)">
		<g>
			<path d="M340.3-10.9l6.9-18.4h2.9l6.9,18.4h-2.8l-1.4-4h-8.4l-1.4,4H340.3z M345.3-17.2h6.8l-3.4-9.5L345.3-17.2z"/>
		</g>
	</g>
</g>
<g>
	<g transform="translate(144.420331, 324.161246)">
		<g>
			<path d="M346.5-10.9v-18.4h2.6v16.1h9.9v2.2H346.5z"/>
		</g>
	</g>
</g>
<g>
	<g transform="translate(155.526724, 324.161246)">
	</g>
</g>
<g>
	<g transform="translate(161.296284, 324.161246)">
		<g>
			<path d="M356.1-10.6c-1.7,0-3.1-0.5-4.1-1.4c-1-0.9-1.5-2.3-1.6-4.1l2.4-0.7c0,1.4,0.3,2.4,1,3.1c0.7,0.7,1.5,1,2.4,1
				c0.5,0,1-0.1,1.5-0.3c0.5-0.2,0.9-0.6,1.2-1.2c0.3-0.6,0.5-1.4,0.5-2.5v-12.5h2.6v12.5c0,2-0.5,3.5-1.5,4.6
				C359.4-11.1,357.9-10.6,356.1-10.6z"/>
		</g>
	</g>
</g>
<g>
	<g transform="translate(171.80512, 324.161246)">
		<g>
			<path d="M355.6-10.9v-18.4H368v2.2h-9.9v5.6h7.3v2.2h-7.3v6.1h9.9v2.2H355.6z"/>
		</g>
	</g>
</g>
<g>
	<g transform="translate(183.488466, 324.161246)">
		<g>
			<path d="M362.3-10.9l-4.6-18.4h2.8l3.6,15.2l3.3-15.2h3l3.3,15.2l3.6-15.2h2.8l-4.6,18.4h-3.1l-3.5-15.2l-3.5,15.2H362.3z"/>
		</g>
	</g>
</g>
<g>
	<g transform="translate(200.797137, 324.161246)">
		<g>
			<path d="M365.2-10.9v-18.4h12.5v2.2h-9.9v5.6h7.3v2.2h-7.3v6.1h9.9v2.2H365.2z"/>
		</g>
	</g>
</g>
<g>
	<g transform="translate(212.480492, 324.161246)">
		<g>
			<path d="M369.1-10.9v-18.4h2.6v16.1h9.9v2.2H369.1z"/>
		</g>
	</g>
</g>
<g>
	<g transform="translate(223.586876, 324.161246)">
		<g>
			<path d="M372.8-10.9v-18.4h2.6v16.1h9.9v2.2H372.8z"/>
		</g>
	</g>
</g>
<g>
	<g transform="translate(234.69326, 324.161246)">
		<g>
			<path d="M376.5-10.9v-18.4H389v2.2h-9.9v5.6h7.3v2.2h-7.3v6.1h9.9v2.2H376.5z"/>
		</g>
	</g>
</g>
<g>
	<g transform="translate(246.376606, 324.161246)">
		<g>
			<path d="M380.4-10.9v-18.4h5.8c1.5,0,2.8,0.1,4,0.4c1.2,0.3,2.1,0.8,2.7,1.5c0.7,0.8,1,1.9,1,3.3c0,0.8-0.1,1.6-0.4,2.3
				c-0.3,0.7-0.7,1.3-1.5,1.8c-0.7,0.5-1.8,0.8-3.2,1l5.7,7.9h-3.2l-5.6-7.7H383v7.7H380.4z M383-20.8h3.4c0.9,0,1.7-0.1,2.4-0.2
				c0.7-0.1,1.3-0.4,1.7-0.9c0.4-0.5,0.6-1.2,0.6-2.1c0-1-0.2-1.7-0.6-2.1c-0.4-0.4-1-0.7-1.7-0.9c-0.7-0.1-1.5-0.2-2.4-0.2H383
				V-20.8z"/>
		</g>
	</g>
</g>
<g>
	<g transform="translate(259.11084, 324.161246)">
		<g>
			<path d="M389.5-10.9v-7.1l-6.6-11.2h2.8l5.1,8.9l5.1-8.9h2.8l-6.6,11.2v7.1H389.5z"/>
		</g>
	</g>
</g>
<g>
	<g transform="translate(271.371149, 324.161246)">
	</g>
</g>
<g>
	<g transform="translate(277.140719, 324.161246)">
		<g>
			<path d="M396.7-10.6c-1,0-2-0.2-2.9-0.5c-0.9-0.3-1.8-0.8-2.5-1.4c-0.7-0.6-1.3-1.5-1.6-2.5l2.4-0.7c0.2,0.7,0.6,1.2,1.1,1.6
				c0.5,0.4,1.1,0.8,1.7,1c0.7,0.2,1.3,0.3,2,0.3c0.7,0,1.4-0.1,2.1-0.4c0.7-0.3,1.2-0.6,1.6-1.1c0.4-0.5,0.6-1.1,0.6-1.8
				c0-0.8-0.3-1.3-0.8-1.8c-0.5-0.4-1.5-0.8-2.9-1.2l-2.3-0.5c-0.8-0.2-1.7-0.5-2.5-0.9c-0.8-0.4-1.5-0.9-2-1.6
				c-0.5-0.7-0.8-1.6-0.8-2.7c0-1,0.3-1.9,1-2.7c0.7-0.7,1.5-1.3,2.5-1.7c1-0.4,2.1-0.6,3.3-0.6c0.9,0,1.7,0.1,2.5,0.4
				c0.8,0.3,1.6,0.6,2.3,1.1c0.7,0.5,1.2,1.1,1.6,1.9l-2.4,0.7c-0.3-0.6-0.9-1.1-1.7-1.5c-0.8-0.3-1.6-0.5-2.4-0.5
				c-0.7,0-1.3,0.1-1.9,0.3c-0.6,0.2-1.1,0.5-1.5,0.9c-0.4,0.4-0.6,0.9-0.6,1.6c0,0.6,0.2,1.1,0.5,1.5c0.4,0.4,0.8,0.6,1.4,0.9
				c0.6,0.2,1.3,0.4,2,0.6l2,0.4c0.9,0.2,1.8,0.5,2.6,0.9c0.8,0.4,1.5,0.9,2,1.6c0.5,0.7,0.8,1.6,0.8,2.8c0,0.8-0.2,1.6-0.6,2.3
				c-0.4,0.7-0.9,1.2-1.6,1.7c-0.7,0.4-1.4,0.8-2.3,1C398.5-10.7,397.6-10.6,396.7-10.6z"/>
		</g>
	</g>
</g>
<g>
	<g transform="translate(289.421631, 324.161246)">
		<g>
			<path d="M394.8-10.9v-18.4h2.6v7.8h9.6v-7.8h2.6v18.4H407v-8.3h-9.6v8.3H394.8z"/>
		</g>
	</g>
</g>
<g>
	<g transform="translate(303.639451, 324.161246)">
		<g>
			<path d="M407.4-10.6c-1.8,0-3.3-0.4-4.6-1.2c-1.3-0.8-2.3-1.9-3-3.4c-0.7-1.4-1.1-3.1-1.1-4.9c0-1.8,0.4-3.5,1.1-4.9
				c0.7-1.4,1.7-2.5,3-3.4c1.3-0.8,2.8-1.2,4.6-1.2c1.8,0,3.3,0.4,4.6,1.2c1.3,0.8,2.3,1.9,3,3.4c0.7,1.4,1.1,3.1,1.1,4.9
				c0,1.8-0.4,3.5-1.1,4.9c-0.7,1.4-1.7,2.6-3,3.4C410.7-11,409.2-10.6,407.4-10.6z M407.4-12.8c1.1,0,2.1-0.3,3-0.9
				c0.9-0.6,1.6-1.4,2.2-2.5c0.5-1.1,0.8-2.4,0.8-4c0-1.6-0.3-2.9-0.8-4c-0.5-1.1-1.3-1.9-2.2-2.5c-0.9-0.6-1.9-0.9-3-0.9
				c-1.1,0-2.1,0.3-3,0.9c-0.9,0.6-1.6,1.4-2.1,2.5c-0.5,1.1-0.8,2.4-0.8,4c0,1.6,0.3,2.9,0.8,4c0.5,1.1,1.2,1.9,2.1,2.5
				C405.3-13.1,406.3-12.8,407.4-12.8z"/>
		</g>
	</g>
</g>
<g>
	<g transform="translate(318.619686, 324.161246)">
		<g>
			<path d="M404.5-11v-18.3h5.8c1.5,0,2.8,0.1,4,0.4c1.2,0.3,2.1,0.8,2.7,1.6c0.7,0.8,1,1.9,1,3.5c0,1.5-0.3,2.7-1,3.5
				c-0.7,0.8-1.6,1.3-2.7,1.6c-1.1,0.3-2.5,0.4-4,0.4h-3.2v7.3H404.5z M407.1-20.5h3.4c0.9,0,1.7-0.1,2.4-0.2
				c0.7-0.1,1.3-0.4,1.7-0.9c0.4-0.5,0.6-1.2,0.6-2.2s-0.2-1.7-0.6-2.2c-0.4-0.5-1-0.8-1.7-0.9c-0.7-0.2-1.5-0.2-2.4-0.2h-3.4V-20.5
				z"/>
		</g>
	</g>
</g>
<g>
	<g>
		<g transform="translate(121.513227, 284.77561)">
			<g>
				<path d="M-44.9-224.7c-1,0-1.7-0.2-2.3-0.7c-0.6-0.5-0.9-1.1-1.1-1.9l2-0.7c0.1,0.3,0.1,0.5,0.3,0.7c0.1,0.2,0.3,0.4,0.5,0.6
					c0.2,0.2,0.4,0.2,0.7,0.2c0.5,0,0.8-0.1,1-0.4c0.2-0.3,0.4-0.8,0.4-1.5v-5.6h2.2v5.6c0,1.1-0.3,2-0.9,2.7
					C-42.9-225-43.8-224.7-44.9-224.7z"/>
			</g>
		</g>
	</g>
	<g>
		<g transform="translate(140.439125, 284.77561)">
			<g>
				<path d="M-59.1-224.9v-9.1h7v1.9H-57v1.6h3v1.9h-3v1.8h4.9v1.9H-59.1z"/>
			</g>
		</g>
	</g>
	<g>
		<g transform="translate(160.04095, 284.77561)">
			<g>
				<path d="M-69.1-224.9l-2.2-9.1h2.1l1.3,6.3l1.3-6.3h2.2l1.3,6.3l1.3-6.3h2.1l-2.2,9.1H-64l-1.4-6.4l-1.4,6.4H-69.1z"/>
			</g>
		</g>
	</g>
	<g>
		<g transform="translate(189.88304, 284.77561)">
			<g>
				<path d="M-88.6-224.9v-9.1h7v1.9h-4.9v1.6h3v1.9h-3v1.8h4.9v1.9H-88.6z"/>
			</g>
		</g>
	</g>
	<g>
		<g transform="translate(209.484865, 284.77561)">
			<g>
				<path d="M-100.3-224.9v-9.1h2.2v7.2h4.4v1.9H-100.3z"/>
			</g>
		</g>
	</g>
	<g>
		<g transform="translate(227.633453, 284.77561)">
			<g>
				<path d="M-106.5-224.7c-0.9,0-1.7-0.2-2.5-0.6c-0.7-0.4-1.3-0.9-1.7-1.6c-0.4-0.7-0.6-1.5-0.6-2.5s0.2-1.8,0.6-2.5
					c0.4-0.7,1-1.3,1.7-1.7c0.7-0.4,1.5-0.6,2.5-0.6c0.9,0,1.8,0.2,2.5,0.6c0.7,0.4,1.3,0.9,1.7,1.7c0.4,0.7,0.6,1.5,0.6,2.5
					s-0.2,1.8-0.6,2.5c-0.4,0.7-1,1.3-1.7,1.6C-104.8-224.9-105.6-224.7-106.5-224.7z M-106.5-226.5c0.4,0,0.9-0.1,1.2-0.3
					c0.4-0.2,0.7-0.6,0.9-1c0.2-0.4,0.3-1,0.3-1.6c0-0.6-0.1-1.2-0.3-1.6c-0.2-0.4-0.5-0.8-0.9-1c-0.4-0.2-0.8-0.3-1.2-0.3
					c-0.4,0-0.8,0.1-1.2,0.3c-0.4,0.2-0.7,0.6-0.9,1c-0.2,0.4-0.3,1-0.3,1.6c0,0.6,0.1,1.2,0.3,1.6c0.2,0.4,0.5,0.8,0.9,1
					C-107.4-226.6-107-226.5-106.5-226.5z"/>
			</g>
		</g>
	</g>
</g>
<g>
	<g>
		<g transform="translate(43.988847, 324.161246)">
			<g>
				<path d="M13.9-252.8l1.5-4H16l1.5,4h-0.6l-0.3-0.9h-1.8l-0.3,0.9H13.9z M15-254.1h1.5l-0.7-2.1L15-254.1z"/>
			</g>
		</g>
	</g>
	<g>
		<g transform="translate(56.887921, 324.161246)">
			<g>
				<path d="M5.1-252.8v-4h1.3c0.3,0,0.6,0,0.9,0.1c0.3,0.1,0.4,0.2,0.6,0.3c0.1,0.2,0.2,0.4,0.2,0.7c0,0.2,0,0.4-0.1,0.5
					c-0.1,0.2-0.2,0.3-0.3,0.4c-0.2,0.1-0.4,0.2-0.7,0.2l1.2,1.7H7.5l-1.2-1.7H5.7v1.7H5.1z M5.7-254.9h0.8c0.2,0,0.4,0,0.5,0
					c0.2,0,0.3-0.1,0.4-0.2c0.1-0.1,0.1-0.3,0.1-0.5c0-0.2,0-0.4-0.1-0.5c-0.1-0.1-0.2-0.2-0.4-0.2c-0.2,0-0.3,0-0.5,0H5.7V-254.9z"
					/>
			</g>
		</g>
	</g>
	<g>
		<g transform="translate(69.622155, 324.161246)">
			<g>
				<path d="M-2.9-252.8v-3.5h-1.3v-0.5h3.2v0.5h-1.3v3.5H-2.9z"/>
			</g>
		</g>
	</g>
	<g>
		<g transform="translate(81.120058, 324.161246)">
			<g>
				<path d="M-12.1-252.8v-0.4h0.6v-3.1h-0.6v-0.4h1.7v0.4H-11v3.1h0.6v0.4H-12.1z"/>
			</g>
		</g>
	</g>
	<g>
		<g transform="translate(89.650761, 324.161246)">
			<g>
				<path d="M-18.1-252.8v-4h2.6v0.5h-2v1.2h2v0.5h-2v1.8H-18.1z"/>
			</g>
		</g>
	</g>
	<g>
		<g transform="translate(100.942607, 324.161246)">
			<g>
				<path d="M-26.2-252.8v-0.4h0.6v-3.1h-0.6v-0.4h1.7v0.4H-25v3.1h0.6v0.4H-26.2z"/>
			</g>
		</g>
	</g>
	<g>
		<g transform="translate(109.47331, 324.161246)">
			<g>
				<path d="M-30.5-252.7c-0.4,0-0.7-0.1-1-0.3c-0.3-0.2-0.5-0.4-0.6-0.7c-0.1-0.3-0.2-0.7-0.2-1.1c0-0.4,0.1-0.8,0.2-1.1
					c0.2-0.3,0.4-0.6,0.7-0.7c0.3-0.2,0.6-0.3,1-0.3c0.3,0,0.6,0.1,0.9,0.2c0.3,0.2,0.5,0.4,0.6,0.7l-0.5,0.2
					c-0.1-0.2-0.2-0.3-0.4-0.4c-0.2-0.1-0.4-0.2-0.7-0.2c-0.2,0-0.5,0.1-0.6,0.2c-0.2,0.1-0.3,0.3-0.5,0.5c-0.1,0.2-0.2,0.5-0.2,0.9
					c0,0.3,0.1,0.6,0.2,0.9c0.1,0.2,0.3,0.4,0.5,0.6c0.2,0.1,0.4,0.2,0.7,0.2c0.3,0,0.5-0.1,0.7-0.2c0.2-0.1,0.3-0.3,0.4-0.4
					l0.5,0.2c-0.1,0.3-0.4,0.5-0.6,0.7C-29.8-252.8-30.1-252.7-30.5-252.7z"/>
			</g>
		</g>
	</g>
	<g>
		<g transform="translate(122.990554, 324.161246)">
			<g>
				<path d="M-41.8-252.8v-0.4h0.6v-3.1h-0.6v-0.4h1.7v0.4h-0.6v3.1h0.6v0.4H-41.8z"/>
			</g>
		</g>
	</g>
	<g>
		<g transform="translate(131.521257, 324.161246)">
			<g>
				<path d="M-48.2-252.8l1.5-4h0.6l1.5,4h-0.6l-0.3-0.9h-1.8l-0.3,0.9H-48.2z M-47.1-254.1h1.5l-0.7-2.1L-47.1-254.1z"/>
			</g>
		</g>
	</g>
	<g>
		<g transform="translate(144.420331, 324.161246)">
			<g>
				<path d="M-56.9-252.8v-4h0.6v3.5h2.2v0.5H-56.9z"/>
			</g>
		</g>
	</g>
	<g>
		<g transform="translate(161.296284, 324.161246)">
			<g>
				<path d="M-68-252.7c-0.4,0-0.7-0.1-0.9-0.3c-0.2-0.2-0.3-0.5-0.4-0.9l0.5-0.2c0,0.3,0.1,0.5,0.2,0.7c0.1,0.1,0.3,0.2,0.5,0.2
					c0.1,0,0.2,0,0.3-0.1c0.1,0,0.2-0.1,0.3-0.3c0.1-0.1,0.1-0.3,0.1-0.6v-2.7h0.6v2.7c0,0.4-0.1,0.8-0.3,1
					C-67.3-252.8-67.6-252.7-68-252.7z"/>
			</g>
		</g>
	</g>
	<g>
		<g transform="translate(171.80512, 324.161246)">
			<g>
				<path d="M-76.3-252.8v-4h2.7v0.5h-2.2v1.2h1.6v0.5h-1.6v1.3h2.2v0.5H-76.3z"/>
			</g>
		</g>
	</g>
	<g>
		<g transform="translate(183.488466, 324.161246)">
			<g>
				<path d="M-84-252.8l-1-4h0.6l0.8,3.3l0.7-3.3h0.7l0.7,3.3l0.8-3.3h0.6l-1,4h-0.7l-0.8-3.3l-0.8,3.3H-84z"/>
			</g>
		</g>
	</g>
	<g>
		<g transform="translate(200.797137, 324.161246)">
			<g>
				<path d="M-96.9-252.8v-4h2.7v0.5h-2.2v1.2h1.6v0.5h-1.6v1.3h2.2v0.5H-96.9z"/>
			</g>
		</g>
	</g>
	<g>
		<g transform="translate(212.480492, 324.161246)">
			<g>
				<path d="M-105.2-252.8v-4h0.6v3.5h2.2v0.5H-105.2z"/>
			</g>
		</g>
	</g>
	<g>
		<g transform="translate(223.586876, 324.161246)">
			<g>
				<path d="M-113-252.8v-4h0.6v3.5h2.2v0.5H-113z"/>
			</g>
		</g>
	</g>
	<g>
		<g transform="translate(234.69326, 324.161246)">
			<g>
				<path d="M-120.9-252.8v-4h2.7v0.5h-2.2v1.2h1.6v0.5h-1.6v1.3h2.2v0.5H-120.9z"/>
			</g>
		</g>
	</g>
	<g>
		<g transform="translate(246.376606, 324.161246)">
			<g>
				<path d="M-129.2-252.8v-4h1.3c0.3,0,0.6,0,0.9,0.1c0.3,0.1,0.4,0.2,0.6,0.3c0.1,0.2,0.2,0.4,0.2,0.7c0,0.2,0,0.4-0.1,0.5
					c-0.1,0.2-0.2,0.3-0.3,0.4c-0.2,0.1-0.4,0.2-0.7,0.2l1.2,1.7h-0.7l-1.2-1.7h-0.6v1.7H-129.2z M-128.6-254.9h0.8
					c0.2,0,0.4,0,0.5,0c0.2,0,0.3-0.1,0.4-0.2c0.1-0.1,0.1-0.3,0.1-0.5c0-0.2,0-0.4-0.1-0.5c-0.1-0.1-0.2-0.2-0.4-0.2
					c-0.2,0-0.3,0-0.5,0h-0.8V-254.9z"/>
			</g>
		</g>
	</g>
	<g>
		<g transform="translate(259.11084, 324.161246)">
			<g>
				<path d="M-137.2-252.8v-1.6l-1.4-2.5h0.6l1.1,1.9l1.1-1.9h0.6l-1.4,2.5v1.6H-137.2z"/>
			</g>
		</g>
	</g>
	<g>
		<g transform="translate(277.140719, 324.161246)">
			<g>
				<path d="M-149.7-252.7c-0.2,0-0.4,0-0.6-0.1c-0.2-0.1-0.4-0.2-0.5-0.3c-0.2-0.1-0.3-0.3-0.3-0.5l0.5-0.2c0,0.1,0.1,0.3,0.2,0.4
					c0.1,0.1,0.2,0.2,0.4,0.2c0.1,0,0.3,0.1,0.4,0.1c0.2,0,0.3,0,0.5-0.1c0.1-0.1,0.3-0.1,0.4-0.2c0.1-0.1,0.1-0.2,0.1-0.4
					c0-0.2-0.1-0.3-0.2-0.4c-0.1-0.1-0.3-0.2-0.6-0.3l-0.5-0.1c-0.2,0-0.4-0.1-0.5-0.2c-0.2-0.1-0.3-0.2-0.4-0.3
					c-0.1-0.1-0.2-0.3-0.2-0.6c0-0.2,0.1-0.4,0.2-0.6c0.1-0.2,0.3-0.3,0.6-0.4c0.2-0.1,0.5-0.1,0.7-0.1c0.2,0,0.4,0,0.6,0.1
					s0.3,0.1,0.5,0.2c0.1,0.1,0.3,0.3,0.3,0.4l-0.5,0.2c-0.1-0.1-0.2-0.2-0.4-0.3c-0.2-0.1-0.3-0.1-0.5-0.1c-0.1,0-0.3,0-0.4,0.1
					c-0.1,0-0.2,0.1-0.3,0.2c-0.1,0.1-0.1,0.2-0.1,0.3c0,0.1,0,0.2,0.1,0.3c0.1,0.1,0.2,0.1,0.3,0.2c0.1,0,0.3,0.1,0.4,0.1l0.4,0.1
					c0.2,0,0.4,0.1,0.6,0.2c0.2,0.1,0.3,0.2,0.4,0.4c0.1,0.2,0.2,0.4,0.2,0.6c0,0.2,0,0.4-0.1,0.5c-0.1,0.1-0.2,0.3-0.4,0.4
					c-0.1,0.1-0.3,0.2-0.5,0.2C-149.3-252.7-149.5-252.7-149.7-252.7z"/>
			</g>
		</g>
	</g>
	<g>
		<g transform="translate(289.421631, 324.161246)">
			<g>
				<path d="M-159.7-252.8v-4h0.6v1.7h2.1v-1.7h0.6v4h-0.6v-1.8h-2.1v1.8H-159.7z"/>
			</g>
		</g>
	</g>
	<g>
		<g transform="translate(303.639451, 324.161246)">
			<g>
				<path d="M-168.1-252.7c-0.4,0-0.7-0.1-1-0.3c-0.3-0.2-0.5-0.4-0.7-0.7c-0.2-0.3-0.2-0.7-0.2-1.1c0-0.4,0.1-0.8,0.2-1.1
					c0.2-0.3,0.4-0.6,0.7-0.7c0.3-0.2,0.6-0.3,1-0.3c0.4,0,0.7,0.1,1,0.3c0.3,0.2,0.5,0.4,0.7,0.7c0.2,0.3,0.2,0.7,0.2,1.1
					c0,0.4-0.1,0.8-0.2,1.1c-0.2,0.3-0.4,0.6-0.7,0.7C-167.4-252.8-167.7-252.7-168.1-252.7z M-168.1-253.2c0.2,0,0.5-0.1,0.7-0.2
					c0.2-0.1,0.4-0.3,0.5-0.5c0.1-0.2,0.2-0.5,0.2-0.9c0-0.3-0.1-0.6-0.2-0.9c-0.1-0.2-0.3-0.4-0.5-0.5c-0.2-0.1-0.4-0.2-0.7-0.2
					c-0.2,0-0.5,0.1-0.7,0.2c-0.2,0.1-0.4,0.3-0.5,0.5c-0.1,0.2-0.2,0.5-0.2,0.9c0,0.3,0.1,0.6,0.2,0.9c0.1,0.2,0.3,0.4,0.5,0.5
					C-168.5-253.2-168.3-253.2-168.1-253.2z"/>
			</g>
		</g>
	</g>
	<g>
		<g transform="translate(318.619686, 324.161246)">
			<g>
				<path d="M-180.4-252.8v-4h1.3c0.3,0,0.6,0,0.9,0.1c0.3,0.1,0.4,0.2,0.6,0.4c0.1,0.2,0.2,0.4,0.2,0.8c0,0.3-0.1,0.6-0.2,0.8
					c-0.1,0.2-0.3,0.3-0.6,0.4c-0.2,0.1-0.5,0.1-0.9,0.1h-0.7v1.6H-180.4z M-179.9-254.8h0.7c0.2,0,0.4,0,0.5,0
					c0.2,0,0.3-0.1,0.4-0.2c0.1-0.1,0.1-0.3,0.1-0.5s0-0.4-0.1-0.5c-0.1-0.1-0.2-0.2-0.4-0.2c-0.2,0-0.3-0.1-0.5-0.1h-0.7V-254.8z"
					/>
			</g>
		</g>
	</g>
</g>
<g>
	<rect x="82.8" y="4.8" class="st0" width="35.7" height="41.9"/>
	<g>
		<path class="st1" d="M98,4.8l-2,2.3l2.9,3.2c-4,0.4-7.9,2.2-10.8,5.1c-3.4,3.4-5.2,7.9-5.2,12.6c0,18.1,21.3,25.8,21.3,9.1V21.4
			h-8.9v1.4H98v14.5c0,2.6-3.3,4.7-6.1,4c-4.6-1.3-6.7-9.3-6.7-13c0-4.2,1.5-8.1,4.5-11.1c2.9-2.9,6.9-4.6,11.1-4.6
			c4.2,0,8.1,1.6,11.1,4.6c2.9,2.9,4.6,6.9,4.6,11.1c0,5.5-2.9,10.7-7.7,13.5c0.3,0.8,0.3,1.7,0.1,2.5c6-3,9.8-9.2,9.8-16
			c0-4.7-1.9-9.3-5.2-12.6c-2.9-2.9-6.7-4.7-10.8-5.1l2.9-3.2l-2-2.3H98z M100.7,15.8L98.5,18l2.2,2.2l2.2-2.2L100.7,15.8z"/>
	</g>
	<g>
		<defs>
			<rect id="SVGID_1_" x="96" y="4.8" width="9.4" height="2.5"/>
		</defs>
		<clipPath id="SVGID_2_">
			<use xlink:href="#SVGID_1_"  style="overflow:visible;"/>
		</clipPath>
		<g class="st2">
			<path class="st3" d="M96.2,7v0.1h9.1l-1.1-2.3h-7.1L96,7.2h0.2V7l0.1,0l1-2h6.7l1,1.8h-8.8V7l0.1,0L96.2,7z"/>
		</g>
	</g>
	<g>
		<defs>
			<rect id="SVGID_3_" x="96" y="6.9" width="9.4" height="5.6"/>
		</defs>
		<clipPath id="SVGID_4_">
			<use xlink:href="#SVGID_3_"  style="overflow:visible;"/>
		</clipPath>
		<g class="st4">
			<path class="st3" d="M96,7.2l4.7,5.2l4.6-5.2L105.2,7l-4.5,5l-4.5-5L96,7.2z"/>
		</g>
	</g>
	<g>
		<defs>
			<rect id="SVGID_5_" x="97" y="4.8" width="7.3" height="2.5"/>
		</defs>
		<clipPath id="SVGID_6_">
			<use xlink:href="#SVGID_5_"  style="overflow:visible;"/>
		</clipPath>
		<g class="st5">
			<path class="st3" d="M97.1,5l1.7,2.2l1.9-1.9l1.9,1.9l1.7-2.2L104,4.9l-1.5,1.9l-1.8-1.9l-1.9,1.9l-1.5-1.9L97.1,5z"/>
		</g>
	</g>
	<g>
		<defs>
			<rect id="SVGID_7_" x="98.7" y="6.9" width="4" height="5.6"/>
		</defs>
		<clipPath id="SVGID_8_">
			<use xlink:href="#SVGID_7_"  style="overflow:visible;"/>
		</clipPath>
		<g class="st6">
			<path class="st3" d="M102.4,7l-1.7,4.9L98.9,7l-0.2,0.1l2,5.3l2-5.3L102.4,7z"/>
		</g>
	</g>
	<g>
		<g transform="translate(265.897883, 54.49683)">
			<g>
				<path d="M-146.2-47.5v-1.4h-0.5v-0.2h1.2v0.2h-0.5v1.4H-146.2z"/>
			</g>
		</g>
	</g>
	<g>
		<g transform="translate(271.365664, 54.49683)">
			<g>
				<path d="M-150.7-47.5v-1.5h0.4l0.4,1.3l0.4-1.3h0.4v1.5h-0.2v-1.3l-0.4,1.3h-0.2l-0.4-1.3v1.3H-150.7z"/>
			</g>
		</g>
	</g>
</g>
<image style="overflow:visible;" width="125" height="99" xlink:href="15343867.jpg"  transform="matrix(2.56 0 0 2.56 503.403 -429.5816)">
</image>
</svg>
