<svg width="304" height="116" viewBox="0 0 304 116" fill="none" xmlns="http://www.w3.org/2000/svg">
<g clip-path="url(#clip0_101_22)">
<path d="M117.037 91.6943C115.51 91.6943 114.44 91.3891 113.524 90.6259C112.607 89.8628 112.149 88.947 111.843 87.7259L114.899 86.6575C115.051 87.1154 115.051 87.4207 115.357 87.7259C115.51 88.0312 115.815 88.3365 116.121 88.6417C116.426 88.947 116.732 88.947 117.19 88.947C117.954 88.947 118.412 88.7943 118.718 88.3365C119.023 87.8786 119.329 87.1154 119.329 86.047V77.4996H122.689V86.047C122.689 87.7259 122.231 89.0996 121.315 90.168C120.093 91.2365 118.718 91.6943 117.037 91.6943Z" fill="black"/>
<path d="M124.257 91.3891V77.4996H134.95V80.3996H127.465V82.8417H132.048V85.7417H127.465V88.4891H134.95V91.3891H124.257Z" fill="black"/>
<path d="M138.925 91.3891L135.564 77.4996H138.772L140.758 87.1154L142.744 77.4996H146.105L148.091 87.1154L150.077 77.4996H153.285L149.924 91.3891H146.716L144.577 81.6207L142.438 91.3891H138.925Z" fill="black"/>
<path d="M154.724 91.3891V77.4996H165.417V80.3996H157.932V82.8417H162.515V85.7417H157.932V88.4891H165.417V91.3891H154.724Z" fill="black"/>
<path d="M166.795 91.3891V77.4996H170.156V88.4891H176.877V91.3891H166.795Z" fill="black"/>
<path d="M185.048 91.6944C183.673 91.6944 182.451 91.3891 181.229 90.7786C180.16 90.168 179.243 89.4049 178.632 88.3365C178.021 87.268 177.715 86.047 177.715 84.5207C177.715 82.9944 178.021 81.7733 178.632 80.7049C179.243 79.6365 180.16 78.7207 181.229 78.1101C182.298 77.4996 183.52 77.1944 185.048 77.1944C186.423 77.1944 187.798 77.4996 188.867 78.1101C189.936 78.7207 190.853 79.4838 191.464 80.7049C192.075 81.7733 192.381 82.9944 192.381 84.5207C192.381 86.047 192.075 87.268 191.464 88.3365C190.853 89.4049 189.936 90.3207 188.867 90.7786C187.645 91.3891 186.423 91.6944 185.048 91.6944ZM185.048 88.947C185.659 88.947 186.423 88.7943 186.881 88.4891C187.492 88.1838 187.951 87.5733 188.256 86.9628C188.562 86.3522 188.714 85.4365 188.714 84.5207C188.714 83.6049 188.562 82.6891 188.256 82.0786C187.951 81.468 187.492 80.8575 186.881 80.5522C186.27 80.247 185.659 80.0943 185.048 80.0943C184.437 80.0943 183.826 80.247 183.215 80.5522C182.604 80.8575 182.145 81.468 181.84 82.0786C181.534 82.6891 181.382 83.6049 181.382 84.5207C181.382 85.4365 181.534 86.3522 181.84 86.9628C182.145 87.5733 182.604 88.1838 183.215 88.4891C183.673 88.7943 184.284 88.947 185.048 88.947Z" fill="black"/>
<path d="M88.4332 108.92L90.7247 102.815H91.6413L93.9327 108.92H93.0161L92.5579 107.546H89.8081L89.3498 108.92H88.4332ZM90.1136 106.936H92.4051L91.3357 103.73L90.1136 106.936Z" fill="black"/>
<path d="M94.6951 108.92V102.815H96.681C97.1393 102.815 97.5976 102.815 98.0559 102.967C98.5142 103.12 98.6669 103.272 98.9725 103.425C99.1252 103.73 99.278 104.036 99.278 104.493C99.278 104.799 99.278 105.104 99.1252 105.257C98.9725 105.562 98.8197 105.715 98.6669 105.867C98.3614 106.02 98.0559 106.172 97.5976 106.172L99.4307 108.767H98.3614L96.5282 106.172H95.6117V108.767H94.6951V108.92ZM95.6117 105.715H96.8338C97.1393 105.715 97.4448 105.715 97.5976 105.715C97.9031 105.715 98.0559 105.562 98.2086 105.409C98.3614 105.257 98.3614 104.951 98.3614 104.646C98.3614 104.341 98.3614 104.036 98.2086 103.883C98.0559 103.73 97.9031 103.578 97.5976 103.578C97.2921 103.578 97.1393 103.578 96.8338 103.578H95.6117V105.715Z" fill="black"/>
<path d="M101.927 108.92V103.578H99.9414V102.815H104.83V103.578H102.844V108.92H101.927Z" fill="black"/>
<path d="M105.438 108.92V108.309H106.354V103.578H105.438V102.967H108.035V103.578H107.118V108.309H108.035V108.92H105.438Z" fill="black"/>
<path d="M109.304 108.92V102.815H113.276V103.578H110.22V105.409H113.276V106.172H110.22V108.92H109.304Z" fill="black"/>
<path d="M114.18 108.92V108.309H115.096V103.578H114.18V102.967H116.777V103.578H116.013V108.309H116.929V108.92H114.18Z" fill="black"/>
<path d="M120.643 109.072C120.032 109.072 119.573 108.92 119.115 108.615C118.657 108.309 118.351 108.004 118.198 107.546C118.046 107.088 117.893 106.478 117.893 105.867C117.893 105.257 118.046 104.646 118.198 104.188C118.504 103.73 118.81 103.272 119.268 103.12C119.726 102.815 120.184 102.662 120.795 102.662C121.254 102.662 121.712 102.815 122.17 102.967C122.629 103.272 122.934 103.578 123.087 104.036L122.323 104.341C122.17 104.036 122.018 103.883 121.712 103.73C121.407 103.578 121.101 103.425 120.643 103.425C120.337 103.425 119.879 103.578 119.726 103.73C119.421 103.883 119.268 104.188 118.962 104.494C118.81 104.799 118.657 105.257 118.657 105.867C118.657 106.325 118.81 106.783 118.962 107.241C119.115 107.546 119.421 107.851 119.726 108.157C120.032 108.309 120.337 108.462 120.795 108.462C121.254 108.462 121.559 108.309 121.865 108.157C122.17 108.004 122.323 107.699 122.476 107.546L123.24 107.851C123.087 108.309 122.629 108.615 122.323 108.92C121.712 108.92 121.254 109.072 120.643 109.072Z" fill="black"/>
<path d="M124.03 108.92V108.309H124.946V103.578H124.03V102.967H126.627V103.578H125.71V108.309H126.627V108.92H124.03Z" fill="black"/>
<path d="M127.285 108.92L129.576 102.815H130.493L132.784 108.92H131.868L131.409 107.546H128.66L128.201 108.92H127.285ZM128.965 106.936H131.257L130.187 103.73L128.965 106.936Z" fill="black"/>
<path d="M133.699 108.92V102.815H134.616V108.157H137.977V108.92H133.699Z" fill="black"/>
<path d="M142.523 109.072C141.912 109.072 141.454 108.92 141.148 108.615C140.843 108.309 140.69 107.851 140.537 107.241L141.301 106.936C141.301 107.393 141.454 107.699 141.606 108.004C141.759 108.157 142.065 108.309 142.37 108.309C142.523 108.309 142.676 108.309 142.828 108.157C142.981 108.157 143.134 108.004 143.287 107.699C143.44 107.546 143.44 107.241 143.44 106.783V102.662H144.356V106.783C144.356 107.394 144.203 108.004 143.898 108.309C143.592 108.92 143.134 109.072 142.523 109.072Z" fill="black"/>
<path d="M145.897 108.92V102.815H150.022V103.578H146.661V105.409H149.105V106.172H146.661V108.157H150.022V108.92H145.897Z" fill="black"/>
<path d="M151.982 108.92L150.455 102.815H151.371L152.593 107.851L153.663 102.815H154.732L155.801 107.851L157.024 102.815H157.94L156.413 108.92H155.343L154.121 103.883L152.899 108.92H151.982Z" fill="black"/>
<path d="M158.717 108.92V102.815H162.842V103.578H159.481V105.409H161.925V106.172H159.481V108.157H162.842V108.92H158.717Z" fill="black"/>
<path d="M163.886 108.92V102.815H164.802V108.157H168.163V108.92H163.886Z" fill="black"/>
<path d="M168.937 108.92V102.815H169.853V108.157H173.214V108.92H168.937Z" fill="black"/>
<path d="M173.835 108.92V102.815H177.96V103.578H174.599V105.409H177.043V106.172H174.599V108.157H177.96V108.92H173.835Z" fill="black"/>
<path d="M179.003 108.92V102.815H180.989C181.448 102.815 181.906 102.815 182.364 102.967C182.823 103.12 182.975 103.272 183.281 103.425C183.434 103.73 183.586 104.036 183.586 104.493C183.586 104.799 183.586 105.104 183.434 105.257C183.281 105.562 183.128 105.715 182.975 105.867C182.67 106.02 182.364 106.172 181.906 106.172L183.739 108.767H182.67L180.837 106.172H179.92V108.767H179.003V108.92ZM179.92 105.715H181.142C181.448 105.715 181.753 105.715 181.906 105.715C182.211 105.715 182.364 105.562 182.517 105.409C182.67 105.257 182.67 104.951 182.67 104.646C182.67 104.341 182.67 104.036 182.517 103.883C182.364 103.73 182.211 103.578 181.906 103.578C181.6 103.578 181.448 103.578 181.142 103.578H179.92V105.715Z" fill="black"/>
<path d="M186.236 108.92V106.478L184.097 102.662H185.014L186.694 105.562L188.374 102.662H189.291L187.152 106.478V108.92H186.236Z" fill="black"/>
<path d="M194.683 109.072C194.378 109.072 194.072 109.072 193.767 108.92C193.461 108.767 193.156 108.615 193.003 108.462C192.697 108.309 192.545 108.004 192.545 107.699L193.308 107.393C193.308 107.546 193.461 107.851 193.614 108.004C193.767 108.157 193.92 108.309 194.225 108.309C194.378 108.309 194.683 108.462 194.836 108.462C195.142 108.462 195.294 108.462 195.6 108.309C195.753 108.157 196.058 108.157 196.211 108.004C196.364 107.851 196.364 107.699 196.364 107.393C196.364 107.088 196.211 106.936 196.058 106.783C195.905 106.63 195.6 106.478 195.142 106.325L194.378 106.172C194.072 106.172 193.767 106.02 193.614 105.867C193.309 105.715 193.156 105.562 193.003 105.409C192.85 105.257 192.697 104.951 192.697 104.493C192.697 104.188 192.85 103.883 193.003 103.578C193.156 103.272 193.461 103.12 193.92 102.967C194.225 102.815 194.683 102.815 194.989 102.815C195.294 102.815 195.6 102.815 195.906 102.967C196.211 103.12 196.364 103.12 196.669 103.272C196.822 103.425 197.128 103.73 197.128 103.883L196.364 104.188C196.211 104.036 196.058 103.883 195.753 103.73C195.447 103.578 195.294 103.578 194.989 103.578C194.836 103.578 194.531 103.578 194.378 103.73C194.225 103.73 194.072 103.883 193.92 104.036C193.767 104.188 193.767 104.341 193.767 104.493C193.767 104.646 193.767 104.799 193.92 104.951C194.072 105.104 194.225 105.104 194.378 105.257C194.531 105.257 194.836 105.409 194.989 105.409L195.6 105.562C195.905 105.562 196.211 105.715 196.517 105.867C196.822 106.02 196.975 106.172 197.128 106.478C197.28 106.783 197.433 107.088 197.433 107.393C197.433 107.699 197.433 108.004 197.28 108.157C197.128 108.309 196.975 108.615 196.669 108.767C196.517 108.92 196.211 109.072 195.906 109.072C195.294 109.072 194.989 109.072 194.683 109.072Z" fill="black"/>
<path d="M198.168 108.92V102.815H199.084V105.409H202.292V102.815H203.209V108.92H202.292V106.172H199.084V108.92H198.168Z" fill="black"/>
<path d="M207.055 109.072C206.444 109.072 205.986 108.92 205.528 108.615C205.069 108.309 204.764 108.004 204.458 107.546C204.153 107.088 204.153 106.478 204.153 105.867C204.153 105.257 204.305 104.646 204.458 104.188C204.764 103.73 205.069 103.272 205.528 103.12C205.986 102.815 206.444 102.662 207.055 102.662C207.666 102.662 208.125 102.815 208.583 103.12C209.041 103.425 209.347 103.73 209.652 104.188C209.958 104.646 209.958 105.257 209.958 105.867C209.958 106.478 209.805 107.088 209.652 107.546C209.347 108.004 209.041 108.462 208.583 108.615C208.125 108.92 207.666 109.072 207.055 109.072ZM207.055 108.309C207.361 108.309 207.819 108.157 208.125 108.004C208.43 107.851 208.736 107.546 208.888 107.241C209.041 106.936 209.194 106.478 209.194 105.867C209.194 105.409 209.041 104.951 208.888 104.494C208.736 104.188 208.43 103.883 208.125 103.73C207.819 103.578 207.514 103.425 207.055 103.425C206.75 103.425 206.291 103.578 205.986 103.73C205.68 103.883 205.375 104.188 205.222 104.494C205.069 104.799 204.917 105.257 204.917 105.867C204.917 106.325 205.069 106.783 205.222 107.241C205.375 107.546 205.68 107.851 205.986 108.004C206.444 108.309 206.75 108.309 207.055 108.309Z" fill="black"/>
<path d="M211.15 108.92V102.815H213.136C213.594 102.815 214.052 102.815 214.51 102.967C214.969 103.12 215.121 103.272 215.427 103.578C215.58 103.883 215.733 104.188 215.733 104.799C215.733 105.257 215.58 105.715 215.427 106.02C215.274 106.325 214.969 106.478 214.51 106.63C214.205 106.783 213.747 106.783 213.136 106.783H212.066V109.225H211.15V108.92ZM211.913 105.867H212.983C213.288 105.867 213.594 105.867 213.747 105.867C214.052 105.867 214.205 105.715 214.358 105.562C214.51 105.409 214.51 105.104 214.51 104.799C214.51 104.493 214.51 104.188 214.358 104.036C214.205 103.883 214.052 103.73 213.747 103.73C213.441 103.73 213.288 103.578 212.983 103.578H211.913V105.867Z" fill="black"/>
<path fill-rule="evenodd" clip-rule="evenodd" d="M149.708 7.32632L146.653 10.8368L151.083 15.7211C144.973 16.3316 139.015 19.0789 134.585 23.5053C129.391 28.6947 126.641 35.5632 126.641 42.7368C126.641 70.3632 159.18 82.1158 159.18 56.6263V32.6632H145.584V34.8H149.708V56.9316C149.708 60.9 144.667 64.1053 140.39 63.0368C133.363 61.0526 130.155 48.8421 130.155 43.1947C130.155 36.7842 132.446 30.8316 137.029 26.2526C141.459 21.8263 147.57 19.2316 153.986 19.2316C160.402 19.2316 166.36 21.6737 170.943 26.2526C175.373 30.6789 177.97 36.7842 177.97 43.1947C177.97 51.5895 173.54 59.5263 166.207 63.8C166.665 65.0211 166.665 66.3947 166.36 67.6158C175.526 63.0368 181.331 53.5737 181.331 43.1947C181.331 36.0211 178.428 29 173.387 23.9632C168.957 19.5368 163.152 16.7895 156.888 16.1789L161.318 11.2947L158.263 7.78421H149.708V7.32632ZM153.833 24.1158L150.472 27.4737L153.833 30.8316L157.194 27.4737L153.833 24.1158Z" fill="black"/>
<mask id="mask0_101_22" style="mask-type:luminance" maskUnits="userSpaceOnUse" x="146" y="7" width="16" height="5">
<path d="M161.013 7.32632H146.653V11.1421H161.013V7.32632Z" fill="white"/>
</mask>
<g mask="url(#mask0_101_22)">
<path d="M146.959 10.6842V10.8368H160.86L159.18 7.32632H148.334L146.653 10.9895H146.959V10.6842H147.111L148.639 7.63158H158.874L160.402 10.3789H146.959V10.6842Z" fill="#F1F1F1"/>
</g>
<mask id="mask1_101_22" style="mask-type:luminance" maskUnits="userSpaceOnUse" x="146" y="10" width="16" height="10">
<path d="M161.013 10.5316H146.653V19.0789H161.013V10.5316Z" fill="white"/>
</mask>
<g mask="url(#mask1_101_22)">
<path d="M146.653 10.9895L153.833 18.9263L160.86 10.9895L160.707 10.6842L153.833 18.3158L146.959 10.6842L146.653 10.9895Z" fill="#F1F1F1"/>
</g>
<mask id="mask2_101_22" style="mask-type:luminance" maskUnits="userSpaceOnUse" x="148" y="7" width="12" height="5">
<path d="M159.333 7.32632H148.181V11.1421H159.333V7.32632Z" fill="white"/>
</mask>
<g mask="url(#mask2_101_22)">
<path d="M148.334 7.63158L150.931 10.9895L153.833 8.08947L156.736 10.9895L159.333 7.63158L158.874 7.47895L156.583 10.3789L153.833 7.47895L150.931 10.3789L148.639 7.47895L148.334 7.63158Z" fill="#F1F1F1"/>
</g>
<mask id="mask3_101_22" style="mask-type:luminance" maskUnits="userSpaceOnUse" x="150" y="10" width="7" height="10">
<path d="M156.888 10.5316H150.778V19.0789H156.888V10.5316Z" fill="white"/>
</mask>
<g mask="url(#mask3_101_22)">
<path d="M156.43 10.6842L153.833 18.1632L151.083 10.6842L150.778 10.8368L153.833 18.9263L156.888 10.8368L156.43 10.6842Z" fill="#F1F1F1"/>
</g>
<path d="M182.855 10.6794V8.54253H182.091V8.23727H183.924V8.54253H183.161V10.6794H182.855Z" fill="black"/>
<path d="M184.333 10.6794V8.3899H184.944L185.555 10.3741L186.167 8.3899H186.778V10.6794H186.472V8.69516L185.861 10.6794H185.555L184.944 8.69516V10.6794H184.333Z" fill="black"/>
</g>
<defs>
<clipPath id="clip0_101_22">
<rect width="304" height="116" fill="white"/>
</clipPath>
</defs>
</svg>
