<svg width="25" height="33" viewBox="0 0 25 33" fill="none" xmlns="http://www.w3.org/2000/svg">
<path d="M11.2077 32.3342C1.84279 18.7579 0.104492 17.3645 0.104492 12.375C0.104492 5.54045 5.64495 0 12.4795 0C19.314 0 24.8545 5.54045 24.8545 12.375C24.8545 17.3645 23.1162 18.7579 13.7513 32.3342C13.1367 33.222 11.8222 33.2219 11.2077 32.3342ZM12.4795 17.5312C15.3272 17.5312 17.6357 15.2227 17.6357 12.375C17.6357 9.52727 15.3272 7.21875 12.4795 7.21875C9.63176 7.21875 7.32324 9.52727 7.32324 12.375C7.32324 15.2227 9.63176 17.5312 12.4795 17.5312Z" fill="#7B7B7B"/>
</svg>
