<svg width="42" height="42" viewBox="0 0 42 42" fill="none" xmlns="http://www.w3.org/2000/svg">
<circle cx="21" cy="21" r="21" fill="black" fill-opacity="0.8"/>
<path d="M21.8678 26.7888L17.1587 21.4266C17.1038 21.3642 17.0637 21.2974 17.0382 21.2264C17.0127 21.1553 17 21.0806 17 21.0022C17 20.9238 17.0127 20.8491 17.0382 20.778C17.0637 20.707 17.1038 20.6402 17.1587 20.5778L21.8678 15.2156C21.9914 15.0748 22.147 15.003 22.3344 15.0001C22.5219 14.9972 22.6774 15.0662 22.8011 15.207C22.9337 15.358 23 15.5391 23 15.7503C23 15.9615 22.9337 16.1427 22.8011 16.2936L18.666 21.0022L22.8011 25.7108C22.9337 25.8618 22.999 26.0414 22.9971 26.2498C22.9951 26.4581 22.9323 26.6327 22.8087 26.7735C22.6761 26.9245 22.517 27 22.3315 27C22.146 27 21.9914 26.9296 21.8678 26.7888Z" fill="#E3E3E3"/>
</svg>
