<svg width="32" height="32" viewBox="0 0 32 32" fill="none" xmlns="http://www.w3.org/2000/svg">
<path opacity="0.5" d="M25.3806 25.5856H25.3612H21.6788V19.3838C21.6788 17.8914 21.485 15.9727 19.45 15.9727C17.3569 15.9727 17.008 17.6006 17.008 19.2868V25.5856H13.3257V12.794H16.7754V14.5191H16.8724C17.415 13.5307 18.6748 12.7746 20.6322 12.7746C24.6828 12.7746 25.3999 15.1197 25.3999 18.5889V25.5856H25.3806ZM8.36414 10.8171C7.10438 10.8171 6.09658 9.80939 6.09658 8.54963C6.09658 7.28987 7.10438 6.2822 8.36414 6.2822C9.62389 6.2822 10.6317 7.28987 10.6317 8.54963C10.5929 9.80939 9.58513 10.8171 8.36414 10.8171ZM10.5929 25.5856H6.1741V12.794H10.5929V25.5856ZM23.4812 0.487305H8.03467C3.75149 0.487305 0.262939 3.9759 0.262939 8.2591V23.7445C0.262939 28.0083 3.75149 31.4969 8.03467 31.4969H23.5006C27.7838 31.4969 31.2724 28.0083 31.2724 23.7251V8.27803C31.253 3.97545 27.7644 0.487305 23.4812 0.487305Z" fill="white"/>
</svg>
