<svg width="110" height="110" viewBox="0 0 110 110" fill="none" xmlns="http://www.w3.org/2000/svg">
<path d="M95.8705 75.62C98.0411 75.4262 100.309 75.5424 102.382 74.961C105.076 74.2051 107.17 75.523 108.313 77.151C109.612 79.0116 109.127 81.5312 107.383 83.5275C104.495 86.7835 100.832 88.9928 97.1884 91.1635C89.3585 95.8343 81.5287 100.544 73.1949 104.304C69.997 105.738 66.7604 107.095 63.4656 108.238C54.5698 111.3 46.3717 109.672 38.0767 105.37C32.4368 102.463 26.6226 99.2842 19.9556 98.8772C18.2888 98.7803 16.467 97.9857 16.4282 100.951C16.4089 102.308 15.1104 103.005 13.5986 103.005C10.3233 102.967 7.04789 102.967 3.77252 103.005C1.73752 103.025 0.613423 101.978 0.613423 100.059C0.55528 90.5821 0.555261 81.1048 0.594023 71.6081C0.594023 69.4956 1.81506 68.449 3.96634 68.449C7.12542 68.4684 10.2845 68.449 13.4436 68.4296C14.432 68.4296 15.6336 68.6235 15.8856 69.4762C16.7577 72.4222 18.5602 71.3561 20.382 70.8134C25.983 69.1273 31.5453 67.7126 37.5921 68.6235C41.2551 69.1661 44.1817 70.8135 47.0694 72.6934C52.1472 76.0076 57.6707 78.4302 63.0392 81.1823C67.1286 83.2755 70.4233 86.5315 73.0785 90.1557C75.6562 93.7025 72.9041 98.1019 68.4853 98.1407C64.8804 98.1795 61.6438 96.7259 58.3297 95.6212C51.7983 93.4505 45.422 90.6984 38.4643 90.1363C37.2045 90.0394 36.3712 89.458 36.313 88.3145C36.2355 86.8222 37.7666 87.2873 38.4449 87.1904C42.2435 86.6477 45.7902 88.0045 49.3369 89.0898C55.0931 90.8535 60.6748 93.1403 66.5084 94.6908C68.3302 95.1753 69.8807 95.0979 70.8691 93.6637C71.9739 92.0744 69.9583 91.241 69.2606 90.3495C65.9077 86.1244 61.2369 83.6049 56.411 81.473C52.5542 79.7674 48.7555 77.9457 45.3639 75.4649C39.162 70.9491 32.5337 70.5034 25.3822 72.6934C16.6414 75.3874 16.6221 75.2905 16.6221 84.3608C16.6221 87.7525 15.5561 91.745 16.9903 94.3808C18.4439 97.0554 22.9596 95.7374 26.0411 96.6677C30.1305 97.8693 33.8323 99.8268 37.5147 101.842C43.7941 105.273 50.5386 106.901 57.6126 106.823C59.7639 106.804 61.9152 105.409 64.0471 104.595C71.5281 101.784 78.5633 98.0438 85.5792 94.2645C91.5292 91.0666 97.2271 87.5587 102.576 83.4693C104.146 82.2676 106.724 80.6396 105.173 78.624C103.759 76.7634 100.793 77.3061 98.5644 78.3721C91.4904 81.7637 84.3195 84.9809 77.478 88.8765C76.4702 89.458 75.2492 90.1944 74.4352 88.7602C73.5243 87.1516 74.8616 86.5121 76.0439 85.9113C82.0713 82.8879 88.0988 79.8838 94.1262 76.841C94.7852 76.5115 95.8123 76.6665 95.948 75.5812L95.8705 75.62ZM3.92754 85.7368C3.92754 89.3611 3.90816 92.9854 3.92754 96.5902C3.94692 100.563 4.85784 101.145 8.79216 100.544C12.2613 100.001 13.6374 98.5864 13.3273 94.8071C12.8815 89.361 13.211 83.8375 13.2304 78.3527C13.2304 71.5499 13.2498 71.6275 6.27267 71.8213C4.47025 71.8794 3.83066 72.3059 3.8888 74.1858C4.02446 78.0232 3.92754 81.88 3.92754 85.7368Z" fill="#4B4B4B"/>
<path d="M36.3324 55.6768C36.9138 51.9944 37.4178 48.5253 38.0573 45.0948C38.4062 43.1761 37.9023 41.7419 36.4487 40.4239C34.123 38.292 31.9523 36.0051 29.6848 33.7957C28.2506 32.4002 27.3978 30.7917 28.0955 28.7761C28.7739 26.838 30.208 25.772 32.2624 25.5007C35.2664 25.0937 38.2705 24.4928 41.2746 24.2409C43.6584 24.0471 45.1119 23.0005 46.081 20.8298C47.3601 17.942 48.775 15.1124 50.2867 12.3603C52.4767 8.36781 56.4498 8.27088 58.7561 12.2052C60.2872 14.8217 61.6826 17.535 62.8067 20.3453C63.9308 23.1555 65.8107 24.1633 68.7179 24.3183C71.5087 24.4734 74.2802 24.9967 77.0323 25.5782C81.4124 26.5084 82.614 30.404 79.5518 33.66C78.2727 35.0167 77.0711 36.5478 75.54 37.575C70.9273 40.676 70.3846 44.8428 71.7801 49.785C72.3227 51.6843 72.6328 53.6806 72.7297 55.6575C72.9041 59.5725 69.7063 61.7431 66.1596 60.1345C63.2913 58.836 60.4422 57.4598 57.7677 55.7931C55.5776 54.4364 53.7171 54.5333 51.5658 55.7156C48.8137 57.2661 46.0229 58.739 43.1545 60.0569C39.4334 61.7431 36.2161 59.4948 36.3324 55.6768ZM40.2086 54.2232C40.0148 56.9172 40.5187 57.3242 42.5537 56.3552C45.4996 54.9404 48.4067 53.4286 51.2557 51.82C53.5233 50.5215 55.6164 50.5408 57.8839 51.8006C60.7329 53.3898 63.6595 54.8629 66.5666 56.3552C68.5435 57.363 69.4543 56.8979 69.028 54.5334C68.4465 51.4324 68.0202 48.3121 67.3806 45.2305C66.838 42.5947 67.3418 40.4434 69.4156 38.5828C71.6638 36.5478 73.7957 34.3577 75.9275 32.2064C76.5671 31.5669 77.6719 31.0435 77.3618 29.997C77.0129 28.7953 75.695 28.8535 74.6872 28.6985C71.6832 28.2139 68.6985 27.6713 65.6751 27.3806C63.0199 27.148 61.4694 25.772 60.3841 23.4463C59.0081 20.481 57.4576 17.5932 56.0234 14.6472C55.0931 12.7091 54.1435 12.6898 53.1938 14.5892C51.6821 17.6126 50.1898 20.6553 48.7168 23.7175C47.7478 25.7332 46.3717 27.0704 43.9685 27.3418C40.5962 27.71 37.2627 28.2915 33.9098 28.8342C31.7004 29.2024 30.9057 30.0745 32.8632 31.9351C34.9951 33.9507 36.8944 36.1989 39.162 38.0207C41.8366 40.1526 42.263 42.7691 41.6816 45.8507C41.1583 48.7966 40.635 51.7812 40.2086 54.2232Z" fill="#16B061"/>
<path d="M95.9287 75.5617C90.7152 71.1622 86.4708 75.1742 82.1683 77.3255C78.7766 79.0116 75.6757 81.2598 72.4391 83.2755C71.4119 83.915 70.2684 84.6514 69.3769 83.3141C68.466 81.9768 69.5513 81.1822 70.5785 80.5427C75.0167 77.8099 79.455 75.0966 84.1451 72.2089C80.5015 71.3755 77.73 72.5577 75.1524 74.5927C72.8461 76.3951 70.4816 78.1007 68.1559 79.8838C67.1481 80.659 66.1597 81.2017 65.0744 80.1163C63.582 78.6046 65.6364 78.0425 66.1209 77.5192C67.5163 75.9881 69.3381 74.8253 70.9855 73.5268C71.5088 73.1004 72.3615 72.7709 72.0127 71.9375C71.5863 70.8909 70.5203 71.2979 69.8808 71.5499C68.8342 71.9762 67.8264 72.6353 66.9349 73.3524C65.5782 74.4571 64.3379 75.6975 63.0006 76.8409C62.0315 77.6937 60.8493 78.7984 59.7058 77.4224C58.543 76.0269 59.9384 75.0966 60.9074 74.2826C63.6014 72.0151 65.8108 69.2629 69.7258 68.5264C72.4197 68.0419 73.1368 68.7397 73.3306 71.046C72.8461 70.8329 72.3034 70.5227 71.9545 71.1816C71.8383 71.3948 71.877 71.9763 72.0127 72.0151C72.7104 72.3058 73.2337 72.015 73.5244 71.3173C75.9082 70.4839 77.9626 68.7203 80.5791 68.5071C83.0404 68.3133 85.4049 68.3133 84.5134 72.0926C87.6919 71.4142 90.4633 70.0575 93.603 70.9684C96.2582 71.7243 97.3241 72.9841 95.8512 75.6005C95.8705 75.6199 95.9287 75.5617 95.9287 75.5617Z" fill="#4B4B4B"/>
<path d="M78.3308 9.55005C79.6293 9.64695 80.4821 10.2672 80.3077 11.275C79.92 13.3681 78.4277 14.7055 76.4121 15.19C75.4237 15.4226 74.474 14.4728 74.6678 13.5231C75.0748 11.4687 76.6447 10.3059 78.3308 9.55005Z" fill="#16B061"/>
<path d="M31.836 59.7276C30.8863 61.2393 29.8592 63.0029 27.7466 63.313C26.6613 63.468 26.0605 62.4021 26.2349 61.4137C26.6419 59.2818 28.0761 57.9445 30.208 57.6732C31.2739 57.5375 31.836 58.4096 31.836 59.7276Z" fill="#16B061"/>
<path d="M81.0636 63.3324C79.4938 62.3827 77.7107 61.3943 77.4588 59.243C77.3231 58.1189 78.389 57.5181 79.3387 57.7894C81.1993 58.3321 82.6141 59.5725 82.9242 61.5687C83.0598 62.5766 82.3428 63.2548 81.0636 63.3324Z" fill="#16B061"/>
<path d="M34.5688 13.3681C34.2975 14.4729 33.5998 15.4418 32.6889 15.1124C30.8283 14.4728 29.0841 13.3488 28.9678 11.0812C28.9096 10.0152 29.898 9.29815 30.8671 9.62763C32.6307 10.2866 33.8517 11.6626 34.5688 13.3681Z" fill="#16B061"/>
<path d="M56.8181 66.2201C56.7987 67.383 56.2754 68.3714 55.1319 68.4296C53.9303 68.4877 52.8837 67.8481 52.9419 66.3558C53 65.0185 53.3876 63.6231 54.9187 63.6812C56.1785 63.7006 56.663 64.9797 56.8181 66.2201Z" fill="#16B061"/>
<path d="M22.7852 33.1174C23.9093 33.3693 25.3435 33.5438 25.1303 35.3074C24.9559 36.8385 23.6574 36.8385 22.4945 36.8579C21.1572 36.8967 20.1688 36.3928 20.2463 34.9198C20.3239 33.505 21.3317 33.0205 22.7852 33.1174Z" fill="#16B061"/>
<path d="M89.0873 34.9005C88.8547 36.3541 88.002 36.8968 86.6647 36.8774C85.4243 36.858 84.2033 36.7223 84.1258 35.23C84.0289 33.5632 85.308 33.195 86.6647 33.1175C87.9632 33.04 88.816 33.6407 89.0873 34.9005Z" fill="#16B061"/>
<path d="M55.0349 0.382935C56.3334 0.654269 56.8567 1.58451 56.6823 2.88304C56.5466 3.96838 56.0815 4.97623 54.7636 4.85994C53.2713 4.74365 52.9999 3.6196 53.0775 2.35983C53.155 1.17759 53.6395 0.382935 55.0349 0.382935Z" fill="#16B061"/>
<path d="M3.9276 85.7367C3.9276 81.8799 4.02452 78.0231 3.88885 74.1663C3.83071 72.2864 4.4703 71.8599 6.27273 71.8018C13.2305 71.5886 13.2305 71.5304 13.2305 78.3332C13.2305 83.818 12.901 89.3417 13.3273 94.7877C13.6374 98.567 12.2614 99.9818 8.79222 100.524C4.8579 101.145 3.94698 100.544 3.9276 96.5707C3.9276 92.9853 3.9276 89.361 3.9276 85.7367Z" fill="#FEFEFE"/>
<path d="M73.5438 71.3561C73.253 72.0538 72.7298 72.3445 72.032 72.0538C71.9158 71.9957 71.8576 71.4336 71.9739 71.2204C72.3228 70.5615 72.8654 70.8716 73.3499 71.0847C73.3499 71.0654 73.5438 71.3561 73.5438 71.3561Z" fill="#4B4B4B"/>
</svg>
