<svg width="271" height="196" viewBox="0 0 271 196" fill="none" xmlns="http://www.w3.org/2000/svg">
<circle cx="2.7343" cy="52.2555" r="2.7343" fill="#009FF9" fill-opacity="0.3"/>
<circle cx="9.72197" cy="52.2555" r="2.7343" fill="#009FF9" fill-opacity="0.3"/>
<circle cx="16.7096" cy="52.2555" r="2.7343" fill="#009FF9" fill-opacity="0.3"/>
<circle cx="23.6973" cy="52.2555" r="2.7343" fill="#009FF9" fill-opacity="0.3"/>
<circle cx="30.685" cy="52.2555" r="2.7343" fill="#009FF9" fill-opacity="0.3"/>
<circle cx="37.6726" cy="52.2555" r="2.7343" fill="#009FF9" fill-opacity="0.3"/>
<circle cx="44.6603" cy="52.2555" r="2.7343" fill="#009FF9" fill-opacity="0.3"/>
<circle cx="51.648" cy="52.2555" r="2.7343" fill="#009FF9" fill-opacity="0.3"/>
<circle cx="58.6357" cy="58.9395" r="2.7343" fill="#009FF9" fill-opacity="0.3"/>
<circle cx="65.6233" cy="58.9395" r="2.7343" fill="#009FF9" fill-opacity="0.3"/>
<circle cx="72.611" cy="58.9395" r="2.7343" fill="#009FF9" fill-opacity="0.3"/>
<circle cx="79.5987" cy="52.2555" r="2.7343" fill="#009FF9" fill-opacity="0.3"/>
<circle cx="86.5863" cy="52.2555" r="2.7343" fill="#009FF9" fill-opacity="0.3"/>
<circle cx="93.574" cy="58.9395" r="2.7343" fill="#009FF9" fill-opacity="0.3"/>
<circle cx="100.562" cy="58.9395" r="2.7343" fill="#009FF9" fill-opacity="0.3"/>
<circle cx="107.549" cy="52.2555" r="2.7343" fill="#009FF9" fill-opacity="0.3"/>
<circle cx="114.537" cy="52.2555" r="2.7343" fill="#009FF9" fill-opacity="0.3"/>
<circle cx="121.525" cy="52.2555" r="2.7343" fill="#009FF9" fill-opacity="0.3"/>
<circle cx="128.512" cy="52.2555" r="2.7343" fill="#009FF9" fill-opacity="0.3"/>
<circle cx="135.5" cy="45.5718" r="2.7343" fill="#009FF9" fill-opacity="0.3"/>
<circle cx="142.488" cy="30.9888" r="2.7343" fill="#009FF9" fill-opacity="0.3"/>
<circle cx="149.475" cy="37.6727" r="2.7343" fill="#009FF9" fill-opacity="0.3"/>
<circle cx="156.463" cy="37.6727" r="2.7343" fill="#009FF9" fill-opacity="0.3"/>
<circle cx="163.451" cy="44.3565" r="2.7343" fill="#009FF9" fill-opacity="0.3"/>
<circle cx="170.438" cy="44.3565" r="2.7343" fill="#009FF9" fill-opacity="0.3"/>
<circle cx="177.426" cy="57.7242" r="2.7343" fill="#009FF9" fill-opacity="0.3"/>
<circle cx="184.414" cy="57.7242" r="2.7343" fill="#009FF9" fill-opacity="0.3"/>
<circle cx="191.401" cy="44.3565" r="2.7343" fill="#009FF9" fill-opacity="0.3"/>
<circle cx="198.389" cy="44.3565" r="2.7343" fill="#009FF9" fill-opacity="0.3"/>
<circle cx="205.377" cy="44.3565" r="2.7343" fill="#009FF9" fill-opacity="0.3"/>
<circle cx="212.364" cy="44.3565" r="2.7343" fill="#009FF9" fill-opacity="0.3"/>
<circle cx="219.352" cy="31.5964" r="2.7343" fill="#009FF9" fill-opacity="0.3"/>
<circle cx="226.34" cy="17.9249" r="2.7343" fill="#009FF9" fill-opacity="0.3"/>
<circle cx="233.327" cy="9.72198" r="2.7343" fill="#009FF9" fill-opacity="0.3"/>
<circle cx="240.315" cy="9.72198" r="2.7343" fill="#009FF9" fill-opacity="0.3"/>
<circle cx="247.303" cy="2.7343" r="2.7343" fill="#009FF9" fill-opacity="0.3"/>
<circle cx="254.29" cy="2.7343" r="2.7343" fill="#009FF9" fill-opacity="0.3"/>
<circle cx="261.278" cy="16.1021" r="2.7343" fill="#009FF9" fill-opacity="0.3"/>
<circle cx="268.266" cy="29.7736" r="2.7343" fill="#009FF9" fill-opacity="0.3"/>
<circle cx="2.7343" cy="58.9395" r="2.7343" fill="#009FF9" fill-opacity="0.3"/>
<circle cx="9.72197" cy="58.9395" r="2.7343" fill="#009FF9" fill-opacity="0.3"/>
<circle cx="16.7096" cy="58.9395" r="2.7343" fill="#009FF9" fill-opacity="0.3"/>
<circle cx="23.6973" cy="58.9395" r="2.7343" fill="#009FF9" fill-opacity="0.3"/>
<circle cx="30.685" cy="58.9395" r="2.7343" fill="#009FF9" fill-opacity="0.3"/>
<circle cx="37.6726" cy="58.9395" r="2.7343" fill="#009FF9" fill-opacity="0.3"/>
<circle cx="44.6603" cy="58.9395" r="2.7343" fill="#009FF9" fill-opacity="0.3"/>
<circle cx="51.648" cy="58.9395" r="2.7343" fill="#009FF9" fill-opacity="0.3"/>
<circle cx="58.6357" cy="65.6233" r="2.7343" fill="#009FF9" fill-opacity="0.3"/>
<circle cx="65.6233" cy="65.6233" r="2.7343" fill="#009FF9" fill-opacity="0.3"/>
<circle cx="72.611" cy="65.6233" r="2.7343" fill="#009FF9" fill-opacity="0.3"/>
<circle cx="79.5987" cy="58.9395" r="2.7343" fill="#009FF9" fill-opacity="0.3"/>
<circle cx="86.5863" cy="58.9395" r="2.7343" fill="#009FF9" fill-opacity="0.3"/>
<circle cx="93.574" cy="65.6233" r="2.7343" fill="#009FF9" fill-opacity="0.3"/>
<circle cx="100.562" cy="65.6233" r="2.7343" fill="#009FF9" fill-opacity="0.3"/>
<circle cx="107.549" cy="58.9395" r="2.7343" fill="#009FF9" fill-opacity="0.3"/>
<circle cx="114.537" cy="58.9395" r="2.7343" fill="#009FF9" fill-opacity="0.3"/>
<circle cx="121.525" cy="58.9395" r="2.7343" fill="#009FF9" fill-opacity="0.3"/>
<circle cx="128.512" cy="58.9395" r="2.7343" fill="#009FF9" fill-opacity="0.3"/>
<circle cx="135.5" cy="52.2555" r="2.7343" fill="#009FF9" fill-opacity="0.3"/>
<circle cx="142.488" cy="37.6727" r="2.7343" fill="#009FF9" fill-opacity="0.3"/>
<circle cx="149.475" cy="44.3565" r="2.7343" fill="#009FF9" fill-opacity="0.3"/>
<circle cx="156.463" cy="44.3565" r="2.7343" fill="#009FF9" fill-opacity="0.3"/>
<circle cx="163.451" cy="51.0403" r="2.7343" fill="#009FF9" fill-opacity="0.3"/>
<circle cx="170.438" cy="51.0403" r="2.7343" fill="#009FF9" fill-opacity="0.3"/>
<circle cx="177.426" cy="64.4081" r="2.7343" fill="#009FF9" fill-opacity="0.3"/>
<circle cx="184.414" cy="64.4081" r="2.7343" fill="#009FF9" fill-opacity="0.3"/>
<circle cx="191.401" cy="51.0403" r="2.7343" fill="#009FF9" fill-opacity="0.3"/>
<circle cx="198.389" cy="51.0403" r="2.7343" fill="#009FF9" fill-opacity="0.3"/>
<circle cx="205.377" cy="51.0403" r="2.7343" fill="#009FF9" fill-opacity="0.3"/>
<circle cx="212.364" cy="51.0403" r="2.7343" fill="#009FF9" fill-opacity="0.3"/>
<circle cx="219.352" cy="38.2802" r="2.7343" fill="#009FF9" fill-opacity="0.3"/>
<circle cx="226.34" cy="24.6087" r="2.7343" fill="#009FF9" fill-opacity="0.3"/>
<circle cx="233.327" cy="16.4058" r="2.7343" fill="#009FF9" fill-opacity="0.3"/>
<circle cx="240.315" cy="16.4058" r="2.7343" fill="#009FF9" fill-opacity="0.3"/>
<circle cx="247.303" cy="9.41814" r="2.7343" fill="#009FF9" fill-opacity="0.3"/>
<circle cx="254.29" cy="9.41814" r="2.7343" fill="#009FF9" fill-opacity="0.3"/>
<circle cx="261.278" cy="22.7858" r="2.7343" fill="#009FF9" fill-opacity="0.3"/>
<circle cx="268.266" cy="36.4575" r="2.7343" fill="#009FF9" fill-opacity="0.3"/>
<circle cx="2.7343" cy="65.6233" r="2.7343" fill="#009FF9" fill-opacity="0.3"/>
<circle cx="9.72197" cy="65.6233" r="2.7343" fill="#009FF9" fill-opacity="0.3"/>
<circle cx="16.7096" cy="65.6233" r="2.7343" fill="#009FF9" fill-opacity="0.3"/>
<circle cx="23.6973" cy="65.6233" r="2.7343" fill="#0EB062"/>
<circle cx="30.685" cy="65.6233" r="2.7343" fill="#0EB062"/>
<circle cx="37.6726" cy="65.6233" r="2.7343" fill="#009FF9" fill-opacity="0.3"/>
<circle cx="44.6603" cy="65.6233" r="2.7343" fill="#009FF9" fill-opacity="0.3"/>
<circle cx="51.648" cy="65.6233" r="2.7343" fill="#009FF9" fill-opacity="0.3"/>
<circle cx="58.6357" cy="72.3072" r="2.7343" fill="#009FF9" fill-opacity="0.3"/>
<circle cx="65.6233" cy="72.3072" r="2.7343" fill="#009FF9" fill-opacity="0.3"/>
<circle cx="72.611" cy="72.3072" r="2.7343" fill="#009FF9" fill-opacity="0.3"/>
<circle cx="79.5987" cy="65.6233" r="2.7343" fill="#009FF9" fill-opacity="0.3"/>
<circle cx="86.5863" cy="65.6233" r="2.7343" fill="#009FF9" fill-opacity="0.3"/>
<circle cx="93.574" cy="72.3072" r="2.7343" fill="#009FF9" fill-opacity="0.3"/>
<circle cx="100.562" cy="72.3072" r="2.7343" fill="#009FF9" fill-opacity="0.3"/>
<circle cx="107.549" cy="65.6233" r="2.7343" fill="#009FF9" fill-opacity="0.3"/>
<circle cx="114.537" cy="65.6233" r="2.7343" fill="#009FF9" fill-opacity="0.3"/>
<circle cx="121.525" cy="65.6233" r="2.7343" fill="#009FF9" fill-opacity="0.3"/>
<circle cx="128.512" cy="65.6233" r="2.7343" fill="#009FF9" fill-opacity="0.3"/>
<circle cx="135.5" cy="58.9395" r="2.7343" fill="#009FF9" fill-opacity="0.3"/>
<circle cx="142.488" cy="44.3565" r="2.7343" fill="#009FF9" fill-opacity="0.3"/>
<circle cx="149.475" cy="51.0403" r="2.7343" fill="#009FF9" fill-opacity="0.3"/>
<circle cx="156.463" cy="51.0403" r="2.7343" fill="#009FF9" fill-opacity="0.3"/>
<circle cx="163.451" cy="57.7242" r="2.7343" fill="#009FF9" fill-opacity="0.3"/>
<circle cx="170.438" cy="57.7242" r="2.7343" fill="#009FF9" fill-opacity="0.3"/>
<circle cx="177.426" cy="71.092" r="2.7343" fill="#009FF9" fill-opacity="0.3"/>
<circle cx="184.414" cy="71.092" r="2.7343" fill="#009FF9" fill-opacity="0.3"/>
<circle cx="191.401" cy="57.7242" r="2.7343" fill="#009FF9" fill-opacity="0.3"/>
<circle cx="198.389" cy="57.7242" r="2.7343" fill="#009FF9" fill-opacity="0.3"/>
<circle cx="205.377" cy="57.7242" r="2.7343" fill="#009FF9" fill-opacity="0.3"/>
<circle cx="212.364" cy="57.7242" r="2.7343" fill="#009FF9" fill-opacity="0.3"/>
<circle cx="219.352" cy="44.9642" r="2.7343" fill="#009FF9" fill-opacity="0.3"/>
<circle cx="226.34" cy="31.2927" r="2.7343" fill="#009FF9" fill-opacity="0.3"/>
<circle cx="233.327" cy="23.0897" r="2.7343" fill="#009FF9" fill-opacity="0.3"/>
<circle cx="240.315" cy="23.0897" r="2.7343" fill="#009FF9" fill-opacity="0.3"/>
<circle cx="247.303" cy="16.1021" r="2.7343" fill="#009FF9" fill-opacity="0.3"/>
<circle cx="254.29" cy="16.1021" r="2.7343" fill="#009FF9" fill-opacity="0.3"/>
<circle cx="261.278" cy="29.4698" r="2.7343" fill="#009FF9" fill-opacity="0.3"/>
<circle cx="2.7343" cy="72.3072" r="2.7343" fill="#009FF9" fill-opacity="0.3"/>
<circle cx="9.72197" cy="72.3072" r="2.7343" fill="#009FF9" fill-opacity="0.3"/>
<circle cx="16.7096" cy="72.3072" r="2.7343" fill="#009FF9" fill-opacity="0.3"/>
<circle cx="23.6973" cy="72.3072" r="2.7343" fill="#0EB062"/>
<circle cx="30.685" cy="72.3072" r="2.7343" fill="#0EB062"/>
<circle cx="37.6726" cy="72.3072" r="2.7343" fill="#009FF9" fill-opacity="0.3"/>
<circle cx="44.6603" cy="72.3072" r="2.7343" fill="#009FF9" fill-opacity="0.3"/>
<circle cx="51.648" cy="72.3072" r="2.7343" fill="#009FF9" fill-opacity="0.3"/>
<circle cx="58.6357" cy="78.991" r="2.7343" fill="#009FF9" fill-opacity="0.3"/>
<circle cx="65.6233" cy="78.991" r="2.7343" fill="#009FF9" fill-opacity="0.3"/>
<circle cx="72.611" cy="78.991" r="2.7343" fill="#009FF9" fill-opacity="0.3"/>
<circle cx="79.5987" cy="72.3072" r="2.7343" fill="#009FF9" fill-opacity="0.3"/>
<circle cx="86.5863" cy="72.3072" r="2.7343" fill="#009FF9" fill-opacity="0.3"/>
<circle cx="93.574" cy="78.991" r="2.7343" fill="#009FF9" fill-opacity="0.3"/>
<circle cx="100.562" cy="78.991" r="2.7343" fill="#009FF9" fill-opacity="0.3"/>
<circle cx="107.549" cy="72.3072" r="2.7343" fill="#009FF9" fill-opacity="0.3"/>
<circle cx="114.537" cy="72.3072" r="2.7343" fill="#009FF9" fill-opacity="0.3"/>
<circle cx="121.525" cy="72.3072" r="2.7343" fill="#009FF9" fill-opacity="0.3"/>
<circle cx="128.512" cy="72.3072" r="2.7343" fill="#009FF9" fill-opacity="0.3"/>
<circle cx="135.5" cy="65.6233" r="2.7343" fill="#009FF9" fill-opacity="0.3"/>
<circle cx="142.488" cy="51.0403" r="2.7343" fill="#009FF9" fill-opacity="0.3"/>
<circle cx="149.475" cy="57.7242" r="2.7343" fill="#009FF9" fill-opacity="0.3"/>
<circle cx="156.463" cy="57.7242" r="2.7343" fill="#009FF9" fill-opacity="0.3"/>
<circle cx="163.451" cy="64.4081" r="2.7343" fill="#009FF9" fill-opacity="0.3"/>
<circle cx="170.438" cy="64.4081" r="2.7343" fill="#009FF9" fill-opacity="0.3"/>
<circle cx="177.426" cy="77.7758" r="2.7343" fill="#009FF9" fill-opacity="0.3"/>
<circle cx="184.414" cy="77.7758" r="2.7343" fill="#009FF9" fill-opacity="0.3"/>
<circle cx="191.401" cy="64.4081" r="2.7343" fill="#009FF9" fill-opacity="0.3"/>
<circle cx="198.389" cy="64.4081" r="2.7343" fill="#009FF9" fill-opacity="0.3"/>
<circle cx="205.377" cy="64.4081" r="2.7343" fill="#009FF9" fill-opacity="0.3"/>
<circle cx="212.364" cy="64.4081" r="2.7343" fill="#009FF9" fill-opacity="0.3"/>
<circle cx="219.352" cy="51.648" r="2.7343" fill="#009FF9" fill-opacity="0.3"/>
<circle cx="226.34" cy="37.9764" r="2.7343" fill="#009FF9" fill-opacity="0.3"/>
<circle cx="233.327" cy="29.7736" r="2.7343" fill="#009FF9" fill-opacity="0.3"/>
<circle cx="240.315" cy="29.7736" r="2.7343" fill="#009FF9" fill-opacity="0.3"/>
<circle cx="247.303" cy="22.7858" r="2.7343" fill="#009FF9" fill-opacity="0.3"/>
<circle cx="254.29" cy="22.7858" r="2.7343" fill="#009FF9" fill-opacity="0.3"/>
<circle cx="261.278" cy="36.1536" r="2.7343" fill="#009FF9" fill-opacity="0.3"/>
<circle cx="9.72197" cy="78.991" r="2.7343" fill="#009FF9" fill-opacity="0.3"/>
<circle cx="16.7096" cy="78.991" r="2.7343" fill="#009FF9" fill-opacity="0.3"/>
<circle cx="23.6973" cy="78.991" r="2.7343" fill="#009FF9" fill-opacity="0.3"/>
<circle cx="30.685" cy="78.991" r="2.7343" fill="#009FF9" fill-opacity="0.3"/>
<circle cx="37.6726" cy="78.991" r="2.7343" fill="#009FF9" fill-opacity="0.3"/>
<circle cx="44.6603" cy="78.991" r="2.7343" fill="#009FF9" fill-opacity="0.3"/>
<circle cx="51.648" cy="78.991" r="2.7343" fill="#009FF9" fill-opacity="0.3"/>
<circle cx="58.6357" cy="85.6749" r="2.7343" fill="#009FF9" fill-opacity="0.3"/>
<circle cx="65.6233" cy="85.6749" r="2.7343" fill="#009FF9" fill-opacity="0.3"/>
<circle cx="72.611" cy="85.6749" r="2.7343" fill="#009FF9" fill-opacity="0.3"/>
<circle cx="79.5987" cy="78.991" r="2.7343" fill="#009FF9" fill-opacity="0.3"/>
<circle cx="86.5863" cy="78.991" r="2.7343" fill="#009FF9" fill-opacity="0.3"/>
<circle cx="93.574" cy="85.6749" r="2.7343" fill="#009FF9" fill-opacity="0.3"/>
<circle cx="100.562" cy="85.6749" r="2.7343" fill="#009FF9" fill-opacity="0.3"/>
<circle cx="107.549" cy="78.991" r="2.7343" fill="#009FF9" fill-opacity="0.3"/>
<circle cx="114.537" cy="78.991" r="2.7343" fill="#009FF9" fill-opacity="0.3"/>
<circle cx="121.525" cy="78.991" r="2.7343" fill="#009FF9" fill-opacity="0.3"/>
<circle cx="128.512" cy="78.991" r="2.7343" fill="#009FF9" fill-opacity="0.3"/>
<circle cx="135.5" cy="72.3072" r="2.7343" fill="#009FF9" fill-opacity="0.3"/>
<circle cx="142.488" cy="57.7242" r="2.7343" fill="#009FF9" fill-opacity="0.3"/>
<circle cx="149.475" cy="64.4081" r="2.7343" fill="#009FF9" fill-opacity="0.3"/>
<circle cx="156.463" cy="64.4081" r="2.7343" fill="#009FF9" fill-opacity="0.3"/>
<circle cx="163.451" cy="71.092" r="2.7343" fill="#009FF9" fill-opacity="0.3"/>
<circle cx="170.438" cy="71.092" r="2.7343" fill="#009FF9" fill-opacity="0.3"/>
<circle cx="177.426" cy="84.4596" r="2.7343" fill="#009FF9" fill-opacity="0.3"/>
<circle cx="184.414" cy="84.4596" r="2.7343" fill="#009FF9" fill-opacity="0.3"/>
<circle cx="191.401" cy="71.092" r="2.7343" fill="#009FF9" fill-opacity="0.3"/>
<circle cx="198.389" cy="71.092" r="2.7343" fill="#009FF9" fill-opacity="0.3"/>
<circle cx="205.377" cy="71.092" r="2.7343" fill="#009FF9" fill-opacity="0.3"/>
<circle cx="212.364" cy="71.092" r="2.7343" fill="#009FF9" fill-opacity="0.3"/>
<circle cx="219.352" cy="58.3318" r="2.7343" fill="#009FF9" fill-opacity="0.3"/>
<circle cx="226.34" cy="44.6603" r="2.7343" fill="#009FF9" fill-opacity="0.3"/>
<circle cx="233.327" cy="36.4575" r="2.7343" fill="#009FF9" fill-opacity="0.3"/>
<circle cx="240.315" cy="36.4575" r="2.7343" fill="#009FF9" fill-opacity="0.3"/>
<circle cx="247.303" cy="29.4698" r="2.7343" fill="#009FF9" fill-opacity="0.3"/>
<circle cx="254.29" cy="29.4698" r="2.7343" fill="#009FF9" fill-opacity="0.3"/>
<circle cx="261.278" cy="42.8375" r="2.7343" fill="#009FF9" fill-opacity="0.3"/>
<circle cx="16.7096" cy="85.6749" r="2.7343" fill="#009FF9" fill-opacity="0.3"/>
<circle cx="23.6973" cy="85.6749" r="2.7343" fill="#009FF9" fill-opacity="0.3"/>
<circle cx="30.685" cy="85.6749" r="2.7343" fill="#009FF9" fill-opacity="0.3"/>
<circle cx="37.6726" cy="85.6749" r="2.7343" fill="#009FF9" fill-opacity="0.3"/>
<circle cx="44.6603" cy="85.6749" r="2.7343" fill="#009FF9" fill-opacity="0.3"/>
<circle cx="51.648" cy="85.6749" r="2.7343" fill="#009FF9" fill-opacity="0.3"/>
<circle cx="58.6357" cy="92.3588" r="2.7343" fill="#009FF9" fill-opacity="0.3"/>
<circle cx="65.6233" cy="92.3588" r="2.7343" fill="#009FF9" fill-opacity="0.3"/>
<circle cx="72.611" cy="92.3588" r="2.7343" fill="#009FF9" fill-opacity="0.3"/>
<circle cx="79.5987" cy="85.6749" r="2.7343" fill="#009FF9" fill-opacity="0.3"/>
<circle cx="86.5863" cy="85.6749" r="2.7343" fill="#009FF9" fill-opacity="0.3"/>
<circle cx="93.574" cy="92.3588" r="2.7343" fill="#009FF9" fill-opacity="0.3"/>
<circle cx="100.562" cy="92.3588" r="2.7343" fill="#009FF9" fill-opacity="0.3"/>
<circle cx="107.549" cy="85.6749" r="2.7343" fill="#009FF9" fill-opacity="0.3"/>
<circle cx="114.537" cy="85.6749" r="2.7343" fill="#009FF9" fill-opacity="0.3"/>
<circle cx="121.525" cy="85.6749" r="2.7343" fill="#009FF9" fill-opacity="0.3"/>
<circle cx="128.512" cy="85.6749" r="2.7343" fill="#009FF9" fill-opacity="0.3"/>
<circle cx="135.5" cy="78.991" r="2.7343" fill="#009FF9" fill-opacity="0.3"/>
<circle cx="142.488" cy="64.4081" r="2.7343" fill="#009FF9" fill-opacity="0.3"/>
<circle cx="149.475" cy="71.092" r="2.7343" fill="#009FF9" fill-opacity="0.3"/>
<circle cx="156.463" cy="71.092" r="2.7343" fill="#009FF9" fill-opacity="0.3"/>
<circle cx="163.451" cy="77.7758" r="2.7343" fill="#009FF9" fill-opacity="0.3"/>
<circle cx="170.438" cy="77.7758" r="2.7343" fill="#009FF9" fill-opacity="0.3"/>
<circle cx="177.426" cy="91.1435" r="2.7343" fill="#009FF9" fill-opacity="0.3"/>
<circle cx="184.414" cy="91.1435" r="2.7343" fill="#009FF9" fill-opacity="0.3"/>
<circle cx="191.401" cy="77.7758" r="2.7343" fill="#009FF9" fill-opacity="0.3"/>
<circle cx="198.389" cy="77.7758" r="2.7343" fill="#009FF9" fill-opacity="0.3"/>
<circle cx="205.377" cy="77.7758" r="2.7343" fill="#009FF9" fill-opacity="0.3"/>
<circle cx="212.364" cy="77.7758" r="2.7343" fill="#009FF9" fill-opacity="0.3"/>
<circle cx="219.352" cy="65.0157" r="2.7343" fill="#009FF9" fill-opacity="0.3"/>
<circle cx="226.34" cy="51.3442" r="2.7343" fill="#009FF9" fill-opacity="0.3"/>
<circle cx="233.327" cy="43.1412" r="2.7343" fill="#009FF9" fill-opacity="0.3"/>
<circle cx="240.315" cy="43.1412" r="2.7343" fill="#009FF9" fill-opacity="0.3"/>
<circle cx="247.303" cy="36.1536" r="2.7343" fill="#009FF9" fill-opacity="0.3"/>
<circle cx="254.29" cy="36.1536" r="2.7343" fill="#009FF9" fill-opacity="0.3"/>
<circle cx="261.278" cy="49.5213" r="2.7343" fill="#009FF9" fill-opacity="0.3"/>
<circle cx="23.6973" cy="92.3588" r="2.7343" fill="#009FF9" fill-opacity="0.3"/>
<circle cx="30.685" cy="92.3588" r="2.7343" fill="#009FF9" fill-opacity="0.3"/>
<circle cx="37.6726" cy="92.3588" r="2.7343" fill="#009FF9" fill-opacity="0.3"/>
<circle cx="44.6603" cy="92.3588" r="2.7343" fill="#009FF9" fill-opacity="0.3"/>
<circle cx="51.648" cy="92.3588" r="2.7343" fill="#009FF9" fill-opacity="0.3"/>
<circle cx="58.6357" cy="99.0426" r="2.7343" fill="#009FF9" fill-opacity="0.3"/>
<circle cx="65.6233" cy="99.0426" r="2.7343" fill="#009FF9" fill-opacity="0.3"/>
<circle cx="72.611" cy="99.0426" r="2.7343" fill="#009FF9" fill-opacity="0.3"/>
<circle cx="79.5987" cy="92.3588" r="2.7343" fill="#009FF9" fill-opacity="0.3"/>
<circle cx="86.5863" cy="92.3588" r="2.7343" fill="#009FF9" fill-opacity="0.3"/>
<circle cx="93.574" cy="99.0426" r="2.7343" fill="#009FF9" fill-opacity="0.3"/>
<circle cx="100.562" cy="99.0426" r="2.7343" fill="#009FF9" fill-opacity="0.3"/>
<circle cx="107.549" cy="92.3588" r="2.7343" fill="#009FF9" fill-opacity="0.3"/>
<circle cx="114.537" cy="92.3588" r="2.7343" fill="#009FF9" fill-opacity="0.3"/>
<circle cx="121.525" cy="92.3588" r="2.7343" fill="#009FF9" fill-opacity="0.3"/>
<circle cx="128.512" cy="92.3588" r="2.7343" fill="#009FF9" fill-opacity="0.3"/>
<circle cx="135.5" cy="85.6749" r="2.7343" fill="#009FF9" fill-opacity="0.3"/>
<circle cx="142.488" cy="71.092" r="2.7343" fill="#009FF9" fill-opacity="0.3"/>
<circle cx="149.475" cy="77.7758" r="2.7343" fill="#009FF9" fill-opacity="0.3"/>
<circle cx="156.463" cy="77.7758" r="2.7343" fill="#009FF9" fill-opacity="0.3"/>
<circle cx="163.451" cy="84.4596" r="2.7343" fill="#009FF9" fill-opacity="0.3"/>
<circle cx="170.438" cy="84.4596" r="2.7343" fill="#009FF9" fill-opacity="0.3"/>
<circle cx="177.426" cy="97.8273" r="2.7343" fill="#009FF9" fill-opacity="0.3"/>
<circle cx="184.414" cy="97.8273" r="2.7343" fill="#009FF9" fill-opacity="0.3"/>
<circle cx="191.401" cy="84.4596" r="2.7343" fill="#009FF9" fill-opacity="0.3"/>
<circle cx="198.389" cy="84.4596" r="2.7343" fill="#009FF9" fill-opacity="0.3"/>
<circle cx="205.377" cy="84.4596" r="2.7343" fill="#009FF9" fill-opacity="0.3"/>
<circle cx="212.364" cy="84.4596" r="2.7343" fill="#009FF9" fill-opacity="0.3"/>
<circle cx="219.352" cy="71.6995" r="2.7343" fill="#009FF9" fill-opacity="0.3"/>
<circle cx="226.34" cy="58.028" r="2.7343" fill="#009FF9" fill-opacity="0.3"/>
<circle cx="233.327" cy="49.8251" r="2.7343" fill="#009FF9" fill-opacity="0.3"/>
<circle cx="240.315" cy="49.8251" r="2.7343" fill="#009FF9" fill-opacity="0.3"/>
<circle cx="247.303" cy="42.8375" r="2.7343" fill="#009FF9" fill-opacity="0.3"/>
<circle cx="254.29" cy="42.8375" r="2.7343" fill="#009FF9" fill-opacity="0.3"/>
<circle cx="30.685" cy="99.0426" r="2.7343" fill="#009FF9" fill-opacity="0.3"/>
<circle cx="37.6726" cy="99.0426" r="2.7343" fill="#009FF9" fill-opacity="0.3"/>
<circle cx="44.6603" cy="99.0426" r="2.7343" fill="#009FF9" fill-opacity="0.3"/>
<circle cx="51.648" cy="99.0426" r="2.7343" fill="#009FF9" fill-opacity="0.3"/>
<circle cx="58.6357" cy="105.726" r="2.7343" fill="#009FF9" fill-opacity="0.3"/>
<circle cx="65.6233" cy="105.726" r="2.7343" fill="#009FF9" fill-opacity="0.3"/>
<circle cx="72.611" cy="105.726" r="2.7343" fill="#009FF9" fill-opacity="0.3"/>
<circle cx="79.5987" cy="99.0426" r="2.7343" fill="#009FF9" fill-opacity="0.3"/>
<circle cx="86.5863" cy="99.0426" r="2.7343" fill="#009FF9" fill-opacity="0.3"/>
<circle cx="93.574" cy="105.726" r="2.7343" fill="#009FF9" fill-opacity="0.3"/>
<circle cx="100.562" cy="105.726" r="2.7343" fill="#009FF9" fill-opacity="0.3"/>
<circle cx="107.549" cy="99.0426" r="2.7343" fill="#009FF9" fill-opacity="0.3"/>
<circle cx="114.537" cy="99.0426" r="2.7343" fill="#009FF9" fill-opacity="0.3"/>
<circle cx="121.525" cy="99.0426" r="2.7343" fill="#009FF9" fill-opacity="0.3"/>
<circle cx="128.512" cy="99.0426" r="2.7343" fill="#009FF9" fill-opacity="0.3"/>
<circle cx="135.5" cy="92.3588" r="2.7343" fill="#009FF9" fill-opacity="0.3"/>
<circle cx="142.488" cy="77.7758" r="2.7343" fill="#009FF9" fill-opacity="0.3"/>
<circle cx="149.475" cy="84.4596" r="2.7343" fill="#009FF9" fill-opacity="0.3"/>
<circle cx="156.463" cy="84.4596" r="2.7343" fill="#009FF9" fill-opacity="0.3"/>
<circle cx="163.451" cy="91.1435" r="2.7343" fill="#009FF9" fill-opacity="0.3"/>
<circle cx="170.438" cy="91.1435" r="2.7343" fill="#009FF9" fill-opacity="0.3"/>
<circle cx="177.426" cy="104.511" r="2.7343" fill="#009FF9" fill-opacity="0.3"/>
<circle cx="191.401" cy="91.1435" r="2.7343" fill="#009FF9" fill-opacity="0.3"/>
<circle cx="198.389" cy="91.1435" r="2.7343" fill="#009FF9" fill-opacity="0.3"/>
<circle cx="205.377" cy="91.1435" r="2.7343" fill="#009FF9" fill-opacity="0.3"/>
<circle cx="219.352" cy="78.3834" r="2.7343" fill="#009FF9" fill-opacity="0.3"/>
<circle cx="226.34" cy="64.7119" r="2.7343" fill="#009FF9" fill-opacity="0.3"/>
<circle cx="233.327" cy="56.509" r="2.7343" fill="#009FF9" fill-opacity="0.3"/>
<circle cx="240.315" cy="56.509" r="2.7343" fill="#009FF9" fill-opacity="0.3"/>
<circle cx="247.303" cy="49.5213" r="2.7343" fill="#009FF9" fill-opacity="0.3"/>
<circle cx="254.29" cy="49.5213" r="2.7343" fill="#009FF9" fill-opacity="0.3"/>
<circle cx="37.6726" cy="105.726" r="2.7343" fill="#009FF9" fill-opacity="0.3"/>
<circle cx="44.6603" cy="105.726" r="2.7343" fill="#009FF9" fill-opacity="0.3"/>
<circle cx="51.648" cy="105.726" r="2.7343" fill="#009FF9" fill-opacity="0.3"/>
<circle cx="58.6357" cy="112.41" r="2.7343" fill="#009FF9" fill-opacity="0.3"/>
<circle cx="58.6357" cy="145.83" r="2.7343" fill="#009FF9" fill-opacity="0.3"/>
<circle cx="65.6233" cy="145.83" r="2.7343" fill="#009FF9" fill-opacity="0.3"/>
<circle cx="72.611" cy="145.83" r="2.7343" fill="#009FF9" fill-opacity="0.3"/>
<circle cx="79.5987" cy="145.83" r="2.7343" fill="#009FF9" fill-opacity="0.3"/>
<circle cx="86.5863" cy="145.83" r="2.7343" fill="#009FF9" fill-opacity="0.3"/>
<circle cx="93.574" cy="145.83" r="2.7343" fill="#009FF9" fill-opacity="0.3"/>
<circle cx="100.562" cy="145.83" r="2.7343" fill="#009FF9" fill-opacity="0.3"/>
<circle cx="107.549" cy="159.197" r="2.7343" fill="#009FF9" fill-opacity="0.3"/>
<circle cx="114.537" cy="159.197" r="2.7343" fill="#009FF9" fill-opacity="0.3"/>
<circle cx="121.525" cy="159.197" r="2.7343" fill="#009FF9" fill-opacity="0.3"/>
<circle cx="128.512" cy="159.197" r="2.7343" fill="#009FF9" fill-opacity="0.3"/>
<circle cx="135.5" cy="159.197" r="2.7343" fill="#009FF9" fill-opacity="0.3"/>
<circle cx="142.488" cy="159.197" r="2.7343" fill="#009FF9" fill-opacity="0.3"/>
<circle cx="149.475" cy="165.881" r="2.7343" fill="#009FF9" fill-opacity="0.3"/>
<circle cx="156.463" cy="165.881" r="2.7343" fill="#009FF9" fill-opacity="0.3"/>
<circle cx="163.451" cy="165.881" r="2.7343" fill="#009FF9" fill-opacity="0.3"/>
<circle cx="170.438" cy="165.881" r="2.7343" fill="#009FF9" fill-opacity="0.3"/>
<circle cx="177.426" cy="172.565" r="2.7343" fill="#009FF9" fill-opacity="0.3"/>
<circle cx="184.414" cy="172.565" r="2.7343" fill="#009FF9" fill-opacity="0.3"/>
<circle cx="65.6233" cy="112.41" r="2.7343" fill="#009FF9" fill-opacity="0.3"/>
<circle cx="72.611" cy="112.41" r="2.7343" fill="#009FF9" fill-opacity="0.3"/>
<circle cx="79.5987" cy="105.726" r="2.7343" fill="#009FF9" fill-opacity="0.3"/>
<circle cx="86.5863" cy="105.726" r="2.7343" fill="#009FF9" fill-opacity="0.3"/>
<circle cx="93.574" cy="112.41" r="2.7343" fill="#009FF9" fill-opacity="0.3"/>
<circle cx="100.562" cy="112.41" r="2.7343" fill="#009FF9" fill-opacity="0.3"/>
<circle cx="107.549" cy="105.726" r="2.7343" fill="#009FF9" fill-opacity="0.3"/>
<circle cx="114.537" cy="105.726" r="2.7343" fill="#009FF9" fill-opacity="0.3"/>
<circle cx="121.525" cy="105.726" r="2.7343" fill="#009FF9" fill-opacity="0.3"/>
<circle cx="128.512" cy="105.726" r="2.7343" fill="#009FF9" fill-opacity="0.3"/>
<circle cx="135.5" cy="99.0426" r="2.7343" fill="#009FF9" fill-opacity="0.3"/>
<circle cx="142.488" cy="84.4596" r="2.7343" fill="#009FF9" fill-opacity="0.3"/>
<circle cx="149.475" cy="91.1435" r="2.7343" fill="#009FF9" fill-opacity="0.3"/>
<circle cx="156.463" cy="91.1435" r="2.7343" fill="#009FF9" fill-opacity="0.3"/>
<circle cx="163.451" cy="97.8273" r="2.7343" fill="#009FF9" fill-opacity="0.3"/>
<circle cx="170.438" cy="97.8273" r="2.7343" fill="#009FF9" fill-opacity="0.3"/>
<circle cx="191.401" cy="97.8273" r="2.7343" fill="#009FF9" fill-opacity="0.3"/>
<circle cx="198.389" cy="97.8273" r="2.7343" fill="#009FF9" fill-opacity="0.3"/>
<circle cx="219.352" cy="85.0673" r="2.7343" fill="#009FF9" fill-opacity="0.3"/>
<circle cx="226.34" cy="71.3957" r="2.7343" fill="#009FF9" fill-opacity="0.3"/>
<circle cx="233.327" cy="63.1929" r="2.7343" fill="#009FF9" fill-opacity="0.3"/>
<circle cx="240.315" cy="63.1929" r="2.7343" fill="#009FF9" fill-opacity="0.3"/>
<circle cx="247.303" cy="56.2051" r="2.7343" fill="#009FF9" fill-opacity="0.3"/>
<circle cx="254.29" cy="56.2051" r="2.7343" fill="#009FF9" fill-opacity="0.3"/>
<circle cx="37.6726" cy="112.41" r="2.7343" fill="#009FF9" fill-opacity="0.3"/>
<circle cx="44.6603" cy="112.41" r="2.7343" fill="#009FF9" fill-opacity="0.3"/>
<circle cx="51.648" cy="112.41" r="2.7343" fill="#009FF9" fill-opacity="0.3"/>
<circle cx="58.6357" cy="119.094" r="2.7343" fill="#009FF9" fill-opacity="0.3"/>
<circle cx="58.6357" cy="152.513" r="2.7343" fill="#009FF9" fill-opacity="0.3"/>
<circle cx="65.6233" cy="152.513" r="2.7343" fill="#009FF9" fill-opacity="0.3"/>
<circle cx="72.611" cy="152.513" r="2.7343" fill="#009FF9" fill-opacity="0.3"/>
<circle cx="79.5987" cy="152.513" r="2.7343" fill="#009FF9" fill-opacity="0.3"/>
<circle cx="86.5863" cy="152.513" r="2.7343" fill="#009FF9" fill-opacity="0.3"/>
<circle cx="93.574" cy="152.513" r="2.7343" fill="#009FF9" fill-opacity="0.3"/>
<circle cx="100.562" cy="152.513" r="2.7343" fill="#009FF9" fill-opacity="0.3"/>
<circle cx="107.549" cy="165.881" r="2.7343" fill="#009FF9" fill-opacity="0.3"/>
<circle cx="114.537" cy="165.881" r="2.7343" fill="#009FF9" fill-opacity="0.3"/>
<circle cx="121.525" cy="165.881" r="2.7343" fill="#009FF9" fill-opacity="0.3"/>
<circle cx="128.512" cy="165.881" r="2.7343" fill="#009FF9" fill-opacity="0.3"/>
<circle cx="135.5" cy="165.881" r="2.7343" fill="#009FF9" fill-opacity="0.3"/>
<circle cx="142.488" cy="165.881" r="2.7343" fill="#009FF9" fill-opacity="0.3"/>
<circle cx="149.475" cy="172.565" r="2.7343" fill="#009FF9" fill-opacity="0.3"/>
<circle cx="156.463" cy="172.565" r="2.7343" fill="#009FF9" fill-opacity="0.3"/>
<circle cx="65.6233" cy="119.094" r="2.7343" fill="#009FF9" fill-opacity="0.3"/>
<circle cx="72.611" cy="119.094" r="2.7343" fill="#009FF9" fill-opacity="0.3"/>
<circle cx="79.5987" cy="112.41" r="2.7343" fill="#009FF9" fill-opacity="0.3"/>
<circle cx="86.5863" cy="112.41" r="2.7343" fill="#009FF9" fill-opacity="0.3"/>
<circle cx="93.574" cy="119.094" r="2.7343" fill="#009FF9" fill-opacity="0.3"/>
<circle cx="100.562" cy="119.094" r="2.7343" fill="#009FF9" fill-opacity="0.3"/>
<circle cx="107.549" cy="112.41" r="2.7343" fill="#0EB062"/>
<circle cx="114.537" cy="112.41" r="2.7343" fill="#009FF9" fill-opacity="0.3"/>
<circle cx="121.525" cy="112.41" r="2.7343" fill="#009FF9" fill-opacity="0.3"/>
<circle cx="128.512" cy="112.41" r="2.7343" fill="#009FF9" fill-opacity="0.3"/>
<circle cx="135.5" cy="105.726" r="2.7343" fill="#009FF9" fill-opacity="0.3"/>
<circle cx="142.488" cy="91.1435" r="2.7343" fill="#009FF9" fill-opacity="0.3"/>
<circle cx="149.475" cy="97.8273" r="2.7343" fill="#009FF9" fill-opacity="0.3"/>
<circle cx="156.463" cy="97.8273" r="2.7343" fill="#009FF9" fill-opacity="0.3"/>
<circle cx="163.451" cy="104.511" r="2.7343" fill="#009FF9" fill-opacity="0.3"/>
<circle cx="170.438" cy="104.511" r="2.7343" fill="#009FF9" fill-opacity="0.3"/>
<circle cx="226.34" cy="78.0796" r="2.7343" fill="#009FF9" fill-opacity="0.3"/>
<circle cx="233.327" cy="69.8766" r="2.7343" fill="#009FF9" fill-opacity="0.3"/>
<circle cx="240.315" cy="69.8766" r="2.7343" fill="#009FF9" fill-opacity="0.3"/>
<circle cx="247.303" cy="62.889" r="2.7343" fill="#009FF9" fill-opacity="0.3"/>
<circle cx="44.6603" cy="119.094" r="2.7343" fill="#009FF9" fill-opacity="0.3"/>
<circle cx="51.648" cy="119.094" r="2.7343" fill="#009FF9" fill-opacity="0.3"/>
<circle cx="58.6357" cy="125.778" r="2.7343" fill="#009FF9" fill-opacity="0.3"/>
<circle cx="58.6357" cy="159.197" r="2.7343" fill="#009FF9" fill-opacity="0.3"/>
<circle cx="65.6233" cy="159.197" r="2.7343" fill="#009FF9" fill-opacity="0.3"/>
<circle cx="72.611" cy="159.197" r="2.7343" fill="#009FF9" fill-opacity="0.3"/>
<circle cx="79.5987" cy="159.197" r="2.7343" fill="#009FF9" fill-opacity="0.3"/>
<circle cx="86.5863" cy="159.197" r="2.7343" fill="#009FF9" fill-opacity="0.3"/>
<circle cx="93.574" cy="159.197" r="2.7343" fill="#009FF9" fill-opacity="0.3"/>
<circle cx="100.562" cy="159.197" r="2.7343" fill="#009FF9" fill-opacity="0.3"/>
<circle cx="107.549" cy="172.565" r="2.7343" fill="#009FF9" fill-opacity="0.3"/>
<circle cx="114.537" cy="172.565" r="2.7343" fill="#009FF9" fill-opacity="0.3"/>
<circle cx="121.525" cy="172.565" r="2.7343" fill="#009FF9" fill-opacity="0.3"/>
<circle cx="128.512" cy="172.565" r="2.7343" fill="#009FF9" fill-opacity="0.3"/>
<circle cx="135.5" cy="172.565" r="2.7343" fill="#009FF9" fill-opacity="0.3"/>
<circle cx="142.488" cy="172.565" r="2.7343" fill="#009FF9" fill-opacity="0.3"/>
<circle cx="149.475" cy="179.249" r="2.7343" fill="#009FF9" fill-opacity="0.3"/>
<circle cx="156.463" cy="179.249" r="2.7343" fill="#009FF9" fill-opacity="0.3"/>
<circle cx="51.648" cy="159.197" r="2.7343" fill="#009FF9" fill-opacity="0.3"/>
<circle cx="44.6603" cy="159.197" r="2.7343" fill="#009FF9" fill-opacity="0.3"/>
<circle cx="65.6233" cy="125.778" r="2.7343" fill="#009FF9" fill-opacity="0.3"/>
<circle cx="72.611" cy="125.778" r="2.7343" fill="#009FF9" fill-opacity="0.3"/>
<circle cx="79.5987" cy="119.094" r="2.7343" fill="#009FF9" fill-opacity="0.3"/>
<circle cx="86.5863" cy="119.094" r="2.7343" fill="#009FF9" fill-opacity="0.3"/>
<circle cx="93.574" cy="125.778" r="2.7343" fill="#009FF9" fill-opacity="0.3"/>
<circle cx="100.562" cy="125.778" r="2.7343" fill="#009FF9" fill-opacity="0.3"/>
<circle cx="107.549" cy="139.146" r="2.7343" fill="#009FF9" fill-opacity="0.3"/>
<circle cx="114.537" cy="139.146" r="2.7343" fill="#009FF9" fill-opacity="0.3"/>
<circle cx="121.525" cy="139.146" r="2.7343" fill="#009FF9" fill-opacity="0.3"/>
<circle cx="128.512" cy="139.146" r="2.7343" fill="#009FF9" fill-opacity="0.3"/>
<circle cx="135.5" cy="139.146" r="2.7343" fill="#009FF9" fill-opacity="0.3"/>
<circle cx="142.488" cy="139.146" r="2.7343" fill="#009FF9" fill-opacity="0.3"/>
<circle cx="149.475" cy="145.83" r="2.7343" fill="#009FF9" fill-opacity="0.3"/>
<circle cx="156.463" cy="145.83" r="2.7343" fill="#009FF9" fill-opacity="0.3"/>
<circle cx="163.451" cy="145.83" r="2.7343" fill="#009FF9" fill-opacity="0.3"/>
<circle cx="170.438" cy="145.83" r="2.7343" fill="#009FF9" fill-opacity="0.3"/>
<circle cx="177.426" cy="152.513" r="2.7343" fill="#009FF9" fill-opacity="0.3"/>
<circle cx="184.414" cy="152.513" r="2.7343" fill="#009FF9" fill-opacity="0.3"/>
<circle cx="191.401" cy="165.881" r="2.7343" fill="#009FF9" fill-opacity="0.3"/>
<circle cx="198.389" cy="172.565" r="2.7343" fill="#009FF9" fill-opacity="0.3"/>
<circle cx="107.549" cy="119.094" r="2.7343" fill="#0EB062"/>
<circle cx="114.537" cy="119.094" r="2.7343" fill="#0EB062"/>
<circle cx="121.525" cy="119.094" r="2.7343" fill="#009FF9" fill-opacity="0.3"/>
<circle cx="128.512" cy="119.094" r="2.7343" fill="#009FF9" fill-opacity="0.3"/>
<circle cx="135.5" cy="112.41" r="2.7343" fill="#009FF9" fill-opacity="0.3"/>
<circle cx="142.488" cy="97.8273" r="2.7343" fill="#009FF9" fill-opacity="0.3"/>
<circle cx="149.475" cy="104.511" r="2.7343" fill="#009FF9" fill-opacity="0.3"/>
<circle cx="156.463" cy="104.511" r="2.7343" fill="#009FF9" fill-opacity="0.3"/>
<circle cx="163.451" cy="111.195" r="2.7343" fill="#009FF9" fill-opacity="0.3"/>
<circle cx="170.438" cy="111.195" r="2.7343" fill="#009FF9" fill-opacity="0.3"/>
<circle cx="226.34" cy="84.7635" r="2.7343" fill="#009FF9" fill-opacity="0.3"/>
<circle cx="233.327" cy="76.5605" r="2.7343" fill="#009FF9" fill-opacity="0.3"/>
<circle cx="240.315" cy="76.5605" r="2.7343" fill="#009FF9" fill-opacity="0.3"/>
<circle cx="247.303" cy="69.5729" r="2.7343" fill="#009FF9" fill-opacity="0.3"/>
<circle cx="44.6603" cy="125.778" r="2.7343" fill="#009FF9" fill-opacity="0.3"/>
<circle cx="51.648" cy="125.778" r="2.7343" fill="#009FF9" fill-opacity="0.3"/>
<circle cx="58.6357" cy="132.462" r="2.7343" fill="#009FF9" fill-opacity="0.3"/>
<circle cx="58.6357" cy="165.881" r="2.7343" fill="#009FF9" fill-opacity="0.3"/>
<circle cx="65.6233" cy="165.881" r="2.7343" fill="#009FF9" fill-opacity="0.3"/>
<circle cx="72.611" cy="165.881" r="2.7343" fill="#009FF9" fill-opacity="0.3"/>
<circle cx="79.5987" cy="165.881" r="2.7343" fill="#009FF9" fill-opacity="0.3"/>
<circle cx="86.5863" cy="165.881" r="2.7343" fill="#009FF9" fill-opacity="0.3"/>
<circle cx="93.574" cy="165.881" r="2.7343" fill="#009FF9" fill-opacity="0.3"/>
<circle cx="100.562" cy="165.881" r="2.7343" fill="#009FF9" fill-opacity="0.3"/>
<circle cx="107.549" cy="179.249" r="2.7343" fill="#009FF9" fill-opacity="0.3"/>
<circle cx="114.537" cy="179.249" r="2.7343" fill="#009FF9" fill-opacity="0.3"/>
<circle cx="121.525" cy="179.249" r="2.7343" fill="#009FF9" fill-opacity="0.3"/>
<circle cx="128.512" cy="179.249" r="2.7343" fill="#009FF9" fill-opacity="0.3"/>
<circle cx="135.5" cy="179.249" r="2.7343" fill="#009FF9" fill-opacity="0.3"/>
<circle cx="142.488" cy="179.249" r="2.7343" fill="#009FF9" fill-opacity="0.3"/>
<circle cx="149.475" cy="185.933" r="2.7343" fill="#009FF9" fill-opacity="0.3"/>
<circle cx="156.463" cy="185.933" r="2.7343" fill="#009FF9" fill-opacity="0.3"/>
<circle cx="107.549" cy="185.933" r="2.7343" fill="#009FF9" fill-opacity="0.3"/>
<circle cx="114.537" cy="185.933" r="2.7343" fill="#009FF9" fill-opacity="0.3"/>
<circle cx="121.525" cy="185.933" r="2.7343" fill="#009FF9" fill-opacity="0.3"/>
<circle cx="128.512" cy="185.933" r="2.7343" fill="#009FF9" fill-opacity="0.3"/>
<circle cx="135.5" cy="185.933" r="2.7343" fill="#009FF9" fill-opacity="0.3"/>
<circle cx="142.488" cy="185.933" r="2.7343" fill="#009FF9" fill-opacity="0.3"/>
<circle cx="149.475" cy="192.617" r="2.7343" fill="#009FF9" fill-opacity="0.3"/>
<circle cx="156.463" cy="192.617" r="2.7343" fill="#009FF9" fill-opacity="0.3"/>
<circle cx="51.648" cy="165.881" r="2.7343" fill="#009FF9" fill-opacity="0.3"/>
<circle cx="44.6603" cy="165.881" r="2.7343" fill="#009FF9" fill-opacity="0.3"/>
<circle cx="65.6233" cy="132.462" r="2.7343" fill="#009FF9" fill-opacity="0.3"/>
<circle cx="72.611" cy="132.462" r="2.7343" fill="#009FF9" fill-opacity="0.3"/>
<circle cx="79.5987" cy="125.778" r="2.7343" fill="#009FF9" fill-opacity="0.3"/>
<circle cx="86.5863" cy="125.778" r="2.7343" fill="#009FF9" fill-opacity="0.3"/>
<circle cx="93.574" cy="132.462" r="2.7343" fill="#009FF9" fill-opacity="0.3"/>
<circle cx="100.562" cy="132.462" r="2.7343" fill="#009FF9" fill-opacity="0.3"/>
<circle cx="107.549" cy="145.83" r="2.7343" fill="#009FF9" fill-opacity="0.3"/>
<circle cx="114.537" cy="145.83" r="2.7343" fill="#009FF9" fill-opacity="0.3"/>
<circle cx="121.525" cy="145.83" r="2.7343" fill="#009FF9" fill-opacity="0.3"/>
<circle cx="128.512" cy="145.83" r="2.7343" fill="#009FF9" fill-opacity="0.3"/>
<circle cx="135.5" cy="145.83" r="2.7343" fill="#009FF9" fill-opacity="0.3"/>
<circle cx="142.488" cy="145.83" r="2.7343" fill="#009FF9" fill-opacity="0.3"/>
<circle cx="149.475" cy="152.513" r="2.7343" fill="#009FF9" fill-opacity="0.3"/>
<circle cx="156.463" cy="152.513" r="2.7343" fill="#009FF9" fill-opacity="0.3"/>
<circle cx="163.451" cy="152.513" r="2.7343" fill="#009FF9" fill-opacity="0.3"/>
<circle cx="170.438" cy="152.513" r="2.7343" fill="#009FF9" fill-opacity="0.3"/>
<circle cx="177.426" cy="159.197" r="2.7343" fill="#009FF9" fill-opacity="0.3"/>
<circle cx="184.414" cy="159.197" r="2.7343" fill="#009FF9" fill-opacity="0.3"/>
<circle cx="191.401" cy="172.565" r="2.7343" fill="#009FF9" fill-opacity="0.3"/>
<circle cx="107.549" cy="125.778" r="2.7343" fill="#009FF9" fill-opacity="0.3"/>
<circle cx="114.537" cy="125.778" r="2.7343" fill="#0EB062"/>
<circle cx="121.525" cy="125.778" r="2.7343" fill="#009FF9" fill-opacity="0.3"/>
<circle cx="128.512" cy="125.778" r="2.7343" fill="#009FF9" fill-opacity="0.3"/>
<circle cx="135.5" cy="119.094" r="2.7343" fill="#009FF9" fill-opacity="0.3"/>
<circle cx="142.488" cy="119.094" r="2.7343" fill="#009FF9" fill-opacity="0.3"/>
<circle cx="149.475" cy="125.778" r="2.7343" fill="#009FF9" fill-opacity="0.3"/>
<circle cx="156.463" cy="125.778" r="2.7343" fill="#009FF9" fill-opacity="0.3"/>
<circle cx="142.488" cy="104.511" r="2.7343" fill="#009FF9" fill-opacity="0.3"/>
<circle cx="149.475" cy="111.195" r="2.7343" fill="#009FF9" fill-opacity="0.3"/>
<circle cx="156.463" cy="111.195" r="2.7343" fill="#009FF9" fill-opacity="0.3"/>
<circle cx="51.648" cy="132.462" r="2.7343" fill="#009FF9" fill-opacity="0.3"/>
<circle cx="58.6357" cy="139.146" r="2.7343" fill="#009FF9" fill-opacity="0.3"/>
<circle cx="58.6357" cy="172.565" r="2.7343" fill="#009FF9" fill-opacity="0.3"/>
<circle cx="65.6233" cy="172.565" r="2.7343" fill="#009FF9" fill-opacity="0.3"/>
<circle cx="72.611" cy="172.565" r="2.7343" fill="#009FF9" fill-opacity="0.3"/>
<circle cx="65.6233" cy="139.146" r="2.7343" fill="#009FF9" fill-opacity="0.3"/>
<circle cx="72.611" cy="139.146" r="2.7343" fill="#009FF9" fill-opacity="0.3"/>
<circle cx="79.5987" cy="139.146" r="2.7343" fill="#009FF9" fill-opacity="0.3"/>
<circle cx="86.5863" cy="139.146" r="2.7343" fill="#009FF9" fill-opacity="0.3"/>
<circle cx="79.5987" cy="132.462" r="2.7343" fill="#009FF9" fill-opacity="0.3"/>
<circle cx="86.5863" cy="132.462" r="2.7343" fill="#009FF9" fill-opacity="0.3"/>
<circle cx="93.574" cy="139.146" r="2.7343" fill="#009FF9" fill-opacity="0.3"/>
<circle cx="100.562" cy="139.146" r="2.7343" fill="#009FF9" fill-opacity="0.3"/>
<circle cx="107.549" cy="152.513" r="2.7343" fill="#009FF9" fill-opacity="0.3"/>
<circle cx="114.537" cy="152.513" r="2.7343" fill="#009FF9" fill-opacity="0.3"/>
<circle cx="121.525" cy="152.513" r="2.7343" fill="#009FF9" fill-opacity="0.3"/>
<circle cx="128.512" cy="152.513" r="2.7343" fill="#009FF9" fill-opacity="0.3"/>
<circle cx="135.5" cy="152.513" r="2.7343" fill="#009FF9" fill-opacity="0.3"/>
<circle cx="142.488" cy="152.513" r="2.7343" fill="#009FF9" fill-opacity="0.3"/>
<circle cx="149.475" cy="159.197" r="2.7343" fill="#009FF9" fill-opacity="0.3"/>
<circle cx="156.463" cy="159.197" r="2.7343" fill="#009FF9" fill-opacity="0.3"/>
<circle cx="163.451" cy="159.197" r="2.7343" fill="#009FF9" fill-opacity="0.3"/>
<circle cx="170.438" cy="159.197" r="2.7343" fill="#009FF9" fill-opacity="0.3"/>
<circle cx="177.426" cy="165.881" r="2.7343" fill="#009FF9" fill-opacity="0.3"/>
<circle cx="184.414" cy="165.881" r="2.7343" fill="#009FF9" fill-opacity="0.3"/>
<circle cx="107.549" cy="132.462" r="2.7343" fill="#009FF9" fill-opacity="0.3"/>
<circle cx="114.537" cy="132.462" r="2.7343" fill="#009FF9" fill-opacity="0.3"/>
<circle cx="121.525" cy="132.462" r="2.7343" fill="#009FF9" fill-opacity="0.3"/>
<circle cx="128.512" cy="132.462" r="2.7343" fill="#009FF9" fill-opacity="0.3"/>
<circle cx="135.5" cy="132.462" r="2.7343" fill="#009FF9" fill-opacity="0.3"/>
<circle cx="142.488" cy="132.462" r="2.7343" fill="#009FF9" fill-opacity="0.3"/>
<circle cx="149.475" cy="139.146" r="2.7343" fill="#009FF9" fill-opacity="0.3"/>
<circle cx="156.463" cy="139.146" r="2.7343" fill="#009FF9" fill-opacity="0.3"/>
<circle cx="163.451" cy="139.146" r="2.7343" fill="#009FF9" fill-opacity="0.3"/>
<circle cx="170.438" cy="139.146" r="2.7343" fill="#009FF9" fill-opacity="0.3"/>
<circle cx="177.426" cy="145.83" r="2.7343" fill="#009FF9" fill-opacity="0.3"/>
<circle cx="184.414" cy="145.83" r="2.7343" fill="#009FF9" fill-opacity="0.3"/>
<circle cx="191.401" cy="159.197" r="2.7343" fill="#009FF9" fill-opacity="0.3"/>
<circle cx="198.389" cy="165.881" r="2.7343" fill="#009FF9" fill-opacity="0.3"/>
<circle cx="205.377" cy="173.173" r="2.7343" fill="#009FF9" fill-opacity="0.3"/>
<circle cx="135.5" cy="125.778" r="2.7343" fill="#009FF9" fill-opacity="0.3"/>
<circle cx="142.488" cy="125.778" r="2.7343" fill="#009FF9" fill-opacity="0.3"/>
<circle cx="149.475" cy="132.462" r="2.7343" fill="#009FF9" fill-opacity="0.3"/>
<circle cx="156.463" cy="132.462" r="2.7343" fill="#009FF9" fill-opacity="0.3"/>
<circle cx="163.451" cy="132.462" r="2.7343" fill="#009FF9" fill-opacity="0.3"/>
<circle cx="170.438" cy="132.462" r="2.7343" fill="#009FF9" fill-opacity="0.3"/>
<circle cx="177.426" cy="139.146" r="2.7343" fill="#009FF9" fill-opacity="0.3"/>
<circle cx="184.414" cy="139.146" r="2.7343" fill="#009FF9" fill-opacity="0.3"/>
<circle cx="191.401" cy="152.513" r="2.7343" fill="#009FF9" fill-opacity="0.3"/>
<circle cx="198.389" cy="159.197" r="2.7343" fill="#009FF9" fill-opacity="0.3"/>
<circle cx="205.377" cy="166.489" r="2.7343" fill="#009FF9" fill-opacity="0.3"/>
<circle cx="142.488" cy="111.195" r="2.7343" fill="#009FF9" fill-opacity="0.3"/>
<circle cx="149.475" cy="117.879" r="2.7343" fill="#009FF9" fill-opacity="0.3"/>
</svg>
