<svg width="46" height="32" viewBox="0 0 46 32" fill="none" xmlns="http://www.w3.org/2000/svg">
<path d="M13.5302 15.7852C17.8922 15.7852 21.4228 12.2547 21.4228 7.8926C21.4228 3.53053 17.8922 0 13.5302 0C9.1681 0 5.63757 3.53053 5.63757 7.8926C5.63757 12.2547 9.1681 15.7852 13.5302 15.7852ZM18.9422 18.0402H18.3573C16.8916 18.7449 15.2637 19.1677 13.5302 19.1677C11.7966 19.1677 10.1758 18.7449 8.703 18.0402H8.1181C3.63623 18.0402 0 21.6765 0 26.1583V28.1879C0 30.0553 1.5151 31.5704 3.38254 31.5704H23.6778C25.5453 31.5704 27.0604 30.0553 27.0604 28.1879V26.1583C27.0604 21.6765 23.4241 18.0402 18.9422 18.0402ZM33.8254 15.7852C37.5603 15.7852 40.5905 12.755 40.5905 9.02012C40.5905 5.28523 37.5603 2.25503 33.8254 2.25503C30.0905 2.25503 27.0604 5.28523 27.0604 9.02012C27.0604 12.755 30.0905 15.7852 33.8254 15.7852ZM37.208 18.0402H36.9402C35.9607 18.3785 34.9248 18.604 33.8254 18.604C32.7261 18.604 31.6902 18.3785 30.7107 18.0402H30.4429C29.0053 18.0402 27.6805 18.456 26.5177 19.1255C28.2372 20.9788 29.3154 23.4382 29.3154 26.1583V28.8644C29.3154 29.0194 29.2801 29.1674 29.2731 29.3154H41.718C43.5855 29.3154 45.1006 27.8003 45.1006 25.9328C45.1006 21.5708 41.5701 18.0402 37.208 18.0402Z" fill="#7B7B7B"/>
</svg>
