<svg width="120" height="107" viewBox="0 0 120 107" fill="none" xmlns="http://www.w3.org/2000/svg">
<path opacity="0.8" d="M6.1212 85.6828C6.1212 80.0817 5.73356 74.4611 6.27622 68.8794C6.91579 62.4836 10.5206 57.9874 16.2574 55.1965C16.4706 55.0996 16.6838 54.9832 16.897 54.8669C19.5715 53.8785 22.3624 53.6653 25.192 53.6847C33.7583 53.7235 42.3441 53.6847 50.9104 53.6653C53.0617 54.1692 55.0967 54.9638 57.1511 55.7584C57.1317 62.0185 57.1317 68.298 57.1123 74.5581C57.1123 75.1589 57.2674 75.4107 57.9069 75.3914C59.0116 75.3526 60.1357 75.3719 61.2405 75.3526C61.5312 76.3216 61.1241 77.3101 61.2792 78.2791C61.2598 79.1125 61.2404 79.9459 61.2017 80.7599C61.1629 82.3879 61.8025 83.6864 63.1397 84.5973C64.4964 85.5276 66.0662 85.4501 67.6167 85.3144C69.4773 85.4307 71.3378 85.5084 73.179 85.2176C75.059 84.9269 76.0862 83.5509 75.9699 81.6128C75.8536 79.7329 74.4194 78.3179 72.617 78.2791C71.5898 78.2597 70.5627 78.2405 69.5355 78.2405C69.5549 77.2909 69.5742 76.3216 69.5936 75.372C73.0822 75.3913 76.5707 75.4108 80.0593 75.4108C79.9236 75.6627 79.8267 75.9147 79.6716 76.1472C77.3459 79.7521 76.1056 83.667 76.2412 87.9696C67.326 87.9696 58.4108 87.9502 49.4956 87.9502C49.2436 86.9424 49.4181 85.8959 49.2437 84.8881C47.9452 77.4652 43.9914 71.9417 37.2662 68.4918C33.1575 66.3987 28.7581 65.9336 24.2229 66.5925C21.6259 67.1546 19.1258 67.9103 16.8388 69.3251C13.0596 71.6314 10.1912 74.6938 8.23371 78.6863C7.129 80.9345 6.66387 83.3183 6.1212 85.6828Z" fill="#435B71"/>
<path d="M20.3661 15.5816C22.1298 15.5816 23.8741 15.5816 25.6377 15.5816C25.6377 19.4772 25.6184 23.3534 25.6184 27.249C25.6184 33.5091 25.6377 39.7884 25.6571 46.0485C25.5602 46.0872 25.4633 46.1067 25.3664 46.1455C24.0291 46.068 22.6918 46.0486 21.3546 46.1649C21.1801 46.1455 20.9863 46.1455 20.8119 46.1261C15.2883 46.1067 9.76481 46.0873 4.24125 46.0679C1.58607 46.0679 0.558838 45.0407 0.558838 42.4049C0.558838 34.6137 0.558838 26.8227 0.558838 19.0509C0.558838 16.5895 1.58604 15.5428 4.02803 15.5428C6.45064 15.5428 8.87326 15.5622 11.2959 15.5816C11.2959 19.264 11.2765 22.9659 11.2959 26.6483C11.2959 28.1407 11.7998 28.625 13.3115 28.6444C14.9395 28.6444 16.5675 28.6444 18.1955 28.6444C19.8428 28.6444 20.3661 28.1211 20.3661 26.4155C20.3855 22.8107 20.3855 19.2059 20.3661 15.5816Z" fill="#D0B288"/>
<path d="M35.8127 33.8191C38.1385 27.3071 42.4217 22.617 48.798 19.8649C48.9724 20.0975 49.1275 20.0586 49.2437 19.8067H49.2243C49.5732 19.7679 49.9415 19.7484 50.2709 19.6709C53.2556 18.8181 56.3177 18.4886 59.3799 18.1979C59.9613 18.1398 60.7172 17.8298 61.0467 18.8182C61.9382 21.4928 63.5856 23.7023 65.7562 25.4078C67.0354 26.3962 67.4036 27.5397 67.3648 28.9739C67.3454 29.9817 67.6943 30.8344 68.2951 31.5902C69.3805 32.9857 70.4658 34.4006 71.5705 35.796C72.2101 36.5906 72.869 37.2882 73.9544 37.5983C75.311 37.9859 76.6095 38.645 77.9274 39.1683C81.3966 40.5056 84.827 41.9785 88.3931 43.0251C87.676 44.3624 87.676 45.6996 88.335 47.0562C87.4628 46.8237 86.5713 46.5911 85.6992 46.378C81.0672 45.0019 76.4351 43.6259 71.8031 42.2692C70.834 41.9785 69.9813 41.591 69.1866 40.932C66.8028 38.9552 64.3608 37.0558 61.9382 35.1177C61.6087 34.8464 61.2986 34.575 60.7753 34.8464C57.2286 36.6294 53.682 38.3737 50.1352 40.1373C49.767 40.0017 49.3988 39.8855 49.0305 39.7304C44.6504 37.7729 40.2316 35.796 35.8127 33.8191Z" fill="#FEDC70"/>
<path opacity="0.8" d="M6.12123 85.6828C6.6639 83.3183 7.12901 80.9345 8.21434 78.7057C10.1524 74.7132 13.0402 71.6314 16.8195 69.3445C19.1064 67.9491 21.6259 67.174 24.2036 66.6119C24.3974 67.1158 24.9013 67.0964 25.2889 67.2514C31.2582 69.6353 35.4833 73.7829 38.0416 79.6553C38.9718 81.8066 39.6308 84.0354 39.7277 86.3999C39.7664 87.3689 40.0959 87.9504 41.3169 87.8922C42.7511 87.8341 44.2434 87.6014 45.6776 88.0472C42.7317 88.0666 39.7858 88.086 36.8206 88.1054C30.7931 88.1054 24.7463 88.1054 18.7188 88.1054C15.6954 88.1054 12.6719 88.1054 9.64851 88.1054C9.18337 88.086 8.71826 88.0472 8.23374 88.0472C5.98556 88.0472 5.98557 88.0473 6.12123 85.6828Z" fill="#435B71"/>
<path opacity="0.8" d="M76.2219 87.9696C76.0862 83.6476 77.3266 79.7521 79.6523 76.1472C79.8074 75.9147 79.9042 75.6627 80.0399 75.4108C81.7067 73.337 83.5478 71.4571 85.7185 69.926C88.3349 68.3368 91.1064 67.1934 94.1104 66.6119C94.343 66.767 94.5562 66.9607 94.8081 67.0383C99.0332 68.5887 102.541 71.1664 105.235 74.7713C108.142 78.6281 109.77 82.9694 109.828 87.834C103.297 87.834 96.7462 87.834 90.2149 87.834C89.7885 87.834 89.3427 87.7176 88.9357 87.9502C88.8582 87.989 88.7613 88.0084 88.6838 88.0472C88.5675 88.0278 88.4512 88.0084 88.3349 87.989C86.7457 87.6595 85.1371 87.8728 83.5285 87.8728C82.3656 87.8728 81.1834 87.6596 80.0399 88.0278C79.9042 88.0472 79.7492 88.086 79.6135 88.1054C78.4894 88.0666 77.3653 88.0277 76.2219 87.9696Z" fill="#435B71"/>
<path d="M57.1511 55.7778C55.0967 55.0025 53.0617 54.1886 50.9105 53.6847C50.6197 53.3746 50.2321 53.3165 49.8639 53.1808C46.4916 52.0373 43.1194 50.9131 39.7859 49.6921C37.4408 48.8394 34.8243 48.4324 33.2932 46.1067C32.0141 43.2771 32.4598 40.6026 33.9328 37.9668C34.3979 37.1528 34.708 36.2417 35.0957 35.3889C35.2313 35.8153 35.5608 35.951 35.9484 36.1254C38.0609 37.0557 40.1347 38.0443 42.2278 38.9746C45.8133 40.5832 49.3987 42.1531 52.9648 43.7811C56.9379 45.5835 60.9304 47.3471 64.8453 49.2658C66.764 50.2155 67.9463 51.8241 67.8687 54.1305C67.7525 57.6966 67.83 61.2627 67.7137 64.8288C67.5587 69.3058 67.423 73.7827 67.4036 78.2597C65.3686 78.2791 63.3336 78.2791 61.2986 78.2985C61.1242 77.3295 61.5312 76.341 61.2598 75.372C61.5312 69.5383 61.3955 63.7048 61.4924 57.8711C61.4924 57.4059 61.3761 57.1539 60.8916 57.0182C59.6125 56.6306 58.3915 56.1848 57.1511 55.7778Z" fill="#4A4B51"/>
<path d="M79.6329 88.1054C79.7686 88.086 79.9237 88.0472 80.0593 88.0278C82.8308 88.0084 85.5829 88.0084 88.3543 87.989C88.4706 88.0084 88.5869 88.0278 88.7032 88.0472C88.8195 88.7449 88.8582 89.4619 89.052 90.1597C90.2343 94.7142 94.2462 97.4084 99.0332 96.9044C103.316 96.4587 106.631 92.6793 106.805 88.0472C107.832 88.0278 108.879 88.0084 109.906 88.0084C111.902 88.0472 113.898 88.0666 115.895 88.1054C115.856 98.0866 107.716 106.188 97.7347 106.13C87.7729 106.071 79.5942 97.9122 79.6329 88.1054Z" fill="#42424B"/>
<path d="M36.8205 88.086C39.7664 88.0666 42.7123 88.0472 45.6775 88.0278C45.7551 88.0666 45.8132 88.086 45.8908 88.1054C45.8714 98.0091 37.6151 106.188 27.6921 106.11C17.7303 106.033 9.6485 97.9703 9.66788 88.086C12.6913 88.086 15.7147 88.086 18.7381 88.086C18.9126 91.6133 20.4824 94.2878 23.6221 95.9546C29.1263 98.9005 36.4329 95.3926 36.8205 88.086Z" fill="#42424B"/>
<path opacity="0.8" d="M86.0092 14.5543C85.9317 14.5736 85.8541 14.6125 85.7766 14.6319C83.2183 14.3799 80.6795 14.0698 78.1018 13.8954C76.6289 13.7985 75.466 14.8062 75.2916 16.2404C75.0009 18.7987 74.807 21.3571 74.5745 23.9154C73.586 26.2024 72.4426 26.5705 69.6905 25.4464C66.1826 23.6052 63.915 20.7368 62.7522 16.9769C61.7637 12.3448 62.694 8.1779 65.9112 4.6118C66.919 3.4877 68.0819 2.55764 69.4967 1.93745C69.7099 1.93745 69.9231 1.91805 70.0006 1.68548L69.9812 1.70465C70.4657 1.70465 70.9309 1.74363 71.4154 1.68548C76.4351 1.02653 80.3306 2.98382 83.4315 6.82126C85.2533 9.06945 85.7185 11.7828 86.0092 14.5543Z" fill="#17B062"/>
<path opacity="0.8" d="M115.856 88.1053C113.859 88.0665 111.863 88.047 109.867 88.0083C109.848 87.9501 109.848 87.8921 109.828 87.8533C109.751 82.9887 108.142 78.6474 105.235 74.7905C102.522 71.2051 99.0331 68.6274 94.808 67.0575C94.5561 66.9606 94.3429 66.7666 94.1104 66.631C95.2344 66.3209 96.3973 66.4568 97.5213 66.3793C99.1106 66.263 100.661 66.6893 102.25 66.6118L102.231 66.5924C102.308 66.6893 102.386 66.7669 102.444 66.8638C110.894 68.5112 118.104 76.2247 119.15 84.6942C119.247 85.5663 119.364 86.419 119.383 87.2912C119.402 87.9308 119.17 88.1053 118.55 88.0859C117.677 88.0277 116.767 88.0859 115.856 88.1053Z" fill="#435B71"/>
<path d="M45.8908 88.1055C45.8133 88.0861 45.7358 88.0666 45.6776 88.0279C44.2434 87.5821 42.7705 87.8148 41.3169 87.8729C40.0959 87.931 39.7665 87.3496 39.7277 86.3805C39.6308 84.016 38.9913 81.7873 38.0416 79.636C35.4833 73.7635 31.2389 69.616 25.2889 67.2321C24.9013 67.077 24.3974 67.0965 24.2036 66.5926C28.7387 65.9336 33.1382 66.3794 37.247 68.4919C43.9721 71.9223 47.9258 77.4652 49.2243 84.8882C49.3988 85.896 49.2244 86.9425 49.4763 87.9503C49.3213 87.9696 49.1662 87.9891 49.0111 88.0085C48.0615 87.7177 47.1118 87.7177 46.1621 88.0085C46.0652 88.0472 45.9684 88.0861 45.8908 88.1055Z" fill="white"/>
<path opacity="0.8" d="M85.7185 46.378C86.5906 46.6106 87.4821 46.8431 88.3543 47.0563C89.1683 48.0641 90.1373 48.7813 91.4746 48.8589C93.9553 48.7426 95.4477 47.134 95.312 44.7307C95.1957 42.6763 93.4902 41.2422 91.242 41.3584C90.8544 41.436 90.4668 41.5135 90.0598 41.591C88.6062 41.0096 87.1333 40.4475 85.6797 39.8661C85.7379 35.9123 86.0092 35.6411 89.9241 35.079C93.7809 34.5363 97.6183 33.9355 101.475 33.3735C101.456 39.3622 101.456 45.3316 101.436 51.3203C100.642 51.2428 99.8665 51.1653 99.0719 51.1071C98.82 51.0296 98.5486 50.9133 98.2773 50.8746C94.0523 50.235 89.8272 49.5952 85.6022 48.9556C85.4084 48.0835 85.7185 47.2308 85.7185 46.378Z" fill="#435B71"/>
<path opacity="0.8" d="M102.27 66.5731C100.681 66.6507 99.1301 66.2437 97.5409 66.3406C96.3974 66.4181 95.2539 66.3018 94.1298 66.5925C91.1258 67.174 88.335 68.3174 85.7379 69.9066C85.7379 64.1892 85.7573 58.4719 85.7573 52.7351C86.4163 52.987 87.0946 53.239 87.7535 53.491C92.0173 55.0608 96.2617 56.65 100.526 58.2198C101.146 61.0107 101.843 63.7629 102.27 66.5731Z" fill="#435B71"/>
<path d="M33.2738 46.1067C34.8049 48.4324 37.4213 48.8394 39.7664 49.6921C43.0999 50.9131 46.4916 52.0179 49.8445 53.1808C50.2127 53.3165 50.6197 53.3746 50.891 53.6847C42.3246 53.7041 33.7389 53.7429 25.1726 53.7041C22.3236 53.6847 19.5521 53.8979 16.8776 54.8863C16.8776 53.8979 16.8776 52.9094 16.8776 51.9404C16.8776 48.6456 17.8078 47.289 20.8119 46.1455C20.9863 46.1649 21.1801 46.1649 21.3545 46.1843C22.6918 46.4362 24.0291 46.4556 25.3664 46.1649C25.4633 46.1261 25.5602 46.1066 25.6571 46.0679C25.7152 46.1066 25.7928 46.1261 25.8703 46.1455C26.82 46.4362 27.7696 46.4362 28.7193 46.1455C28.7968 46.1261 28.8937 46.0873 28.9712 46.0679C30.4054 46.0873 31.8396 46.0873 33.2738 46.1067Z" fill="#42424B"/>
<path d="M25.8897 46.1455C25.8121 46.1261 25.754 46.0873 25.6765 46.0679C25.6571 39.8078 25.6377 33.5285 25.6377 27.2684C25.6377 23.3728 25.6377 19.4966 25.6571 15.601C26.4129 15.5816 27.1688 15.5622 27.9247 15.5622C30.0178 15.5622 31.1225 16.6864 31.1225 18.8183C31.1225 24.8071 31.1225 30.7958 31.1225 36.7846C31.1225 38.6839 31.0643 40.6025 31.1419 42.5019C31.2194 44.2268 30.5411 45.3896 28.9906 46.0873C28.9131 46.1067 28.8162 46.1455 28.7386 46.1649C27.7696 46.1455 26.8393 46.1455 25.8897 46.1455Z" fill="#BB9063"/>
<path d="M67.3842 78.2597C67.4036 73.7827 67.5393 69.2864 67.6943 64.8288C67.8106 61.2627 67.733 57.6966 67.8493 54.1304C67.9268 51.8435 66.7446 50.2155 64.8259 49.2658C60.911 47.3471 56.9185 45.5835 52.9454 43.7811C49.3793 42.1724 45.7745 40.5832 42.2084 38.9746C40.1153 38.0249 38.0415 37.0363 35.929 36.1254C35.5414 35.951 35.212 35.8153 35.0763 35.3889C35.3282 34.8656 35.5608 34.3425 35.8127 33.8192C40.2316 35.7961 44.6504 37.7536 49.0692 39.7305C49.4181 39.8855 49.8057 40.0018 50.174 40.1374C50.4453 40.2925 50.6973 40.4669 50.988 40.5831C56.1239 42.9089 61.2792 45.2151 66.4346 47.5409C68.5858 48.5099 69.9037 50.1768 70.1751 52.5219C70.2913 53.5685 70.1751 54.6537 70.1363 55.739C69.9619 62.2898 69.7681 68.8406 69.5937 75.3913C69.5743 76.341 69.5549 77.31 69.5355 78.2597C68.8959 78.2985 68.2563 78.3179 67.6168 78.3567C67.5392 78.3179 67.4617 78.2791 67.3842 78.2597Z" fill="#43434B"/>
<path d="M20.3661 15.5816C20.3661 19.1865 20.3661 22.8107 20.3661 26.4155C20.3661 28.1211 19.8428 28.6444 18.1954 28.6444C16.5674 28.6444 14.9395 28.6444 13.3115 28.6444C11.8191 28.6444 11.3152 28.16 11.2958 26.6483C11.2765 22.9659 11.2958 19.264 11.2958 15.5816C14.3386 15.5816 17.3621 15.5816 20.3661 15.5816Z" fill="#9F785B"/>
<path d="M101.456 51.3203C101.475 45.3315 101.475 39.3622 101.495 33.3734C102.812 32.947 103.956 33.5284 104.925 34.2261C110.274 38.1023 110.061 47.1146 104.712 50.6226C103.743 51.2621 102.657 51.6304 101.456 51.3203Z" fill="#FEDC70"/>
<path d="M85.6992 39.8661C87.1527 40.4475 88.6256 41.0096 90.0792 41.591C89.5365 42.0755 88.9745 42.56 88.4319 43.0252C84.8464 41.9786 81.4353 40.5057 77.9662 39.1684C76.6289 38.6645 75.3498 37.986 73.9931 37.5984C72.9078 37.2883 72.2488 36.5907 71.6092 35.7961C70.5045 34.4007 69.4192 32.9858 68.3338 31.5903C67.733 30.8151 67.3842 29.9818 67.4036 28.974C67.4424 27.5398 67.0741 26.4157 65.795 25.4079C63.6243 23.7024 61.9769 21.4929 61.0854 18.8183C60.7559 17.8299 60.0001 18.1399 59.4187 18.198C56.3565 18.5081 53.2943 18.8376 50.3096 19.671C49.9802 19.7679 49.6119 19.768 49.2631 19.8068C51.2012 18.6052 53.43 18.2174 55.6006 17.7523C57.9651 17.2678 60.3489 16.9384 62.7715 16.9384C63.9344 20.6983 66.202 23.5667 69.7099 25.4079C69.8262 26.5126 70.1169 27.5979 70.0588 28.722C70.0394 29.1484 70.2526 29.4779 70.5046 29.788C71.9387 31.6292 73.3729 33.4898 74.8265 35.3504C75.0203 35.583 75.2528 35.8542 75.5435 35.9511C78.9158 37.2496 82.23 38.7613 85.6992 39.8661Z" fill="#FFCB2F"/>
<path d="M74.5745 23.9156C74.807 21.3573 75.0203 18.7988 75.2916 16.2406C75.4467 14.8064 76.6095 13.7986 78.1018 13.8955C80.6601 14.07 83.2183 14.3801 85.7766 14.632C85.6991 19.2835 81.1252 23.838 76.4932 23.8962C75.8343 23.9156 75.214 23.9156 74.5745 23.9156Z" fill="#F5DBCD"/>
<path opacity="0.8" d="M100.526 58.2586C96.2618 56.6887 91.998 55.0996 87.7536 53.5298C87.0946 53.2778 86.4163 53.0258 85.7573 52.7739C85.7186 51.4947 85.6992 50.2348 85.6604 48.9556C89.8854 49.5952 94.1105 50.235 98.3355 50.8746C98.6069 50.9133 98.8588 51.0296 99.1301 51.1071C99.5759 53.491 100.041 55.8747 100.526 58.2586Z" fill="#435B71"/>
<path d="M86.0092 14.5545C85.7379 11.783 85.2533 9.06965 83.4315 6.80207C80.3306 2.96464 76.4351 0.987964 71.4154 1.6663C70.9503 1.72444 70.4657 1.6857 69.9812 1.6857C75.059 -1.18269 82.4625 0.658402 86.1643 5.69746C87.3465 7.30608 88.1217 9.10855 88.5481 11.066C88.9551 12.9072 87.8892 14.3413 86.0092 14.5545Z" fill="#FEDC70"/>
<path d="M42.4603 88.0277C43.41 87.737 49.7281 87.737 50.6778 88.0277C49.7475 88.0277 43.41 88.0277 42.4603 88.0277Z" fill="#435B71"/>
<path d="M70.0006 1.66619C69.9037 1.89876 69.7099 1.93753 69.4967 1.91815C69.5936 1.70496 69.8068 1.70495 70.0006 1.66619Z" fill="#17B062"/>
<path d="M49.2436 19.8262C49.1273 20.0781 48.9723 20.1167 48.7979 19.8841C48.9529 19.8648 49.108 19.8456 49.2436 19.8262Z" fill="#FFCB2F"/>
<path d="M102.464 66.8251C102.386 66.7282 102.309 66.6506 102.25 66.5537C102.328 66.6506 102.386 66.7476 102.464 66.8251Z" fill="#F0554D"/>
<path d="M85.6409 48.9556C85.6797 50.2348 85.6991 51.4947 85.7378 52.7739C85.7378 58.4913 85.7184 64.2086 85.7184 69.9454C83.5478 71.4765 81.6872 73.3564 80.0398 75.4302C76.5513 75.4108 73.0627 75.3914 69.5742 75.3914C69.7486 68.8406 69.9424 62.2898 70.1168 55.739C70.1556 54.673 70.2719 53.5879 70.1556 52.5219C69.8842 50.1768 68.5664 48.5099 66.4151 47.5409C61.2791 45.2152 56.1238 42.9089 50.9685 40.5832C50.6972 40.4475 50.4259 40.2925 50.1545 40.1374C53.7012 38.3738 57.2479 36.6295 60.7946 34.8465C61.3179 34.5945 61.6086 34.8465 61.9575 35.1178C64.3801 37.0365 66.8221 38.9553 69.2059 40.9321C70.0005 41.5911 70.8533 41.998 71.8224 42.2693C76.4544 43.626 81.0864 45.002 85.7184 46.3781C85.7184 47.2308 85.4084 48.0835 85.6409 48.9556Z" fill="#FEFDFC"/>
<path d="M57.151 55.7778C58.3914 56.1848 59.6124 56.6306 60.8722 57.0182C61.3567 57.1539 61.473 57.4253 61.473 57.8711C61.3761 63.7048 61.5118 69.5383 61.2404 75.3719C60.1357 75.3719 59.0116 75.3526 57.9069 75.4107C57.2674 75.4301 57.1123 75.1977 57.1123 74.5775C57.1317 68.2981 57.1317 62.0378 57.151 55.7778Z" fill="#FEFDFC"/>
<path d="M67.6167 78.3373C68.2563 78.2985 68.8959 78.2793 69.5354 78.2405C70.5626 78.2599 71.5898 78.2597 72.617 78.2791C74.4388 78.3179 75.8536 79.7522 75.9699 81.6128C76.0861 83.5703 75.059 84.9269 73.179 85.2177C71.3378 85.5084 69.4773 85.4307 67.6167 85.3144C67.6167 83.0081 67.6167 80.6824 67.6167 78.3373Z" fill="#FFCB2C"/>
<path d="M67.6167 78.3373C67.6167 80.663 67.6167 83.0081 67.6167 85.3338C66.0662 85.4695 64.5157 85.547 63.1397 84.6167C61.8024 83.7058 61.1629 82.4073 61.2016 80.7793C61.221 79.9459 61.2404 79.1125 61.2792 78.2985C63.3141 78.2791 65.3491 78.2791 67.3841 78.2597C67.4616 78.2791 67.5392 78.3179 67.6167 78.3373Z" fill="#FEDC70"/>
<path d="M25.3859 46.1456C24.0486 46.4363 22.7113 46.4169 21.374 46.165C22.7113 46.0487 24.0486 46.0874 25.3859 46.1456Z" fill="#4A4B51"/>
<path d="M88.4318 43.0446C88.9745 42.5601 89.5365 42.0755 90.0792 41.6104C90.4668 41.5329 90.8544 41.4554 91.2614 41.3778C91.4165 41.6879 91.7266 41.7847 91.9979 41.9397C93.8779 43.0251 94.4011 45.1957 93.2964 47.0369C92.8313 47.7928 91.9591 48.1224 91.5134 48.8589C90.1567 48.8007 89.1876 48.0835 88.393 47.0563C87.6953 45.6997 87.6954 44.3625 88.4318 43.0446Z" fill="#4A4B51"/>
<path d="M36.8205 88.086C36.4523 95.3733 29.1263 98.8811 23.6027 95.9546C20.463 94.2878 18.8932 91.6133 18.7188 88.086C24.7462 88.1054 30.7737 88.086 36.8205 88.086Z" fill="#EFEEF6"/>
<path d="M106.786 88.0472C106.611 92.6793 103.297 96.4587 99.0138 96.9044C94.2073 97.4083 90.2149 94.6948 89.0326 90.1597C88.8582 89.4813 88.8 88.7449 88.6837 88.0472C88.7612 88.0084 88.8582 87.989 88.9357 87.9502C89.4008 87.9696 89.8854 88.0084 90.3505 88.0084C95.8353 88.0278 101.301 88.0472 106.786 88.0472Z" fill="#EFEEF6"/>
<path d="M106.786 88.0472C101.301 88.0278 95.8353 88.0278 90.3505 88.0084C89.8854 88.0084 89.4008 87.9696 88.9357 87.9502C89.3427 87.7177 89.7884 87.8341 90.2148 87.8341C96.7462 87.8341 103.297 87.8341 109.828 87.8341C109.848 87.8922 109.848 87.9503 109.867 87.989C108.84 88.0278 107.813 88.0278 106.786 88.0472Z" fill="#435B71"/>
<path d="M88.3349 87.9889C85.5635 88.0083 82.8114 88.0083 80.0399 88.0277C81.1834 87.6401 82.3657 87.8728 83.5285 87.8728C85.1371 87.8728 86.7457 87.6594 88.3349 87.9889Z" fill="#435B71"/>
<path d="M91.4939 48.8589C91.9397 48.1031 92.8118 47.7928 93.277 47.037C94.4011 45.2152 93.8584 43.0251 91.9784 41.9398C91.7071 41.7847 91.397 41.688 91.2419 41.3779C93.4707 41.2616 95.1957 42.6764 95.3119 44.7502C95.4476 47.134 93.9747 48.7233 91.4939 48.8589Z" fill="#42424B"/>
<path d="M25.8896 46.1455C26.8393 46.1455 27.789 46.1455 28.7386 46.1455C27.7696 46.4362 26.8393 46.4362 25.8896 46.1455Z" fill="#4A4B51"/>
</svg>
