<svg width="93" height="108" viewBox="0 0 93 108" fill="none" xmlns="http://www.w3.org/2000/svg">
<path opacity="0.8" d="M13.6072 30.3035C13.5879 21.5627 13.5685 12.8218 13.5879 4.08096C13.5879 2.33667 14.8282 1.40642 16.2818 0.728088C19.0533 0.728088 21.8247 0.728088 24.5962 0.728088C24.5962 1.94909 24.5768 3.15072 24.6156 4.37173C24.6737 6.52302 26.1661 8.03453 28.298 8.03453C35.6433 8.05391 42.9693 8.05391 50.3146 8.03453C52.4853 8.03453 53.9389 6.56178 53.9583 4.37173C53.9776 3.1701 53.9389 1.94911 53.9389 0.747488C56.7878 0.747488 59.6175 0.747488 62.4665 0.747488C64.734 1.77468 65.1798 3.67389 65.1798 5.94146C65.1216 14.6048 65.1604 23.2681 65.141 31.9314C62.8734 31.9314 60.761 32.5516 58.8035 33.5982C56.5941 34.7998 54.4234 36.0982 52.2527 37.3774C49.365 39.0635 46.3028 40.2846 43.0662 41.0986C39.1319 42.1064 37.562 46.2152 39.849 49.5681C41.3607 51.7969 43.667 52.514 46.2059 52.7272C49.9852 53.0373 53.4931 51.7582 57.0592 50.8279C59.1136 50.2853 61.1292 49.4518 63.3192 49.5875C64.0751 49.6263 64.7728 49.7426 65.0054 50.6342C65.0054 52.5141 65.0053 54.3745 65.0247 56.2545C65.0053 60.4214 64.986 64.5884 64.9666 68.7359C61.2067 67.9413 57.5631 66.8367 53.997 65.4025C51.5356 64.414 49.113 63.3287 46.671 62.2822C46.671 62.069 46.6323 61.875 46.671 61.6618C46.7873 60.5377 46.264 59.8206 45.2175 59.4912C44.2678 59.2005 43.6864 59.7625 43.1437 60.4214C42.1941 59.433 40.8955 58.9872 39.8102 58.212C37.8721 56.8553 35.9146 55.5181 33.9765 54.1614C33.8603 52.6109 33.1626 52.049 31.5152 52.1071C31.4377 51.9908 31.3795 51.8551 31.2632 51.7776C28.9569 49.8007 26.7668 47.7269 24.7125 45.4787C21.3014 41.7576 18.278 37.765 15.6035 33.5012C14.9058 32.4546 14.46 31.2532 13.6072 30.3035ZM46.6517 29.1793C46.6517 28.3459 46.671 27.5127 46.6517 26.6793C46.6323 25.497 45.9733 24.7217 45.0237 24.6442C43.8996 24.5667 43.008 25.2837 42.9499 26.4853C42.8724 28.3071 42.8724 30.1485 42.9499 31.9896C42.9887 33.075 43.9965 33.8695 44.9849 33.792C45.8958 33.7338 46.6517 32.8424 46.6517 31.7571C46.6517 30.9043 46.6517 30.032 46.6517 29.1793ZM32.0191 41.0986C32.9687 41.0792 33.6083 40.556 33.8603 39.7032C34.0928 38.8892 33.744 38.1721 33.0463 37.7457C31.4958 36.7961 29.9066 35.8851 28.3173 34.9742C27.4064 34.4509 26.1467 34.7805 25.7009 35.5945C25.1583 36.5829 25.449 37.5519 26.4761 38.1527C27.6971 38.8892 28.8988 39.6062 30.1391 40.2845C30.7399 40.6334 31.302 41.0599 32.0191 41.0986Z" fill="#17B062"/>
<path d="M53.9389 0.728094C53.9389 1.9491 53.9776 3.15071 53.9583 4.35233C53.9389 6.54238 52.5047 8.01537 50.3146 8.01537C42.9693 8.03475 35.6433 8.03475 28.2979 8.01537C26.1467 8.01537 24.6544 6.50362 24.6156 4.35233C24.5768 3.15071 24.6156 1.9297 24.5962 0.708694C34.3642 0.728075 44.1515 0.728094 53.9389 0.728094Z" fill="#435B71"/>
<path d="M64.9472 68.7748C64.9666 64.6078 64.986 60.4408 65.0054 56.2933C66.1488 57.9213 66.9047 59.7239 67.6605 61.5457C67.9319 62.1659 68.3001 62.6891 69.056 62.7473C70.7034 62.9023 71.6143 61.7781 71.0522 60.1889C70.1607 57.6693 68.9785 55.3049 67.3311 53.1924C66.6334 52.2814 66.1682 51.1379 64.986 50.6921C64.7534 49.8006 64.0557 49.6845 63.2999 49.6457C61.1098 49.51 59.0942 50.3435 57.0398 50.8861C53.4737 51.8164 49.9658 53.0955 46.1865 52.7854C43.667 52.5722 41.3607 51.8551 39.8296 49.6263C37.5426 46.2734 39.1125 42.1453 43.0468 41.1568C46.2834 40.3428 49.3456 39.1217 52.2334 37.4356C54.404 36.1564 56.5747 34.858 58.7841 33.6564C60.7416 32.5904 62.8735 31.9897 65.1217 31.9897C68.6877 32.0672 71.653 33.5012 74.2113 35.9432C76.8277 38.4434 78.9209 41.37 81.0527 44.2771C83.0877 47.0292 85.5297 49.4518 87.5647 52.2039C89.7935 55.1886 91.1114 58.5221 91.751 62.1464C92.3518 65.5574 92.6231 69.0074 92.5844 72.4572C92.5069 77.6901 90.7626 82.3025 87.3515 86.3144C84.2312 89.9774 80.3163 92.5165 76.1494 94.7453C74.095 95.8501 72.3895 97.3618 71.1879 99.358C68.7459 103.428 65.0441 105.657 60.5478 106.664C55.2374 107.847 49.9852 107.595 44.8299 105.734C41.1669 104.416 37.9303 102.362 35.0425 99.7843C31.5927 96.7028 28.6856 93.1366 26.4568 89.0472C30.1973 89.0278 33.9378 89.0084 37.6783 89.0084C45.4307 89.0084 53.2024 89.0084 60.9548 89.0084C63.2417 89.0084 64.7534 87.6519 64.9472 85.5006C65.1992 83.4074 65.1992 81.3143 64.9472 79.2211C64.9279 79.0855 64.9278 78.969 64.9085 78.8334C65.1604 78.3101 64.9085 77.7675 64.9085 77.2442C64.986 74.3759 64.9472 71.5656 64.9472 68.7748Z" fill="#FBD5AD"/>
<path opacity="0.8" d="M64.9472 68.7747C64.9472 71.5656 64.986 74.3758 64.9472 77.1666C64.9472 77.6899 65.1991 78.2327 64.9472 78.756C64.2882 80.3065 63.2998 81.4692 61.4393 81.4692C46.6904 81.4692 31.9609 81.4692 17.2121 81.4692C16.4756 81.4692 15.7585 81.3723 15.2158 80.7909C15.7197 78.3101 15.2934 76.0814 13.5491 74.1627C13.5491 72.9805 13.5491 71.7981 13.5491 70.6352C13.6654 70.4221 13.7816 70.209 13.9173 70.0152C15.274 68.3678 15.6616 66.5072 15.2352 64.414C14.9832 63.1736 14.208 62.2627 13.5491 61.2549C13.5491 59.8789 13.5491 58.4834 13.5491 57.1073C15.0802 55.1305 15.8166 52.9405 15.2352 50.421C14.9445 49.1612 14.2274 48.1533 13.5491 47.1067C13.5491 45.7306 13.5491 44.3352 13.5491 42.9591C16.088 39.7419 16.088 36.9898 13.5491 33.7725C13.5685 32.6097 13.5878 31.447 13.5878 30.2841C14.4406 31.2338 14.9057 32.4546 15.5841 33.5206C18.2586 37.7844 21.282 41.7964 24.6931 45.4981C26.7475 47.7463 28.9375 49.8201 31.2438 51.797C31.3407 51.8745 31.3989 52.01 31.4958 52.1263C29.829 53.0953 28.1623 54.0644 26.5149 55.0722C25.5071 55.6924 25.197 56.6615 25.6621 57.5337C26.2048 58.5221 27.232 58.8322 28.3173 58.2508C29.8872 57.398 31.4376 56.4871 32.9881 55.5956C33.5114 55.2855 33.8602 54.801 33.9571 54.2002C35.8952 55.5569 37.8527 56.8941 39.7908 58.2508C40.8761 59.026 42.1746 59.4718 43.1243 60.4602C42.6979 62.689 42.8917 64.9178 42.9886 67.1466C43.0274 68.0769 44.074 68.7941 44.888 68.7165C45.8764 68.639 46.6129 67.8444 46.6323 66.759C46.6516 65.2667 46.6516 63.7937 46.6516 62.3013C49.0936 63.3479 51.5162 64.4334 53.9776 65.4219C57.5437 66.8754 61.1873 67.9801 64.9472 68.7747Z" fill="#17B062"/>
<path d="M13.5491 61.2743C14.2275 62.2627 14.9833 63.193 15.2353 64.4334C15.6616 66.5266 15.274 68.3872 13.9174 70.0345C13.7623 70.2284 13.6654 70.4414 13.5491 70.6546C12.4057 71.3136 11.3397 72.147 9.98306 72.4184C11.3397 72.7478 12.5413 73.2904 13.5491 74.2013C15.2934 76.1006 15.7198 78.3489 15.2159 80.8297C14.6732 81.7018 14.2856 82.6514 13.5491 83.3878C10.894 85.5198 8.2969 85.8106 5.60296 84.2601C3.25787 82.9228 2.07564 79.8995 2.79274 77.0505C3.39354 74.6472 5.79679 72.612 8.14188 72.5151C8.35507 72.4958 8.60701 72.5928 8.80082 72.4184C8.58763 72.2439 8.35507 72.3408 8.14188 72.3214C5.44794 71.895 3.68425 70.2864 2.85088 67.7863C2.28883 66.1389 2.52142 64.4527 3.3548 62.8828C4.18818 61.313 5.54483 60.4214 7.25035 59.7043C2.36636 57.6112 0.215093 54.8592 0.718996 51.5644C1.33918 47.6301 3.8393 45.2074 7.96743 44.781C6.14563 44.3547 4.78898 43.5407 3.83932 42.1841C1.84309 39.3932 2.23071 35.8851 4.80836 33.5594C7.2116 31.3887 10.797 31.4275 13.3359 33.637C13.4135 33.6951 13.5104 33.7532 13.5879 33.8113C16.1268 37.0286 16.1268 39.7807 13.5879 42.9979C12.4832 43.9476 11.2428 44.6259 9.75047 44.8778C11.204 45.4205 12.4832 46.1183 13.5879 47.1455C14.2662 48.192 14.9833 49.1998 15.274 50.4595C15.8555 52.9791 15.1384 55.1693 13.5879 57.1461C12.4251 58.3284 11.0296 59.0842 9.421 59.53C11.049 59.5106 12.2894 60.4215 13.5491 61.2743Z" fill="#FBD5AD"/>
<path d="M13.5491 83.3493C14.2856 82.6128 14.6926 81.663 15.2159 80.7909C15.7585 81.3723 16.4756 81.4692 17.2121 81.4692C31.961 81.4692 46.6904 81.4692 61.4393 81.4692C63.2999 81.4692 64.2883 80.3065 64.9472 78.756C64.9666 78.8917 64.9666 79.0079 64.986 79.1435C64.986 81.2367 64.986 83.3298 64.986 85.423C64.7922 87.5743 63.2805 88.9117 60.9935 88.931C53.2412 88.931 45.4694 88.931 37.7171 88.931C33.9766 88.931 30.236 88.9502 26.4955 88.9696C23.6272 88.9502 20.7588 88.8533 17.8905 88.9696C15.526 89.0471 13.3165 87.4579 13.5685 84.6089C13.6073 84.1825 13.5491 83.7757 13.5491 83.3493Z" fill="#435B71"/>
<path d="M8.14185 72.3019C8.35504 72.3213 8.60698 72.2245 8.80079 72.3989C8.5876 72.5734 8.35504 72.4763 8.14185 72.4957C8.16123 72.4376 8.16123 72.3795 8.14185 72.3019Z" fill="#FBD7AF"/>
<path d="M64.986 50.6727C66.1876 51.1185 66.6334 52.2814 67.3311 53.173C68.9591 55.2855 70.1607 57.6693 71.0522 60.1695C71.6142 61.7587 70.7033 62.8636 69.056 62.7279C68.3001 62.6697 67.9125 62.1465 67.6605 61.5263C66.9047 59.7238 66.1488 57.9019 65.0054 56.2739C64.986 54.4133 64.986 52.5333 64.986 50.6727Z" fill="#F8C895"/>
<path d="M46.6711 62.3208C46.6711 63.8131 46.6711 65.2861 46.6517 66.7785C46.6324 67.8638 45.8959 68.6585 44.9075 68.736C44.1128 68.7941 43.0469 68.0769 43.0081 67.166C42.9112 64.9372 42.7174 62.6891 43.1438 60.4797C43.6865 59.8207 44.2679 59.2587 45.2176 59.5494C46.2641 59.8789 46.768 60.596 46.6711 61.7201C46.6324 61.9139 46.6517 62.1269 46.6711 62.3208Z" fill="#E9EDEF"/>
<path d="M33.9572 54.2002C33.8409 54.8204 33.5114 55.2854 32.9881 55.5955C31.4376 56.5064 29.8872 57.398 28.3173 58.2507C27.232 58.8322 26.2048 58.5221 25.6621 57.5336C25.197 56.6809 25.5071 55.6924 26.5149 55.0722C28.1623 54.0644 29.829 53.1147 31.4958 52.1263C33.1432 52.0875 33.8409 52.6497 33.9572 54.2002Z" fill="#E9EDEF"/>
<path d="M46.6517 29.1793C46.6517 30.0514 46.6711 30.9041 46.6517 31.7763C46.6324 32.8616 45.8959 33.7532 44.985 33.8114C44.0159 33.8889 43.0081 33.075 42.95 32.0091C42.8725 30.1873 42.8725 28.3459 42.95 26.5047C43.0081 25.3031 43.8803 24.5861 45.0238 24.6636C45.9928 24.7218 46.6324 25.5162 46.6517 26.6985C46.6517 27.5125 46.6517 28.3459 46.6517 29.1793Z" fill="#EAEEEF"/>
<path d="M32.0191 41.0986C31.302 41.0599 30.7205 40.6334 30.1391 40.304C28.8987 39.6256 27.6777 38.8892 26.4761 38.1721C25.4489 37.5519 25.1776 36.583 25.7009 35.6139C26.1467 34.7805 27.4064 34.4703 28.3173 34.9936C29.9065 35.9045 31.4958 36.7961 33.0462 37.7652C33.744 38.1916 34.1122 38.9087 33.8602 39.7227C33.6277 40.5754 32.9881 41.0793 32.0191 41.0986Z" fill="#EAEEF0"/>
<path d="M64.986 85.4229C64.986 83.3298 64.986 81.2367 64.986 79.1435C65.2185 81.2367 65.2379 83.3298 64.986 85.4229Z" fill="#91B9DF"/>
<path d="M13.5491 61.2743C12.2893 60.4215 11.0683 59.5106 9.3822 59.5106C10.9908 59.0648 12.3862 58.2896 13.5491 57.1267C13.5491 58.5028 13.5491 59.8789 13.5491 61.2743Z" fill="#F8C895"/>
<path d="M13.5491 47.1261C12.4637 46.0989 11.1846 45.4011 9.71167 44.8584C11.204 44.6065 12.4444 43.9282 13.5491 42.9785C13.5491 44.3546 13.5491 45.7307 13.5491 47.1261Z" fill="#F8C895"/>
<path d="M13.5491 74.1627C12.5413 73.2518 11.3397 72.7091 9.98303 72.3796C11.3397 72.1082 12.4056 71.2942 13.5491 70.6158C13.5491 71.8175 13.5491 72.9999 13.5491 74.1627Z" fill="#F8C895"/>
</svg>
