<svg width="13" height="18" viewBox="0 0 13 18" fill="none" xmlns="http://www.w3.org/2000/svg">
<path d="M2.40495 17.6699L12.341 9.63047C12.4464 9.54047 12.5308 9.43555 12.5941 9.33056C12.6574 9.22557 12.6786 9.10562 12.6786 9.00063C12.6786 8.89564 12.6574 8.77551 12.5941 8.67051C12.5308 8.56552 12.4464 8.4606 12.341 8.37061L2.40495 0.331191C2.1518 0.121206 1.8142 0.0162572 1.41338 0.00125827C1.01256 -0.0137407 0.696186 0.106192 0.421941 0.316178C0.147696 0.541162 0 0.811202 0 1.12618C0 1.44116 0.147696 1.71101 0.421941 1.936L9.15549 9.00063L0.421941 16.0651C0.147696 16.2901 0 16.5601 0 16.8751C0 17.1901 0.12658 17.4451 0.400825 17.6551C0.675069 17.88 1.01256 18 1.41338 18C1.8142 18 2.1518 17.8799 2.40495 17.6699Z" fill="#E3E3E3"/>
</svg>
