<svg width="42" height="42" viewBox="0 0 42 42" fill="none" xmlns="http://www.w3.org/2000/svg">
<circle cx="21" cy="21" r="21" fill="black" fill-opacity="0.8"/>
<path d="M20.1322 26.7888L24.8413 21.4266C24.8962 21.3642 24.9363 21.2974 24.9618 21.2264C24.9873 21.1553 25 21.0806 25 21.0022C25 20.9238 24.9873 20.8491 24.9618 20.778C24.9363 20.707 24.8962 20.6402 24.8413 20.5778L20.1322 15.2156C20.0086 15.0748 19.853 15.003 19.6656 15.0001C19.4781 14.9972 19.3226 15.0662 19.1989 15.207C19.0663 15.358 19 15.5391 19 15.7503C19 15.9615 19.0663 16.1427 19.1989 16.2936L23.334 21.0022L19.1989 25.7108C19.0663 25.8618 19.001 26.0414 19.0029 26.2498C19.0049 26.4581 19.0677 26.6327 19.1913 26.7735C19.3239 26.9245 19.483 27 19.6685 27C19.854 27 20.0086 26.9296 20.1322 26.7888Z" fill="#E3E3E3"/>
</svg>
