<svg width="129" height="109" viewBox="0 0 129 109" fill="none" xmlns="http://www.w3.org/2000/svg">
<path d="M48.1313 34.4431C55.9612 25.3341 65.1477 20.2951 76.1173 18.2989C78.0167 17.95 81.0595 19.2097 81.0982 15.5467C81.137 11.5542 78.0361 12.5426 76.3112 12.5232C71.214 12.4651 71.8535 8.37571 71.9117 5.50733C71.9698 2.21256 71.8729 0.0419737 76.4274 0.390832C81.2339 0.73969 86.0985 0.603923 90.9243 0.410113C93.8896 0.293827 94.4904 1.49547 94.6067 4.30571C94.7618 12.3101 95.1106 12.2132 87.9009 12.5814C86.583 12.659 85.4783 13.0272 85.4395 14.9847C85.4008 16.6514 85.6334 17.9113 87.6684 18.0857C97.0487 18.8028 105.227 22.4658 112.476 28.3382C113.426 29.1134 114.201 29.5592 115.286 28.4545C116.585 27.1172 115.906 26.245 114.879 25.2566C113.813 24.2294 112.476 23.0278 113.988 21.5354C115.848 19.6943 116.972 21.7099 118.077 22.7371C120.383 24.8884 122.554 27.1947 124.802 29.4235C125.674 30.2957 126.159 31.3422 125.442 32.4082C124.705 33.5129 123.562 33.3966 122.496 32.7958C121.1 32.0206 120.112 29.1134 118.077 31.6136C116.294 33.8036 119.007 34.8308 119.918 36.0906C134.861 56.9058 130.616 85.1245 110.247 100.028C89.6064 115.126 61.446 110.475 46.1157 89.3301C49.6818 86.6556 51.2323 89.6791 53.2091 91.6947C64.5857 103.285 78.3268 107.335 93.9671 103.246C109.414 99.1951 119.337 88.9232 123.445 73.5347C128.136 55.9755 120.577 37.7185 105.227 28.1637C89.5677 18.4151 70.2449 19.9849 56.0581 32.1562C52.5502 35.0827 52.5502 35.0827 48.1313 34.4431Z" fill="#4B4B4B"/>
<path d="M34.7392 73.4958C38.0921 73.4958 41.445 73.6122 44.7785 73.4378C46.2708 73.3602 49.3911 74.523 48.4996 71.3058C47.7631 68.6118 50.147 63.8248 44.6816 63.6116C39.1192 63.379 33.5182 63.5728 27.9559 63.534C26.3085 63.5146 24.1572 63.7279 24.3123 61.3052C24.4285 59.3478 26.386 59.5803 27.859 59.5609C33.4407 59.5415 39.0224 59.5415 44.604 59.5415C51.0385 59.5415 49.3717 53.9404 49.6237 50.8395C49.7787 48.8238 49.0423 49.0952 45.1273 49.0564C42.6272 49.0177 38.1696 50.6844 38.3053 46.8664C38.4022 44.2887 42.9567 45.1221 45.3987 45.219C50.1276 45.3741 53.2673 44.2305 56.6202 40.2574C74.1211 19.4228 107.844 25.6636 116.817 51.1302C117.496 53.0489 119.569 55.9948 116.817 56.9832C113.639 58.1267 114.085 54.2506 113.406 52.4869C108.018 38.2225 94.4517 30.0049 78.9276 31.8267C65.0896 33.4353 53.1898 45.7035 51.8912 59.6578C50.4571 75.2013 59.0234 88.6712 73.4234 93.497C89.9553 99.04 107.728 90.2604 113.426 73.709C113.968 72.1392 114.278 70.4918 114.821 68.922C115.15 67.9723 115.906 67.3327 116.972 67.6041C118.019 67.856 118.445 68.7863 118.271 69.7553C117.999 71.4027 117.67 73.0501 117.127 74.62C112.185 88.5355 102.243 96.8112 87.7459 98.5943C72.9777 100.397 61.0972 94.5436 53.2092 81.8685C51.0966 78.4768 49.0423 77.4495 45.3599 77.5658C38.1114 77.7984 30.863 77.624 23.5952 77.6434C22.0641 77.6434 20.1647 77.7015 20.0097 75.9185C19.8159 73.6315 21.8703 73.5734 23.5952 73.5541C27.2969 73.4959 31.018 73.4958 34.7392 73.4958Z" fill="#4B4B4B"/>
<path d="M87.8622 62.8751C87.5715 60.4525 85.9047 58.7663 83.1914 58.9407C80.575 59.1152 78.7338 60.8401 78.8889 63.7085C79.0439 66.5381 80.982 68.1467 83.6372 68.011C86.2924 67.8947 87.9397 66.1699 87.8622 62.8751Z" fill="#16B061"/>
<path d="M87.8622 62.8751C87.9397 66.1698 86.2924 67.8947 83.6372 68.0109C80.982 68.1272 79.0439 66.538 78.8889 63.7084C78.7338 60.8594 80.575 59.1151 83.1914 58.9407C85.8854 58.7468 87.5521 60.4524 87.8622 62.8751Z" fill="#EEEDED"/>
<path d="M90.5174 9.44175H75.8848C75.3809 9.44175 74.9739 9.03469 74.9739 8.53078V4.28634C74.9739 3.78243 75.3809 3.37549 75.8848 3.37549H90.5174C91.0213 3.37549 91.4283 3.78243 91.4283 4.28634V8.53078C91.4089 9.03469 91.0019 9.44175 90.5174 9.44175Z" fill="white"/>
<path d="M12.238 77.8178H1.73354C1.22963 77.8178 0.822632 77.4108 0.822632 76.9069V74.7169C0.822632 74.213 1.22963 73.806 1.73354 73.806H12.238C12.7419 73.806 13.1489 74.213 13.1489 74.7169V76.9069C13.1489 77.4108 12.7419 77.8178 12.238 77.8178Z" fill="#4B4B4B"/>
<path d="M105.46 65.2978H91.4865C90.3818 65.2978 89.4902 64.4062 89.4902 63.3015C89.4902 62.1968 90.3818 61.3053 91.4865 61.3053H105.46C106.565 61.3053 107.456 62.1968 107.456 63.3015C107.476 64.3868 106.565 65.2978 105.46 65.2978Z" fill="#16B061"/>
<path d="M83.1914 71.4803C87.8904 71.4803 91.6996 67.671 91.6996 62.972C91.6996 58.2731 87.8904 54.4637 83.1914 54.4637C78.4925 54.4637 74.6832 58.2731 74.6832 62.972C74.6832 67.671 78.4925 71.4803 83.1914 71.4803Z" fill="#16B061"/>
<path d="M83.1914 66.4993C85.1395 66.4993 86.7187 64.92 86.7187 62.9719C86.7187 61.0238 85.1395 59.4446 83.1914 59.4446C81.2433 59.4446 79.6641 61.0238 79.6641 62.9719C79.6641 64.92 81.2433 66.4993 83.1914 66.4993Z" fill="white"/>
</svg>
