<?xml version="1.0" encoding="utf-8"?>
<!-- Generator: Adobe Illustrator 24.2.3, SVG Export Plug-In . SVG Version: 6.00 Build 0)  -->
<svg version="1.1" id="Layer_1" xmlns="http://www.w3.org/2000/svg" xmlns:xlink="http://www.w3.org/1999/xlink" x="0px" y="0px"
	 viewBox="0 0 48 48" style="enable-background:new 0 0 48 48;" xml:space="preserve">
<style type="text/css">
	.st0{fill:#898989;}
	.st1{fill-rule:evenodd;clip-rule:evenodd;fill:#777677;}
	.st2{clip-path:url(#SVGID_2_);fill:#777677;}
	.st3{clip-path:url(#SVGID_4_);fill:#777677;}
	.st4{clip-path:url(#SVGID_6_);}
	.st5{fill:#777677;}
	.st6{clip-path:url(#SVGID_8_);fill:#777677;}
</style>
<g>
	<defs>
		<path id="SVGID_5_" d="M30.9,42.2H17.1C10.86,42.2,5.8,37.14,5.8,30.9V17.1C5.8,10.86,10.86,5.8,17.1,5.8H30.9
			c6.24,0,11.29,5.06,11.29,11.29V30.9C42.2,37.14,37.14,42.2,30.9,42.2z"/>
	</defs>
	<clipPath id="SVGID_2_">
		<use xlink:href="#SVGID_5_"  style="overflow:visible;"/>
	</clipPath>
	<g style="clip-path:url(#SVGID_2_);">
		<path class="st5" d="M5.87,23.97c0-3.4-0.01-6.79,0-10.19c0.01-4.49,3.4-7.9,7.9-7.9c6.81-0.01,13.63-0.01,20.44,0
			c3.89,0.01,7,2.54,7.76,6.3c0.11,0.56,0.15,1.15,0.15,1.73c0.01,6.73,0.01,13.46,0.01,20.2c0,4.62-3.36,8.02-7.98,8.03
			c-6.79,0.02-13.59,0.02-20.38,0c-4.54-0.01-7.9-3.42-7.91-7.96C5.86,30.76,5.87,27.36,5.87,23.97z M12.15,24.14
			c0.03,1.07,0.09,2.31,0.31,3.53c0.49,2.75,1.49,5.25,3.57,7.21c1.97,1.86,4.39,2.68,7.04,2.85c3.3,0.22,6.38-0.32,8.97-2.62
			c4-3.56,3.53-9.89-1.45-12.12c-0.3-0.13-0.35-0.33-0.38-0.63c-0.39-3.95-2.79-6.01-6.65-5.7c-1.64,0.13-3.01,0.83-4.06,2.13
			c-0.24,0.3-0.3,0.5,0.09,0.71c0.38,0.21,0.74,0.46,1.07,0.73c0.35,0.29,0.55,0.27,0.89-0.09c1.08-1.14,2.45-1.27,3.9-0.92
			c1.27,0.3,1.91,1.2,2.23,2.41c0.11,0.43-0.01,0.45-0.37,0.39c-0.32-0.06-0.66-0.08-0.99-0.1c-2.01-0.1-3.99-0.01-5.69,1.26
			c-2.18,1.63-2.34,4.83-0.34,6.68c2.11,1.95,6.57,1.94,8.5-0.76c0.68-0.95,1.07-2,1.26-3.13c0.08-0.46,0.21-0.44,0.52-0.2
			c1.37,1.06,1.94,2.47,1.7,4.15c-0.35,2.42-1.95,3.85-4.09,4.74c-1.6,0.67-3.31,0.75-5.01,0.62c-3.28-0.26-5.91-1.62-7.32-4.73
			c-1.64-3.64-1.67-7.43-0.71-11.24c0.7-2.77,2.27-4.9,5.02-5.97c1.67-0.65,3.43-0.8,5.19-0.64c2.54,0.22,4.78,1.11,6.42,3.19
			c0.76,0.97,1.28,2.07,1.64,3.25c0.09,0.29,0.16,0.42,0.51,0.3c0.51-0.18,1.03-0.3,1.56-0.42c0.27-0.06,0.39-0.15,0.29-0.46
			c-0.97-3.14-2.72-5.66-5.75-7.12c-2.46-1.19-5.07-1.45-7.75-1.11c-3.86,0.49-6.79,2.37-8.53,5.91
			C12.54,18.68,12.18,21.29,12.15,24.14z"/>
		<path class="st5" d="M24.05,28.82c-0.5-0.03-1.09-0.12-1.63-0.4c-1.45-0.75-1.54-2.53-0.17-3.42c0.61-0.39,1.29-0.55,2-0.61
			c1.03-0.08,2.07-0.04,3.1,0.11c0.36,0.05,0.5,0.18,0.43,0.57c-0.08,0.43-0.14,0.85-0.27,1.27C27,28.03,25.91,28.83,24.05,28.82z"
			/>
	</g>
</g>
</svg>
