<?xml version="1.0" encoding="utf-8"?>
<!-- Generator: Adobe Illustrator 24.2.3, SVG Export Plug-In . SVG Version: 6.00 Build 0)  -->
<svg version="1.1" id="Layer_1" xmlns="http://www.w3.org/2000/svg" xmlns:xlink="http://www.w3.org/1999/xlink" x="0px" y="0px"
	 viewBox="0 0 48 48" style="enable-background:new 0 0 48 48;" xml:space="preserve">
<style type="text/css">
	.st0{fill:#898989;}
	.st1{fill-rule:evenodd;clip-rule:evenodd;fill:#777677;}
	.st2{clip-path:url(#SVGID_2_);fill:#777677;}
	.st3{clip-path:url(#SVGID_4_);fill:#777677;}
	.st4{clip-path:url(#SVGID_6_);}
	.st5{fill:#777677;}
	.st6{clip-path:url(#SVGID_8_);fill:#777677;}
</style>
<g>
	<defs>
		<path id="SVGID_7_" d="M30.9,42.2H17.1C10.86,42.2,5.8,37.14,5.8,30.9V17.1C5.8,10.86,10.86,5.8,17.1,5.8H30.9
			c6.24,0,11.29,5.06,11.29,11.29V30.9C42.2,37.14,37.14,42.2,30.9,42.2z"/>
	</defs>
	<clipPath id="SVGID_2_">
		<use xlink:href="#SVGID_7_"  style="overflow:visible;"/>
	</clipPath>
	<path class="st2" d="M42.14,8.2c0,10.53,0,21.07,0,31.6c-0.1,0.08-0.09,0.21-0.13,0.32c-0.33,1-1.01,1.64-2.02,1.93
		c-0.09,0.03-0.19,0-0.26,0.09c-10.51,0-21.02,0-31.53,0c-0.03-0.02-0.05-0.05-0.08-0.06c-1.63-0.56-2.26-1.43-2.26-3.16
		c0-9.98,0-19.95,0-29.93c0-1.95,1.17-3.13,3.13-3.13c9.35,0,18.7,0,28.05,0c0.77,0,1.53-0.01,2.3,0c1.23,0.02,2.28,0.82,2.66,1.98
		C42.04,7.97,42.02,8.11,42.14,8.2z M34.97,14.92c-0.82,0.41-1.66,0.78-2.56,1c-0.25,0.06-0.42,0.02-0.62-0.17
		c-1.93-1.83-5.1-1.68-6.85,0.32c-1,1.14-1.38,2.47-1.17,3.97c0.02,0.18,0.09,0.35-0.23,0.32c-2.68-0.22-5.1-1.11-7.25-2.72
		c-0.88-0.66-1.66-1.43-2.4-2.3c-0.61,1.12-0.8,2.26-0.53,3.47c0.27,1.21,0.93,2.16,1.97,2.94c-0.69-0.01-1.26-0.15-1.79-0.41
		c-0.3-0.15-0.33-0.05-0.31,0.22c0.1,1.38,0.7,2.5,1.75,3.39c0.57,0.48,1.24,0.78,2.04,1c-0.75,0.21-1.41,0.18-2.13,0.1
		c0.81,2.04,2.28,3.13,4.42,3.34c-0.03,0.05-0.03,0.08-0.05,0.09c-0.05,0.05-0.11,0.09-0.17,0.13c-1,0.72-2.09,1.22-3.28,1.53
		c-1.1,0.29-2.21,0.3-3.34,0.28c-0.02-0.01-0.03-0.01-0.05-0.02c0.02,0,0.04,0.01,0.05,0.01c0.06,0.16,0.22,0.2,0.35,0.27
		c2.91,1.67,6.03,2.17,9.32,1.63c2.67-0.44,5.02-1.57,6.94-3.48c2.86-2.82,4.29-6.26,4.28-10.29c0-0.26,0.08-0.42,0.29-0.59
		c0.77-0.61,1.47-1.29,1.99-2.14c0.01-0.01,0.03-0.03,0.04-0.04c-0.03,0-0.05,0-0.08,0c-0.8,0.27-1.61,0.55-2.56,0.64
		c0.96-0.67,1.66-1.44,1.99-2.49c0.02-0.03,0.04-0.06,0-0.08C35.01,14.88,34.98,14.9,34.97,14.92z"/>
</g>
</svg>
