<?xml version="1.0" encoding="utf-8"?>
<!-- Generator: Adobe Illustrator 24.2.3, SVG Export Plug-In . SVG Version: 6.00 Build 0)  -->
<svg version="1.1" id="Layer_1" xmlns="http://www.w3.org/2000/svg" xmlns:xlink="http://www.w3.org/1999/xlink" x="0px" y="0px"
	 viewBox="0 0 48 48" style="enable-background:new 0 0 48 48;" xml:space="preserve">
<style type="text/css">
	.st0{fill:#898989;}
	.st1{fill-rule:evenodd;clip-rule:evenodd;fill:#777677;}
	.st2{clip-path:url(#SVGID_2_);fill:#777677;}
	.st3{clip-path:url(#SVGID_4_);fill:#777677;}
	.st4{clip-path:url(#SVGID_6_);}
	.st5{fill:#777677;}
	.st6{clip-path:url(#SVGID_8_);fill:#777677;}
</style>
<path class="st1" d="M27.6,24.17l-5.41,3.16v-6.27L27.6,24.17z M34.68,24c0-3.93-0.13-5.53-1.1-6.54c-0.97-1.01-1.99-1.09-9.58-1.09
	s-8.61,0.08-9.58,1.09s-1.1,2.61-1.1,6.54c0,3.93,0.13,5.53,1.1,6.54c0.97,1.01,1.99,1.09,9.58,1.09s8.61-0.08,9.58-1.09
	C34.56,29.53,34.68,27.93,34.68,24z M17.13,5.69c-6.32,0-11.45,5.12-11.45,11.45v13.73c0,6.32,5.12,11.45,11.45,11.45h13.73
	c6.32,0,11.45-5.12,11.45-11.45V17.13c0-6.32-5.12-11.45-11.45-11.45H17.13z"/>
</svg>
